<svg width="147" height="147" viewBox="0 0 147 147" fill="none" xmlns="http://www.w3.org/2000/svg">
<path d="M147 73.5C147 114.093 114.093 147 73.5 147C32.9071 147 0 114.093 0 73.5C0 32.9071 32.9071 0 73.5 0C114.093 0 147 32.9071 147 73.5Z" fill="black"/>
<path d="M52 78.5C52 88.165 54.2386 96 57 96C59.7614 96 62 88.165 62 78.5C62 68.835 59.7614 61 57 61C54.2386 61 52 68.835 52 78.5Z" fill="#EEEEEE"/>
<path d="M86 78.5C86 88.165 88.2386 96 91 96C93.7614 96 96 88.165 96 78.5C96 68.835 93.7614 61 91 61C88.2386 61 86 68.835 86 78.5Z" fill="#EEEEEE"/>
</svg>
