<svg width="44" height="23" viewBox="0 0 44 23" fill="none" xmlns="http://www.w3.org/2000/svg">
<path d="M3.91125 9.11096C2.85715 9.11096 2.03607 8.73925 1.44799 7.99583C0.863619 7.25242 0.571431 6.21127 0.571431 4.87238C0.571431 3.5335 0.865468 2.4905 1.45354 1.74338C2.04162 0.996268 2.86085 0.622711 3.91125 0.622711C4.96165 0.622711 5.78088 0.996268 6.36896 1.74338C6.95703 2.4905 7.25107 3.5335 7.25107 4.87238C7.25107 6.21127 6.95703 7.25242 6.36896 7.99583C5.78458 8.73925 4.96535 9.11096 3.91125 9.11096ZM2.3523 4.87238C2.3523 5.76744 2.48545 6.45722 2.75175 6.94174C3.02174 7.42625 3.40824 7.66851 3.91125 7.66851C4.41426 7.66851 4.79891 7.42625 5.06521 6.94174C5.3352 6.45722 5.4702 5.76744 5.4702 4.87238C5.4702 3.97363 5.3352 3.28014 5.06521 2.79193C4.79891 2.30372 4.41426 2.05961 3.91125 2.05961C3.41194 2.05961 3.02729 2.30557 2.75729 2.79748C2.4873 3.28569 2.3523 3.97733 2.3523 4.87238ZM11.3678 9.11096C10.7428 9.11096 10.1898 9.00925 9.709 8.80582C9.22818 8.6024 8.85093 8.32501 8.57723 7.97364C8.30354 7.62228 8.16669 7.22283 8.16669 6.7753C8.16669 6.43133 8.24436 6.11511 8.3997 5.82662C8.55874 5.53813 8.77326 5.29772 9.04326 5.10539C9.31695 4.91307 9.62208 4.78916 9.95865 4.73369V4.68375C9.51482 4.59129 9.15421 4.37492 8.87682 4.03465C8.60312 3.69438 8.46628 3.29864 8.46628 2.84741C8.46628 2.41837 8.59203 2.03742 8.84353 1.70455C9.09504 1.36798 9.439 1.10353 9.87544 0.911201C10.3119 0.718875 10.8093 0.622711 11.3678 0.622711C11.9263 0.622711 12.4238 0.720724 12.8602 0.916749C13.2966 1.10908 13.6406 1.37352 13.8921 1.71009C14.1436 2.04297 14.2694 2.42207 14.2694 2.84741C14.2694 3.29864 14.1288 3.69438 13.8477 4.03465C13.5703 4.37492 13.2153 4.59129 12.7825 4.68375V4.73369C13.1117 4.78916 13.4113 4.91307 13.6813 5.10539C13.955 5.29772 14.1713 5.53813 14.3304 5.82662C14.4931 6.11511 14.5745 6.43133 14.5745 6.7753C14.5745 7.22283 14.4358 7.62228 14.1584 7.97364C13.8847 8.32501 13.5056 8.6024 13.0211 8.80582C12.5403 9.00925 11.9892 9.11096 11.3678 9.11096ZM10.1695 3.03049C10.1695 3.35596 10.2823 3.62226 10.5079 3.82938C10.7335 4.0365 11.0201 4.14006 11.3678 4.14006C11.7118 4.14006 11.9966 4.0365 12.2222 3.82938C12.4515 3.62226 12.5662 3.35596 12.5662 3.03049C12.5662 2.70871 12.4533 2.44796 12.2277 2.24824C12.0058 2.04482 11.7192 1.94311 11.3678 1.94311C11.0128 1.94311 10.7243 2.04297 10.5023 2.24269C10.2804 2.44241 10.1695 2.70501 10.1695 3.03049ZM9.98085 6.63661C9.98085 6.98797 10.1084 7.27461 10.3636 7.49653C10.6189 7.71844 10.9536 7.8294 11.3678 7.8294C11.7821 7.8294 12.1168 7.71844 12.372 7.49653C12.6272 7.27461 12.7548 6.98797 12.7548 6.63661C12.7548 6.28154 12.6235 5.98935 12.3609 5.76004C12.0983 5.53073 11.7673 5.41607 11.3678 5.41607C10.9647 5.41607 10.6318 5.53073 10.3692 5.76004C10.1103 5.98566 9.98085 6.27784 9.98085 6.63661ZM16.8438 9.10541C16.5701 9.10541 16.3389 9.01295 16.1503 8.82802C15.9617 8.63939 15.8674 8.41008 15.8674 8.14008C15.8674 7.86638 15.9617 7.63707 16.1503 7.45214C16.3389 7.26721 16.5701 7.17475 16.8438 7.17475C17.1175 7.17475 17.3486 7.26721 17.5373 7.45214C17.7259 7.63707 17.8202 7.86638 17.8202 8.14008C17.8202 8.41008 17.7259 8.63939 17.5373 8.82802C17.3486 9.01295 17.1175 9.10541 16.8438 9.10541ZM4.19419 13.7337V22H2.45216V15.3925H2.40223L0.510404 16.5853V15.0319L2.55757 13.7337H4.19419ZM8.4108 22.111C7.80793 22.111 7.27163 22.0074 6.80191 21.8003C6.33219 21.5932 5.96234 21.3065 5.69234 20.9404C5.42234 20.5705 5.28365 20.1452 5.27625 19.6643H7.03493C7.04602 19.9676 7.18287 20.2117 7.44547 20.3967C7.70807 20.5779 8.03169 20.6685 8.41635 20.6685C8.81579 20.6685 9.14127 20.5668 9.39277 20.3634C9.64797 20.1563 9.77557 19.89 9.77557 19.5645C9.77557 19.2316 9.64058 18.9598 9.37058 18.7489C9.10058 18.5381 8.73073 18.4327 8.26101 18.4327H7.48985V17.1456H8.26101C8.65675 17.1456 8.97853 17.0457 9.22634 16.846C9.47784 16.6463 9.60359 16.3837 9.60359 16.0582C9.60359 15.7475 9.49448 15.496 9.27627 15.3037C9.06175 15.1077 8.77881 15.0097 8.42744 15.0097C8.06868 15.0097 7.7617 15.104 7.50649 15.2926C7.25499 15.4776 7.12554 15.7272 7.11814 16.0416H5.44269C5.45008 15.5645 5.58508 15.1447 5.84768 14.7822C6.11028 14.4198 6.46534 14.1368 6.91287 13.9334C7.3641 13.7263 7.87265 13.6227 8.43854 13.6227C9.00812 13.6227 9.50558 13.7263 9.93091 13.9334C10.36 14.1405 10.6928 14.4198 10.9295 14.7711C11.1699 15.1225 11.2901 15.5164 11.2901 15.9528C11.2901 16.4151 11.1459 16.8016 10.8574 17.1123C10.5689 17.4193 10.1935 17.6153 9.73119 17.7004V17.7614C10.3378 17.8391 10.7982 18.0499 11.1126 18.3939C11.4307 18.7379 11.5897 19.1669 11.5897 19.681C11.5897 20.1507 11.4529 20.5686 11.1792 20.9348C10.9092 21.301 10.5338 21.5895 10.053 21.8003C9.57585 22.0074 9.02846 22.111 8.4108 22.111ZM13.8812 22.1054C13.6075 22.1054 13.3764 22.0129 13.1877 21.828C12.9991 21.6394 12.9048 21.4101 12.9048 21.1401C12.9048 20.8664 12.9991 20.6371 13.1877 20.4521C13.3764 20.2672 13.6075 20.1747 13.8812 20.1747C14.1549 20.1747 14.3861 20.2672 14.5747 20.4521C14.7633 20.6371 14.8576 20.8664 14.8576 21.1401C14.8576 21.4101 14.7633 21.6394 14.5747 21.828C14.3861 22.0129 14.1549 22.1054 13.8812 22.1054ZM16.2393 22V20.7462L19.1852 18.0166C19.5588 17.6542 19.8436 17.3398 20.0396 17.0735C20.2356 16.8072 20.3336 16.5113 20.3336 16.1858C20.3336 15.8234 20.2134 15.5367 19.973 15.3259C19.7363 15.1151 19.4367 15.0097 19.0743 15.0097C18.6933 15.0097 18.3882 15.1243 18.1589 15.3536C17.9332 15.5793 17.8204 15.8899 17.8204 16.2857H16.1616C16.1616 15.742 16.2855 15.2723 16.5333 14.8765C16.7811 14.4771 17.1233 14.1683 17.5597 13.95C17.9998 13.7318 18.5084 13.6227 19.0854 13.6227C19.6771 13.6227 20.1931 13.7281 20.6332 13.9389C21.0733 14.1461 21.4155 14.4346 21.6596 14.8044C21.9037 15.1706 22.0257 15.5941 22.0257 16.0749C22.0257 16.3856 21.9628 16.6925 21.8371 16.9958C21.715 17.2954 21.4987 17.6301 21.188 18C20.8773 18.3698 20.4372 18.8137 19.8676 19.3315L18.6637 20.5132V20.5742H22.1367V22H16.2393ZM26.4143 22.111C25.3602 22.111 24.5391 21.7392 23.9511 20.9958C23.3667 20.2524 23.0745 19.2113 23.0745 17.8724C23.0745 16.5335 23.3685 15.4905 23.9566 14.7434C24.5447 13.9963 25.3639 13.6227 26.4143 13.6227C27.4647 13.6227 28.2839 13.9963 28.872 14.7434C29.4601 15.4905 29.7541 16.5335 29.7541 17.8724C29.7541 19.2113 29.4601 20.2524 28.872 20.9958C28.2876 21.7392 27.4684 22.111 26.4143 22.111ZM24.8554 17.8724C24.8554 18.7674 24.9885 19.4572 25.2548 19.9417C25.5248 20.4263 25.9113 20.6685 26.4143 20.6685C26.9173 20.6685 27.302 20.4263 27.5683 19.9417C27.8383 19.4572 27.9733 18.7674 27.9733 17.8724C27.9733 16.9736 27.8383 16.2801 27.5683 15.7919C27.302 15.3037 26.9173 15.0596 26.4143 15.0596C25.915 15.0596 25.5304 15.3056 25.2604 15.7975C24.9904 16.2857 24.8554 16.9773 24.8554 17.8724ZM30.7641 22V20.7462L33.71 18.0166C34.0835 17.6542 34.3683 17.3398 34.5644 17.0735C34.7604 16.8072 34.8584 16.5113 34.8584 16.1858C34.8584 15.8234 34.7382 15.5367 34.4978 15.3259C34.2611 15.1151 33.9615 15.0097 33.599 15.0097C33.2181 15.0097 32.9129 15.1243 32.6836 15.3536C32.458 15.5793 32.3452 15.8899 32.3452 16.2857H30.6864C30.6864 15.742 30.8103 15.2723 31.0581 14.8765C31.3059 14.4771 31.648 14.1683 32.0845 13.95C32.5246 13.7318 33.0331 13.6227 33.6101 13.6227C34.2019 13.6227 34.7179 13.7281 35.158 13.9389C35.5981 14.1461 35.9402 14.4346 36.1843 14.8044C36.4284 15.1706 36.5505 15.5941 36.5505 16.0749C36.5505 16.3856 36.4876 16.6925 36.3619 16.9958C36.2398 17.2954 36.0235 17.6301 35.7128 18C35.4021 18.3698 34.962 18.8137 34.3924 19.3315L33.1885 20.5132V20.5742H36.6615V22H30.7641ZM40.7227 22.111C40.1531 22.111 39.6427 22.0074 39.1915 21.8003C38.744 21.5895 38.3908 21.2991 38.1319 20.9293C37.873 20.5594 37.738 20.1378 37.7269 19.6643H39.4245C39.4393 19.9824 39.5725 20.2413 39.824 20.441C40.0755 20.6371 40.3751 20.7351 40.7227 20.7351C41.1296 20.7351 41.4624 20.6019 41.7213 20.3356C41.9839 20.0656 42.1152 19.7161 42.1152 19.2871C42.1152 18.8544 41.9821 18.5011 41.7158 18.2274C41.4532 17.9538 41.1129 17.8169 40.695 17.8169C40.4472 17.8169 40.2105 17.8668 39.9849 17.9667C39.7629 18.0666 39.5891 18.2016 39.4634 18.3717L37.8989 18.0943L38.2928 13.7337H43.3469V15.165H39.7352L39.5244 17.2344H39.5688C39.7167 17.031 39.9368 16.8627 40.229 16.7295C40.5211 16.5964 40.8485 16.5298 41.2109 16.5298C41.7102 16.5298 42.1541 16.6463 42.5424 16.8793C42.9345 17.1123 43.2415 17.4323 43.4634 17.8391C43.689 18.2459 43.8018 18.7138 43.8018 19.2427C43.8018 19.7975 43.6723 20.2913 43.4134 20.724C43.1545 21.1567 42.7939 21.497 42.3316 21.7448C41.8693 21.9889 41.333 22.111 40.7227 22.111Z" fill="black"/>
</svg>
