<svg width="47" height="23" viewBox="0 0 47 23" fill="none" xmlns="http://www.w3.org/2000/svg">
<path d="M3.91125 9.11096C2.85715 9.11096 2.03607 8.73925 1.44799 7.99583C0.863619 7.25242 0.571431 6.21127 0.571431 4.87238C0.571431 3.5335 0.865468 2.4905 1.45354 1.74338C2.04162 0.996268 2.86085 0.622711 3.91125 0.622711C4.96165 0.622711 5.78088 0.996268 6.36896 1.74338C6.95703 2.4905 7.25107 3.5335 7.25107 4.87238C7.25107 6.21127 6.95703 7.25242 6.36896 7.99583C5.78458 8.73925 4.96535 9.11096 3.91125 9.11096ZM2.3523 4.87238C2.3523 5.76744 2.48545 6.45722 2.75175 6.94174C3.02174 7.42625 3.40824 7.66851 3.91125 7.66851C4.41426 7.66851 4.79891 7.42625 5.06521 6.94174C5.3352 6.45722 5.4702 5.76744 5.4702 4.87238C5.4702 3.97363 5.3352 3.28014 5.06521 2.79193C4.79891 2.30372 4.41426 2.05961 3.91125 2.05961C3.41194 2.05961 3.02729 2.30557 2.75729 2.79748C2.4873 3.28569 2.3523 3.97733 2.3523 4.87238ZM8.59388 9L12.0114 2.2205V2.16502H8.02799V0.733669H13.8311V2.18721L10.3969 9H8.59388ZM15.9339 9.10541C15.6602 9.10541 15.4291 9.01295 15.2405 8.82802C15.0518 8.63939 14.9575 8.41008 14.9575 8.14008C14.9575 7.86638 15.0518 7.63707 15.2405 7.45214C15.4291 7.26721 15.6602 7.17475 15.9339 7.17475C16.2076 7.17475 16.4388 7.26721 16.6274 7.45214C16.816 7.63707 16.9104 7.86638 16.9104 8.14008C16.9104 8.41008 16.816 8.63939 16.6274 8.82802C16.4388 9.01295 16.2076 9.10541 15.9339 9.10541ZM3.91125 22.111C2.85715 22.111 2.03607 21.7392 1.44799 20.9958C0.863619 20.2524 0.571431 19.2113 0.571431 17.8724C0.571431 16.5335 0.865468 15.4905 1.45354 14.7434C2.04162 13.9963 2.86085 13.6227 3.91125 13.6227C4.96165 13.6227 5.78088 13.9963 6.36896 14.7434C6.95703 15.4905 7.25107 16.5335 7.25107 17.8724C7.25107 19.2113 6.95703 20.2524 6.36896 20.9958C5.78458 21.7392 4.96535 22.111 3.91125 22.111ZM2.3523 17.8724C2.3523 18.7674 2.48545 19.4572 2.75175 19.9417C3.02174 20.4263 3.40824 20.6685 3.91125 20.6685C4.41426 20.6685 4.79891 20.4263 5.06521 19.9417C5.3352 19.4572 5.4702 18.7674 5.4702 17.8724C5.4702 16.9736 5.3352 16.2801 5.06521 15.7919C4.79891 15.3037 4.41426 15.0596 3.91125 15.0596C3.41194 15.0596 3.02729 15.3056 2.75729 15.7975C2.4873 16.2857 2.3523 16.9773 2.3523 17.8724ZM8.261 22V20.7462L11.2069 18.0166C11.5805 17.6542 11.8653 17.3398 12.0613 17.0735C12.2573 16.8072 12.3553 16.5113 12.3553 16.1858C12.3553 15.8234 12.2351 15.5367 11.9947 15.3259C11.758 15.1151 11.4584 15.0097 11.096 15.0097C10.715 15.0097 10.4099 15.1243 10.1806 15.3536C9.95496 15.5793 9.84215 15.8899 9.84215 16.2857H8.18333C8.18333 15.742 8.30724 15.2723 8.55504 14.8765C8.80285 14.4771 9.14497 14.1683 9.5814 13.95C10.0215 13.7318 10.5301 13.6227 11.1071 13.6227C11.6988 13.6227 12.2148 13.7281 12.6549 13.9389C13.0951 14.1461 13.4372 14.4346 13.6813 14.8044C13.9254 15.1706 14.0474 15.5941 14.0474 16.0749C14.0474 16.3856 13.9846 16.6925 13.8588 16.9958C13.7368 17.2954 13.5204 17.6301 13.2097 18C12.899 18.3698 12.4589 18.8137 11.8893 19.3315L10.6854 20.5132V20.5742H14.1584V22H8.261ZM16.4443 22.1054C16.1706 22.1054 15.9395 22.0129 15.7509 21.828C15.5622 21.6394 15.4679 21.4101 15.4679 21.1401C15.4679 20.8664 15.5622 20.6371 15.7509 20.4521C15.9395 20.2672 16.1706 20.1747 16.4443 20.1747C16.718 20.1747 16.9492 20.2672 17.1378 20.4521C17.3265 20.6371 17.4208 20.8664 17.4208 21.1401C17.4208 21.4101 17.3265 21.6394 17.1378 21.828C16.9492 22.0129 16.718 22.1054 16.4443 22.1054ZM18.8024 22V20.7462L21.7483 18.0166C22.1219 17.6542 22.4067 17.3398 22.6027 17.0735C22.7987 16.8072 22.8967 16.5113 22.8967 16.1858C22.8967 15.8234 22.7765 15.5367 22.5361 15.3259C22.2994 15.1151 21.9998 15.0097 21.6374 15.0097C21.2564 15.0097 20.9513 15.1243 20.722 15.3536C20.4964 15.5793 20.3836 15.8899 20.3836 16.2857H18.7247C18.7247 15.742 18.8486 15.2723 19.0964 14.8765C19.3443 14.4771 19.6864 14.1683 20.1228 13.95C20.5629 13.7318 21.0715 13.6227 21.6485 13.6227C22.2402 13.6227 22.7562 13.7281 23.1963 13.9389C23.6365 14.1461 23.9786 14.4346 24.2227 14.8044C24.4668 15.1706 24.5888 15.5941 24.5888 16.0749C24.5888 16.3856 24.526 16.6925 24.4002 16.9958C24.2782 17.2954 24.0618 17.6301 23.7511 18C23.4404 18.3698 23.0003 18.8137 22.4307 19.3315L21.2268 20.5132V20.5742H24.6998V22H18.8024ZM28.9774 22.111C27.9233 22.111 27.1022 21.7392 26.5142 20.9958C25.9298 20.2524 25.6376 19.2113 25.6376 17.8724C25.6376 16.5335 25.9316 15.4905 26.5197 14.7434C27.1078 13.9963 27.927 13.6227 28.9774 13.6227C30.0278 13.6227 30.8471 13.9963 31.4351 14.7434C32.0232 15.4905 32.3172 16.5335 32.3172 17.8724C32.3172 19.2113 32.0232 20.2524 31.4351 20.9958C30.8508 21.7392 30.0315 22.111 28.9774 22.111ZM27.4185 17.8724C27.4185 18.7674 27.5516 19.4572 27.8179 19.9417C28.0879 20.4263 28.4744 20.6685 28.9774 20.6685C29.4804 20.6685 29.8651 20.4263 30.1314 19.9417C30.4014 19.4572 30.5364 18.7674 30.5364 17.8724C30.5364 16.9736 30.4014 16.2801 30.1314 15.7919C29.8651 15.3037 29.4804 15.0596 28.9774 15.0596C28.4781 15.0596 28.0935 15.3056 27.8235 15.7975C27.5535 16.2857 27.4185 16.9773 27.4185 17.8724ZM33.3272 22V20.7462L36.2731 18.0166C36.6467 17.6542 36.9315 17.3398 37.1275 17.0735C37.3235 16.8072 37.4215 16.5113 37.4215 16.1858C37.4215 15.8234 37.3013 15.5367 37.0609 15.3259C36.8242 15.1151 36.5246 15.0097 36.1621 15.0097C35.7812 15.0097 35.4761 15.1243 35.2467 15.3536C35.0211 15.5793 34.9083 15.8899 34.9083 16.2857H33.2495C33.2495 15.742 33.3734 15.2723 33.6212 14.8765C33.869 14.4771 34.2111 14.1683 34.6476 13.95C35.0877 13.7318 35.5963 13.6227 36.1732 13.6227C36.765 13.6227 37.281 13.7281 37.7211 13.9389C38.1612 14.1461 38.5033 14.4346 38.7475 14.8044C38.9916 15.1706 39.1136 15.5941 39.1136 16.0749C39.1136 16.3856 39.0507 16.6925 38.925 16.9958C38.8029 17.2954 38.5866 17.6301 38.2759 18C37.9652 18.3698 37.5251 18.8137 36.9555 19.3315L35.7516 20.5132V20.5742H39.2246V22H33.3272ZM43.2858 22.111C42.7163 22.111 42.2059 22.0074 41.7546 21.8003C41.3071 21.5895 40.9539 21.2991 40.695 20.9293C40.4361 20.5594 40.3011 20.1378 40.29 19.6643H41.9876C42.0024 19.9824 42.1356 20.2413 42.3871 20.441C42.6386 20.6371 42.9382 20.7351 43.2858 20.7351C43.6927 20.7351 44.0256 20.6019 44.2845 20.3356C44.5471 20.0656 44.6784 19.7161 44.6784 19.2871C44.6784 18.8544 44.5452 18.5011 44.2789 18.2274C44.0163 17.9538 43.676 17.8169 43.2581 17.8169C43.0103 17.8169 42.7736 17.8668 42.548 17.9667C42.3261 18.0666 42.1522 18.2016 42.0265 18.3717L40.462 18.0943L40.8559 13.7337H45.91V15.165H42.2983L42.0875 17.2344H42.1319C42.2798 17.031 42.4999 16.8627 42.7921 16.7295C43.0843 16.5964 43.4116 16.5298 43.7741 16.5298C44.2734 16.5298 44.7172 16.6463 45.1055 16.8793C45.4976 17.1123 45.8046 17.4323 46.0265 17.8391C46.2521 18.2459 46.3649 18.7138 46.3649 19.2427C46.3649 19.7975 46.2355 20.2913 45.9766 20.724C45.7177 21.1567 45.357 21.497 44.8947 21.7448C44.4324 21.9889 43.8961 22.111 43.2858 22.111Z" fill="black"/>
</svg>
