<svg width="1457" height="1696" viewBox="0 0 1457 1696" fill="none" xmlns="http://www.w3.org/2000/svg">
<path d="M209.007 944C209.007 1056.87 174.988 1191.7 212.983 1301.47C231.803 1355.84 253.426 1406.34 286.775 1453.03C306.236 1480.27 327.501 1503.28 348.636 1528.14C358.272 1539.48 346.924 1553.32 366.31 1556.42C378.492 1558.37 384.946 1570.96 391.938 1580.28" stroke="black" stroke-width="3" stroke-linecap="round"/>
<path d="M498.929 502.856C498.929 459.097 464.271 421.772 454.676 378.595C448.021 348.647 459.853 318.628 446.534 289.029C436.278 266.237 441.578 234.936 441.578 209.729C441.578 188.676 437.384 163.286 441.932 142.82C446.381 122.797 460.677 107.47 467.067 88.3012C477.449 57.1551 525.25 5.8151 562.652 5.8151C616.583 5.8151 646.615 -14.3862 680.54 38.3847C713.154 89.1186 726.921 149.557 752.405 203.357C763.987 227.808 772.938 261.998 772.938 289.383C772.938 307.345 775.084 338.892 788.869 349.92C798.915 357.957 794.58 389.056 799.843 400.899C809 421.5 811.172 434.826 811.172 458.249" stroke="black" stroke-width="3" stroke-linecap="round"/>
<path d="M1206.26 394.526C1206.26 411.497 1195.25 428.477 1187.14 442.673C1177.39 459.727 1155.28 480.728 1155.28 496.483" stroke="black" stroke-width="3" stroke-linecap="round"/>
<path d="M1155.28 496.483C1213.93 496.483 1243.51 547.55 1289.1 574.367C1310.79 587.128 1332.66 618.177 1346.45 638.09C1373.29 676.865 1391.05 690.251 1391.05 738.631" stroke="black" stroke-width="3" stroke-linecap="round"/>
<path d="M792.056 1694.48C891.638 1694.48 983.418 1676.24 1078.81 1650.23C1177.33 1623.36 1300.87 1611.9 1374.77 1538C1417.04 1495.73 1434.03 1423.76 1435.66 1366.66C1436.5 1337.31 1454.78 1313.35 1454.78 1283.11C1454.78 1256.68 1454.78 1230.24 1454.78 1203.81" stroke="black" stroke-width="3" stroke-linecap="round"/>
<path d="M637.61 1107.35C615.594 1057.81 628.052 978.382 582.339 942.827C551.414 918.775 494.533 934.079 494.533 976.101C494.533 992.121 494.533 1008.14 494.533 1024.16C494.533 1047.97 500.447 1057.91 511.909 1077.4C515.544 1083.58 531.246 1091.51 537.789 1094.78C544.764 1098.26 553.807 1106.62 561.08 1107.35C576.664 1108.9 585.332 1127.31 601.009 1127.31" stroke="black" stroke-width="3" stroke-linecap="round"/>
<path d="M654.247 1107.35C654.247 1083.43 697.676 1064.09 718.945 1064.09C734.188 1064.09 749.559 1063.48 764.789 1064.09C783.315 1064.83 801.291 1079.83 817.287 1088.12C883.113 1122.25 950.381 1197.3 950.381 1275.19C950.381 1297.26 941.515 1311.03 936.333 1331.76C933.471 1343.21 928.54 1364.65 917.847 1372.06C892.023 1389.94 858.907 1403.48 827.269 1403.48C795.815 1403.48 763.145 1407.14 733.364 1397.57C723.613 1394.43 710.949 1394.03 700.83 1393.5C694.552 1393.17 683.686 1381.02 677.538 1377.6C658.567 1367.06 647.935 1352.29 634.282 1336.93C627.304 1329.08 634.455 1318.79 630.216 1310.32C628.251 1306.39 616.554 1327.93 613.579 1331.02C592.794 1352.64 550.055 1360.23 521.152 1360.23C496.591 1360.23 448.371 1354.03 437.229 1327.69C433.026 1317.76 419.53 1307.18 418.004 1297.01C416.226 1285.15 402.064 1279.6 401.367 1267.06C400.26 1247.13 391.385 1229.05 391.385 1207.91C391.385 1190.66 387.649 1166.21 395.452 1150.6C405.06 1131.39 417.8 1120.72 437.968 1114" stroke="black" stroke-width="3" stroke-linecap="round"/>
<path d="M511.17 1360.23C522.568 1360.23 522.592 1402.48 524.664 1411.8C527.01 1422.35 536.262 1438.86 545.183 1446C552.574 1451.91 576.362 1450.06 586.035 1450.06C591.53 1450.06 600.947 1453.09 605.075 1455.98C609 1458.73 615.401 1444.53 617.645 1443.41" stroke="black" stroke-width="3" stroke-linecap="round"/>
<path d="M777.358 1153.93C784.001 1160.57 782.143 1171.05 790.668 1173.89" stroke="black" stroke-width="3" stroke-linecap="round"/>
<path d="M840.578 1217.15C849.081 1218.85 853.387 1230.21 860.542 1233.79" stroke="black" stroke-width="3" stroke-linecap="round"/>
<path d="M437.968 1147.27C433.107 1147.81 429.825 1150.6 424.658 1150.6" stroke="black" stroke-width="3" stroke-linecap="round"/>
<path d="M441.296 1230.46C436.433 1235.93 437.968 1243.52 437.968 1250.42" stroke="black" stroke-width="3" stroke-linecap="round"/>
<path d="M501.188 1267.06C501.188 1276.91 494.533 1283.82 494.533 1293.68" stroke="black" stroke-width="3" stroke-linecap="round"/>
<path d="M750.74 1360.23C760.052 1360.58 766.656 1362.11 770.704 1370.21" stroke="black" stroke-width="3" stroke-linecap="round"/>
<path d="M803.978 1160.58C803.978 1149.73 830.409 1144.54 839.469 1141.36C881.716 1126.55 923.154 1104.6 962.397 1083.32C1002.64 1061.49 1039.99 1034.62 1079.96 1012.33C1112.72 994.066 1140.85 968.995 1173.31 950.96" stroke="black" stroke-width="3" stroke-linecap="round"/>
<path d="M870.524 1263.73C881.783 1263.73 888.684 1265.35 899.177 1268.54C927.195 1277.07 960.497 1274.49 989.57 1280.37C1010.78 1284.66 1031.99 1283.7 1053.53 1283.7" stroke="black" stroke-width="3" stroke-linecap="round"/>
<path d="M421.331 1167.24C372.763 1145.38 329.564 1125.71 289.716 1089.05C266.566 1067.75 229.503 1049.77 215.035 1020.83" stroke="black" stroke-width="3" stroke-linecap="round"/>
<path d="M2.08398 1363.55C11.7492 1356.52 30.1669 1355.48 41.6426 1353.76C63.1335 1350.53 84.23 1345.65 105.602 1341.74C120.336 1339.05 142.661 1331.95 155.142 1323.62" stroke="black" stroke-width="3" stroke-linecap="round"/>
<path d="M614.318 1110.67C604.943 1103.55 572.53 1044.13 597.682 1044.13C610.755 1044.13 609.207 1083.81 614.318 1094.04" stroke="black" stroke-width="3" stroke-linecap="round"/>
<path d="M1153.35 1110.67C1197.76 1110.67 1239.69 1100.11 1283.12 1093.3C1309.98 1089.08 1287.73 1111.21 1283.86 1125.83C1280.58 1138.22 1271.92 1162.55 1263.15 1172.41C1252.96 1183.88 1277.51 1198.75 1283.12 1207.17" stroke="black" stroke-width="3" stroke-linecap="round"/>
<path d="M191.743 1110.67C172.888 1110.67 154.033 1110.67 135.178 1110.67C125.625 1110.67 121.273 1113.6 112.626 1116.59C109.63 1117.63 97.6291 1115.87 103.383 1117.51C107.239 1118.61 104.42 1125.84 110.223 1127.13C117.43 1128.73 120.002 1133.12 125.936 1137.29C136.787 1144.93 155.79 1158.55 161.797 1170.57" stroke="black" stroke-width="3" stroke-linecap="round"/>
<path d="M1173.31 1370.21C1204.67 1370.21 1221.92 1406.82 1247.63 1417.53C1250.73 1418.82 1249.84 1425 1249.84 1418.45C1249.84 1414.33 1249.84 1410.2 1249.84 1406.07C1249.84 1394.12 1249.84 1382.16 1249.84 1370.21" stroke="black" stroke-width="3" stroke-linecap="round"/>
<path d="M471.242 1047.45C471.242 1031.88 468.099 1025.9 461.999 1011.78C448.403 980.293 430.796 938.158 428.171 902.714C425.412 865.476 422.502 818.567 428.725 782.005C433.482 754.057 442.043 701.896 467.729 684.772C474.918 679.979 479.437 673.095 487.878 668.874C501.911 661.858 516.827 657.197 531.134 650.759C547.309 643.48 579.854 653.626 584.187 673.126C587.801 689.391 604.336 703.954 604.336 722.112C604.336 729.788 602.094 742.287 604.706 749.47C607.506 757.171 614.318 762.298 614.318 771.283C614.318 787.669 617.645 801.408 617.645 817.866" stroke="black" stroke-width="3" stroke-linecap="round"/>
<path d="M770.704 1050.78C784.494 1047.72 790.578 1013.9 795.659 1002.72C800.289 992.535 800.65 972.344 800.65 960.943" stroke="black" stroke-width="3" stroke-linecap="round"/>
<path d="M744.085 751.319C744.085 765.968 737.138 841.312 748.891 844.67C753.761 846.062 750.127 854.467 759.058 854.467C767.03 854.467 776.398 855.869 783.828 852.619C801.51 844.883 803.977 840.265 803.977 821.933C803.977 790.464 803.786 754.408 784.013 729.691C778.563 722.879 757.406 729.203 754.067 736.716C748.167 749.991 747.412 760.322 747.412 774.611" stroke="black" stroke-width="3" stroke-linecap="round"/>
<path d="M547.771 761.301C515.557 765.328 540.18 890.858 581.044 819.345C596.152 792.907 569.006 751.319 541.116 751.319" stroke="black" stroke-width="3" stroke-linecap="round"/>
<path d="M604.336 475.148C588.459 444.327 587.7 403.452 587.7 368.673C587.7 358.067 581.937 306.671 591.027 302.125" stroke="black" stroke-width="3" stroke-linecap="round"/>
<path d="M930.417 455.184C930.417 411.389 936.963 371.854 946.869 328.929C953.532 300.057 958.506 269.314 970.9 242.048C980.895 220.059 1000.74 200.415 1015.08 180.862C1035.31 153.277 1059.84 150.271 1090.32 140.749C1112.77 133.733 1127.08 139.986 1135.05 160.713C1144.26 184.671 1137.83 228.908 1130.06 252.215C1118.88 285.754 1113.75 321.465 1102.7 354.624C1094.96 377.831 1082.16 400.739 1072.75 421.91C1070.36 427.295 1066.84 432.782 1066.84 438.547C1066.84 446.958 1060.18 443.446 1060.18 451.857" stroke="black" stroke-width="3" stroke-linecap="round"/>
</svg>
