<svg width="1920" height="1949" viewBox="0 0 1920 1949" fill="none" xmlns="http://www.w3.org/2000/svg">
<path d="M1893.17 1911H1907.83V1950H1893.17V1911Z" fill="black"/>
<path d="M1881 1937.83L1881 1923.17L1920 1923.17V1937.83L1881 1937.83Z" fill="black"/>
<path d="M12.1651 1911H26.8349V1950H12.1651V1911Z" fill="black"/>
<path d="M6.41234e-07 1937.83L0 1923.17L39 1923.17V1937.83L6.41234e-07 1937.83Z" fill="black"/>
<path d="M1893.17 956H1907.83V995H1893.17V956Z" fill="black"/>
<path d="M1881 982.835L1881 968.165L1920 968.165V982.835L1881 982.835Z" fill="black"/>
<path d="M12.1651 956H26.8349V995H12.1651V956Z" fill="black"/>
<path d="M6.41234e-07 982.835L0 968.165L39 968.165V982.835L6.41234e-07 982.835Z" fill="black"/>
<path d="M1893.17 0H1907.83V39H1893.17V0Z" fill="black"/>
<path d="M1881 26.8349L1881 12.1651L1920 12.1651V26.8349L1881 26.8349Z" fill="black"/>
<path d="M12.1651 0H26.8349V39H12.1651V0Z" fill="black"/>
<path d="M6.41234e-07 26.8349L0 12.1651L39 12.1651V26.8349L6.41234e-07 26.8349Z" fill="black"/>
</svg>
