<svg width="4075" height="4562" viewBox="0 0 4075 4562" fill="none" xmlns="http://www.w3.org/2000/svg">
<path d="M86 1599.01C167.834 1759.53 236.186 1931.32 283.479 2104.72C290.876 2131.84 307.034 2254.95 330.498 2266.68" stroke="black" stroke-width="170" stroke-linecap="round"/>
<path d="M227.056 2022.18C213.161 1990.92 221.198 1968.21 242.206 1941.73C306.341 1860.86 357.892 1774.44 405.728 1682.6C448.503 1600.47 489.264 1508.27 518.573 1420.34" stroke="black" stroke-width="170" stroke-linecap="round"/>
<path d="M217.652 1984.56C342.836 1990.39 450.044 2090.92 569.772 2115.7C642.804 2130.81 695.569 2183.25 763.072 2210.26" stroke="black" stroke-width="170" stroke-linecap="round"/>
<path d="M1129.82 1881.12C1099.32 1881.12 1065.62 1876.93 1035.78 1883.21C993.185 1892.18 960.345 1915.51 919.279 1928.14C878.938 1940.55 887.612 2054.78 905.696 2079.65C1007.54 2219.69 1157.83 2317.79 1336.7 2266.68C1373.38 2256.2 1393.13 2169.58 1393.13 2135.03C1393.13 2109.74 1399.54 2073.66 1387.9 2050.39C1379.08 2032.75 1354.73 1989.78 1338.79 1982.47C1321.88 1974.72 1323.18 1946.63 1302.74 1937.55C1278.98 1926.98 1240.33 1919.46 1214.45 1918.74C1185.95 1917.95 1066.32 1904.67 1054.59 1928.14" stroke="black" stroke-width="170" stroke-linecap="round"/>
<path d="M1957.35 2266.68V2821.5" stroke="black" stroke-width="170" stroke-linecap="round"/>
<path d="M1957.35 2605.21C2107.35 2605.21 2242.03 2592.33 2389.93 2558.2" stroke="black" stroke-width="170" stroke-linecap="round"/>
<path d="M2408.74 2229.06C2408.74 2386.84 2408.74 2544.61 2408.74 2702.39C2408.74 2759.29 2400.13 2823.89 2418.14 2877.92" stroke="black" stroke-width="170" stroke-linecap="round"/>
<path d="M2643.83 2652.23C2649.19 2630.78 2737.97 2643.07 2755.63 2642.83C2812.36 2642.04 2882.65 2623.99 2934.83 2600.51C2964.88 2586.99 2994 2591.06 3012.67 2561.33C3028.04 2536.84 3057.6 2503.78 3057.6 2473.56C3057.6 2430.33 3072.91 2347.42 3029.39 2319.44C2962.23 2276.28 2854.73 2310.73 2794.29 2346.61C2736.61 2380.86 2649.37 2416.97 2643.83 2494.46C2639.63 2553.25 2632.76 2610.89 2634.43 2671.04C2638.38 2813.33 2816.49 2858.55 2925.94 2875.83C3010.52 2889.19 3094.49 2887.33 3179.85 2887.33" stroke="black" stroke-width="170" stroke-linecap="round"/>
<path d="M3565.4 3555C3520.58 3563.4 3527.79 3681.48 3527.79 3722.17C3527.79 3769.42 3548.61 3771.28 3588.91 3771.28C3670.42 3771.28 3714.58 3747.25 3748.77 3672.02C3753.39 3661.86 3779.28 3584.9 3779.6 3585.3C3800.38 3611.28 3756.82 3680.62 3752.95 3709.64C3749.16 3738.13 3724.29 3902.94 3758.18 3902.94C3831.83 3902.94 3890.09 3888.61 3956.18 3853.83C3996.35 3832.69 3988.57 3849.12 3988.57 3888.83C3988.57 3936.73 3976.88 3955.78 3962.45 3999.06C3956.71 4016.27 3965.68 4036.94 3958.27 4053.4C3946.69 4079.13 3935.01 4094.61 3931.63 4123.4C3928.61 4149.06 3906.98 4169.16 3904.46 4198.11C3902.31 4222.78 3894.53 4244.79 3894.53 4269.68C3894.53 4338.65 3894.53 4407.61 3894.53 4476.57" stroke="black" stroke-width="170" stroke-linecap="round"/>
<path d="M593.803 1194.65C593.803 1147.56 590.663 1099.84 602.685 1057.77C608.891 1036.05 700.216 1036.83 718.142 1051.5C761.971 1087.36 864.57 1182.9 923.458 1114.19C937.932 1097.31 951.528 1080.47 967.865 1068.22C984.579 1055.68 985.366 1013.61 998.166 994.032C1012.16 972.636 1006.23 948.947 1021.68 926.639C1039.2 901.322 1054.62 888.999 1078.1 870.738C1105.05 849.774 1162.25 854.146 1195.65 856.11C1227.93 858.009 1244.27 945.55 1252.07 968.956" stroke="black" stroke-width="170" stroke-linecap="round"/>
<path d="M3461.96 85C3497.11 124.058 3482.58 192.316 3460.91 230.236C3447.45 253.806 3391 254.268 3367.92 254.268" stroke="black" stroke-width="170" stroke-linecap="round"/>
<path d="M86 1599.01C167.834 1759.53 236.186 1931.32 283.479 2104.72C290.876 2131.84 307.034 2254.95 330.498 2266.68" stroke="white" stroke-width="157" stroke-linecap="round"/>
<path d="M227.056 2022.18C213.161 1990.92 221.198 1968.21 242.206 1941.73C306.341 1860.86 357.892 1774.44 405.728 1682.6C448.503 1600.47 489.264 1508.27 518.573 1420.34" stroke="white" stroke-width="157" stroke-linecap="round"/>
<path d="M217.652 1984.56C342.836 1990.39 450.044 2090.92 569.772 2115.7C642.804 2130.81 695.569 2183.25 763.072 2210.26" stroke="white" stroke-width="157" stroke-linecap="round"/>
<path d="M1129.82 1881.12C1099.32 1881.12 1065.62 1876.93 1035.78 1883.21C993.185 1892.18 960.345 1915.51 919.279 1928.14C878.938 1940.55 887.612 2054.78 905.696 2079.65C1007.54 2219.69 1157.83 2317.79 1336.7 2266.68C1373.38 2256.2 1393.13 2169.58 1393.13 2135.03C1393.13 2109.74 1399.54 2073.66 1387.9 2050.39C1379.08 2032.75 1354.73 1989.78 1338.79 1982.47C1321.88 1974.72 1323.18 1946.63 1302.74 1937.55C1278.98 1926.98 1240.33 1919.46 1214.45 1918.74C1185.95 1917.95 1066.32 1904.67 1054.59 1928.14" stroke="white" stroke-width="157" stroke-linecap="round"/>
<path d="M1957.35 2266.68V2821.5" stroke="white" stroke-width="157" stroke-linecap="round"/>
<path d="M1957.35 2605.21C2107.35 2605.21 2242.03 2592.33 2389.93 2558.2" stroke="white" stroke-width="157" stroke-linecap="round"/>
<path d="M2408.74 2229.06C2408.74 2386.84 2408.74 2544.61 2408.74 2702.39C2408.74 2759.29 2400.13 2823.89 2418.14 2877.92" stroke="white" stroke-width="157" stroke-linecap="round"/>
<path d="M2643.83 2652.23C2649.19 2630.78 2737.97 2643.07 2755.63 2642.83C2812.36 2642.04 2882.65 2623.99 2934.83 2600.51C2964.88 2586.99 2994 2591.06 3012.67 2561.33C3028.04 2536.84 3057.6 2503.78 3057.6 2473.56C3057.6 2430.33 3072.91 2347.42 3029.39 2319.44C2962.23 2276.28 2854.73 2310.73 2794.29 2346.61C2736.61 2380.86 2649.37 2416.97 2643.83 2494.46C2639.63 2553.25 2632.76 2610.89 2634.43 2671.04C2638.38 2813.33 2816.49 2858.55 2925.94 2875.83C3010.52 2889.19 3094.49 2887.33 3179.85 2887.33" stroke="white" stroke-width="157" stroke-linecap="round"/>
<path d="M3565.4 3555C3520.58 3563.4 3527.79 3681.48 3527.79 3722.17C3527.79 3769.42 3548.61 3771.28 3588.91 3771.28C3670.42 3771.28 3714.58 3747.25 3748.77 3672.02C3753.39 3661.86 3779.28 3584.9 3779.6 3585.3C3800.38 3611.28 3756.82 3680.62 3752.95 3709.64C3749.16 3738.13 3724.29 3902.94 3758.18 3902.94C3831.83 3902.94 3890.09 3888.61 3956.18 3853.83C3996.35 3832.69 3988.57 3849.12 3988.57 3888.83C3988.57 3936.73 3976.88 3955.78 3962.45 3999.06C3956.71 4016.27 3965.68 4036.94 3958.27 4053.4C3946.69 4079.13 3935.01 4094.61 3931.63 4123.4C3928.61 4149.06 3906.98 4169.16 3904.46 4198.11C3902.31 4222.78 3894.53 4244.79 3894.53 4269.68C3894.53 4338.65 3894.53 4407.61 3894.53 4476.57" stroke="white" stroke-width="157" stroke-linecap="round"/>
<path d="M593.803 1194.65C593.803 1147.56 590.663 1099.84 602.685 1057.77C608.891 1036.05 700.216 1036.83 718.142 1051.5C761.971 1087.36 864.57 1182.9 923.458 1114.19C937.932 1097.31 951.528 1080.47 967.865 1068.22C984.579 1055.68 985.366 1013.61 998.166 994.032C1012.16 972.636 1006.23 948.947 1021.68 926.639C1039.2 901.322 1054.62 888.999 1078.1 870.738C1105.05 849.774 1162.25 854.146 1195.65 856.11C1227.93 858.009 1244.27 945.55 1252.07 968.956" stroke="white" stroke-width="157" stroke-linecap="round"/>
<path d="M3461.96 85C3497.11 124.058 3482.58 192.316 3460.91 230.236C3447.45 253.806 3391 254.268 3367.92 254.268" stroke="white" stroke-width="157" stroke-linecap="round"/>
</svg>
