<svg width="1832" height="809" viewBox="0 0 1832 809" fill="none" xmlns="http://www.w3.org/2000/svg">
<path d="M14.002 462.585V0.121094H159.856V135.006H73.4372V462.585H14.002Z" fill="black"/>
<path d="M219.291 135.003H371.671V257.456H277.844V302.833H370.26V423.421H277.844V473.77H372.553V597.467H219.291V135.003Z" fill="black"/>
<path d="M368.618 597.467V135.003H428.053V292.887H503.361V135.003H562.973V597.467H503.361V427.772H428.053V597.467H368.618Z" fill="black"/>
<path d="M561.888 135.003H714.268V257.456H620.442V302.833H712.857V423.421H620.442V473.77H715.15V597.467H561.888V135.003Z" fill="black"/>
<path d="M832.731 463.203H771.179V792.5H711.744V135.003H832.731C882.29 135.003 896.223 204 896.223 290.401V304.076C896.223 389.234 881.937 463.203 832.731 463.203ZM771.179 261.807V333.912H820.915C831.32 333.912 834.847 318.372 834.847 298.481V297.238C834.847 276.726 831.32 261.807 820.915 261.807H771.179Z" fill="black"/>
<path d="M979.104 406.017L960.409 263.672L942.067 406.017H979.104ZM1004.15 597.467L995.858 533.443H925.841L917.728 597.467H857.588L920.727 135.003H1002.91L1070.11 597.467H1004.15Z" fill="black"/>
<path d="M1058.46 597.467V135.003H1117.9V462.581H1188.62V81H1248.06V462.581H1269.22V682.003H1214.19V597.467H1058.46Z" fill="black"/>
<path d="M1398.38 597.467V323.345L1321.84 597.467H1262.4V135.003H1321.84V409.746L1407.5 99H1466.93L1457.81 597.467H1398.38Z" fill="black"/>
<path d="M1772.04 465.068H1752.99L1712.25 597.467H1641L1688.62 450.771C1659.17 430.88 1645.59 376.18 1645.59 304.697V291.644C1645.59 209.594 1660.76 135.003 1707.84 135.003H1831.48V597.467H1772.04V465.068ZM1772.04 345.722V261.807H1722.13C1711.02 261.807 1706.96 281.077 1706.96 303.454V304.076C1706.96 327.075 1711.2 345.722 1722.31 345.722H1772.04Z" fill="black"/>
<path d="M229.401 602.921H263.009V731.729H325.97V602.921H359.47V731.729H376.165V792.002H347.139V758.634H229.401V602.921Z" fill="black"/>
<path d="M379.019 602.921H496.758V629.721H411.209V664.253H489.883V691.159H411.209V730.458H500.577V758.634H379.019V602.921Z" fill="black"/>
<path d="M507.469 602.921H541.077V662.134H604.038V602.921H637.537V758.634H604.038V689.04H541.077V758.634H507.469V602.921Z" fill="black"/>
<path d="M697.351 602.921H735.652L792.393 758.634H755.948L745.691 726.538H686.44L675.309 758.634H639.955L697.351 602.921ZM695.387 699.633H736.306L716.338 637.983H715.901L695.387 699.633Z" fill="black"/>
<path d="M797.43 602.921H870.321C878.832 602.921 886.216 604.051 892.472 606.311C898.801 608.57 904.038 611.854 908.185 616.162C912.331 620.47 915.423 625.695 917.46 631.839C919.497 637.983 920.515 644.974 920.515 652.813C920.515 660.086 919.315 666.795 916.914 672.939C914.514 679.012 911.022 684.273 906.439 688.722C901.929 693.101 896.4 696.526 889.853 698.997C883.306 701.469 875.886 702.705 867.593 702.705H830.929V758.634H797.43V602.921ZM830.929 675.799H862.682C870.248 675.799 876.177 673.998 880.469 670.397C884.833 666.795 887.016 660.934 887.016 652.813C887.016 648.717 886.434 645.221 885.27 642.326C884.179 639.431 882.578 637.065 880.469 635.229C878.432 633.322 875.886 631.945 872.83 631.098C869.848 630.18 866.465 629.721 862.682 629.721H830.929V675.799Z" fill="black"/>
<path d="M925.879 602.921H958.069V708.954H958.506L1022.01 602.921H1055.95V758.634H1023.76V653.236H1023.32L959.924 758.634H925.879V602.921Z" fill="black"/>
<path d="M1200 758.634H1167.59V697.196H1137.69C1132.6 697.196 1127.95 697.338 1123.73 697.62C1119.58 697.903 1115.94 698.856 1112.81 700.48C1109.69 702.034 1107.14 704.576 1105.18 708.107C1103.28 711.638 1102.05 716.616 1101.47 723.043L1100.37 737.767C1100.08 741.156 1099.76 744.016 1099.39 746.347C1099.1 748.607 1098.77 750.513 1098.41 752.067C1098.05 753.55 1097.68 754.821 1097.32 755.88C1096.96 756.869 1096.63 757.787 1096.34 758.634H1061.53C1062.62 756.657 1063.46 754.962 1064.04 753.55C1064.69 752.137 1065.2 750.655 1065.57 749.101C1066 747.547 1066.33 745.747 1066.55 743.699C1066.84 741.651 1067.17 738.967 1067.53 735.648L1069.06 720.924C1069.57 716.405 1070.19 712.309 1070.91 708.637C1071.71 704.894 1072.92 701.575 1074.52 698.679C1076.19 695.784 1078.48 693.277 1081.39 691.159C1084.3 689.04 1088.15 687.239 1092.96 685.756C1090.85 685.05 1088.56 684.132 1086.08 683.002C1083.68 681.872 1081.14 679.966 1078.44 677.282C1074.95 673.892 1072.19 669.761 1070.15 664.889C1068.11 659.945 1067.1 654.543 1067.1 648.682C1067.1 645.009 1067.5 641.514 1068.3 638.195C1069.1 634.805 1070.22 631.627 1071.68 628.661C1073.13 625.695 1074.84 622.977 1076.81 620.505C1078.84 618.033 1081.03 615.844 1083.35 613.937C1086.7 611.183 1090.34 609.065 1094.26 607.582C1098.27 606.099 1102.38 605.004 1106.59 604.298C1110.89 603.592 1115.25 603.203 1119.69 603.133C1124.2 602.992 1128.64 602.921 1133 602.921H1200V758.634ZM1167.59 630.25H1129.84C1129.4 630.25 1128.53 630.286 1127.22 630.356C1125.91 630.356 1124.42 630.427 1122.74 630.568C1121.14 630.639 1119.51 630.78 1117.83 630.992C1116.16 631.204 1114.74 631.521 1113.58 631.945C1112.12 632.51 1110.63 633.287 1109.1 634.275C1107.58 635.194 1106.16 636.429 1104.85 637.983C1103.61 639.537 1102.59 641.408 1101.79 643.597C1100.99 645.786 1100.59 648.399 1100.59 651.436C1100.59 654.825 1101.07 657.685 1102.01 660.016C1103.03 662.276 1104.34 664.182 1105.94 665.736C1107.61 667.219 1109.47 668.384 1111.5 669.232C1113.61 670.008 1115.72 670.573 1117.83 670.926C1120.02 671.279 1122.13 671.491 1124.16 671.562C1126.27 671.633 1128.16 671.668 1129.84 671.668H1167.59V630.25Z" fill="black"/>
<path d="M1488 749.892H1521.7V754.426H1488V749.892ZM1502.14 741.328H1507.44V750.984H1502.14V741.328ZM1491.54 722.941H1518.01V742.042H1491.54V722.941ZM1512.74 727.349H1496.8V737.592H1512.74V727.349Z" fill="black"/>
<path d="M1524.55 739.019H1558.21V743.427H1524.55V739.019ZM1528.77 745.022H1534.07V747.541H1549.01V745.022H1554.31V758.498H1528.77V745.022ZM1534.07 751.697V754.174H1549.01V751.697H1534.07ZM1528.65 720.674H1554.11V730.833H1533.99V735.199H1528.73V726.887H1548.85V724.914H1528.65V720.674ZM1528.73 732.89H1554.84V737.13H1528.73V732.89Z" fill="black"/>
<path d="M1586.85 720.044H1592.15V758.918H1586.85V720.044ZM1563.03 723.738H1568.37V747.919H1563.03V723.738ZM1563.03 744.603H1566.32C1569.05 744.603 1571.9 744.491 1574.88 744.267C1577.85 744.015 1580.87 743.567 1583.95 742.923L1584.52 747.583C1581.36 748.283 1578.24 748.759 1575.16 749.011C1572.1 749.234 1569.16 749.346 1566.32 749.346H1563.03V744.603Z" fill="black"/>
<path d="M1621.39 720.002H1626.77V759.002H1621.39V720.002ZM1625.6 734.401H1632.15V739.019H1625.6V734.401ZM1599.05 745.064H1602.19C1604.3 745.064 1606.28 745.036 1608.13 744.98C1609.98 744.896 1611.77 744.771 1613.51 744.603C1615.25 744.407 1617.03 744.141 1618.86 743.805L1619.38 748.423C1617.5 748.759 1615.66 749.025 1613.83 749.22C1612.04 749.416 1610.19 749.542 1608.29 749.598C1606.39 749.654 1604.36 749.682 1602.19 749.682H1599.05V745.064ZM1599.05 723.612H1616.41V728.104H1604.4V747.247H1599.05V723.612Z" fill="black"/>
<path d="M1635.06 749.115H1641V755.224H1635.06V749.115Z" fill="black"/>
<path d="M168.55 576.876C167.882 573.702 167.047 570.075 166.045 565.995C165.042 561.763 163.65 557.532 161.869 553.3C160.198 549.069 158.026 544.913 155.354 540.833C152.792 536.753 149.563 533.126 145.665 529.952C141.767 526.778 137.09 524.209 131.633 522.245C126.176 520.28 119.772 519.298 112.422 519.298C109.304 519.298 105.629 519.827 101.397 520.885C97.1653 521.942 92.822 523.983 88.3674 527.005C83.9128 529.876 79.5139 533.957 75.1706 539.246C70.8274 544.535 66.9296 551.487 63.4773 560.101C60.1363 568.564 57.4079 578.84 55.2919 590.93C53.176 603.02 52.118 617.376 52.118 634C52.118 651.984 53.5101 668.078 56.2942 682.284C59.0783 696.489 63.0875 708.503 68.3217 718.326C73.5558 728.149 79.848 735.705 87.1981 740.995C94.6596 746.133 103.068 748.702 112.422 748.702C123.225 748.702 132.023 746.435 138.816 741.901C145.609 737.368 151.01 731.852 155.02 725.354C159.14 718.855 162.203 712.055 164.207 704.952C166.212 697.849 167.771 691.653 168.885 686.364H219.834C217.05 707.219 212.428 725.354 205.969 740.768C199.51 756.031 191.659 768.726 182.415 778.851C173.172 788.976 162.759 796.532 151.177 801.519C139.707 806.506 127.457 809 114.427 809C96.163 809 79.9593 804.92 65.8159 796.759C51.7839 788.447 39.9235 776.66 30.2347 761.396C20.6573 746.133 13.3629 727.772 8.35141 706.312C3.33997 684.702 0.834253 660.598 0.834253 634C0.834253 613.447 2.282 594.859 5.1775 578.236C8.073 561.612 12.0822 546.878 17.205 534.032C22.4391 521.036 28.5642 509.853 35.5802 500.483C42.5963 490.962 50.2248 483.18 58.4658 477.135C66.8182 470.939 75.5604 466.405 84.6924 463.534C93.8243 460.511 103.068 459 112.422 459C125.786 459 137.647 460.889 148.004 464.667C158.361 468.445 167.437 473.508 175.232 479.855C183.028 486.202 189.654 493.456 195.111 501.616C200.679 509.777 205.19 518.24 208.642 527.005C212.206 535.619 214.823 544.309 216.493 553.074C218.275 561.688 219.389 569.622 219.834 576.876H168.55Z" fill="black"/>
</svg>
