<svg width="2868" height="1677" viewBox="0 0 2868 1677" fill="none" xmlns="http://www.w3.org/2000/svg">
<path d="M2645.25 816.964C2632.08 751.743 2621.94 752.602 2600 765.474C2624.68 739.729 2623.31 726.856 2623.31 679.657C2638.39 739.729 2654.85 744.02 2658.96 744.02C2671.3 744.02 2685.01 739.729 2708.32 683.948C2728.42 709.963 2754.3 768.432 2748.08 748.311C2698.78 588.667 2778.93 648.605 2789.22 683.948C2799.5 719.291 2841.78 738.299 2866 739.729C2831.72 769.765 2832.75 829.385 2832.75 829.385C2832.75 829.385 2827.61 782.637 2811.15 782.637C2794.7 782.637 2775.96 825.546 2768.65 847C2767.28 836.988 2761.25 813.531 2748.08 799.801C2734.92 786.07 2723.4 825.546 2719.29 847C2714.97 822.836 2701.07 774.555 2689.12 765.474C2669.09 750.241 2651.19 799.801 2645.25 816.964Z" fill="black" stroke="black"/>
<path d="M0 212.5H118.56V332.292H45.7742V780.208H0V212.5Z" fill="black"/>
<path d="M153.523 542.187C153.523 547.396 153.685 554.34 154.008 563.021C154.332 571.701 154.979 581.076 155.949 591.146C156.92 601.215 158.322 611.458 160.155 621.875C161.988 631.944 164.414 641.146 167.433 649.479C170.56 657.812 174.334 664.583 178.755 669.792C183.284 675 188.676 677.604 194.93 677.604C198.165 677.604 201.346 676.215 204.473 673.437C207.708 670.312 210.673 665.972 213.369 660.417C216.065 654.514 218.383 647.569 220.324 639.583C222.373 631.25 223.829 621.875 224.691 611.458H272.083C272.083 621.875 271.382 633.854 269.98 647.396C268.579 660.59 266.422 674.132 263.511 688.021C260.707 701.562 257.149 714.931 252.835 728.125C248.522 741.319 243.4 753.125 237.469 763.542C231.539 773.611 224.799 781.771 217.251 788.021C209.811 794.271 201.508 797.396 192.342 797.396C180.589 797.396 169.536 791.667 159.184 780.208C148.94 769.097 139.936 751.389 132.173 727.083C124.517 702.431 118.478 670.66 114.057 631.771C109.636 592.882 107.425 545.66 107.425 490.104C107.425 451.562 108.989 414.583 112.116 379.167C115.351 343.403 120.311 311.979 126.997 284.896C133.79 257.813 142.417 236.285 152.876 220.312C163.444 203.993 176.114 195.833 190.886 195.833C206.522 195.833 219.677 204.167 230.353 220.833C241.028 237.153 249.6 260.417 256.07 290.625C262.648 320.833 267.339 357.292 270.142 400C272.946 442.708 274.348 490.104 274.348 542.187H153.523ZM226.794 444.271C226.794 419.271 225.608 398.437 223.236 381.771C220.971 365.104 218.06 351.91 214.501 342.187C211.051 332.118 207.223 325.174 203.017 321.354C198.812 317.187 194.768 315.104 190.886 315.104C187.112 315.104 183.123 317.187 178.917 321.354C174.712 325.174 170.83 332.118 167.272 342.187C163.821 351.91 160.909 365.104 158.537 381.771C156.273 398.437 155.141 419.271 155.141 444.271H226.794Z" fill="black"/>
<path d="M278.579 212.5H324.353V417.708H391.639V212.5H437.252V780.208H391.639V536.979H324.353V780.208H278.579V212.5Z" fill="black"/>
<path d="M487.419 542.187C487.419 547.396 487.581 554.34 487.904 563.021C488.228 571.701 488.875 581.076 489.845 591.146C490.816 601.215 492.218 611.458 494.051 621.875C495.884 631.944 498.31 641.146 501.329 649.479C504.456 657.812 508.231 664.583 512.652 669.792C517.18 675 522.572 677.604 528.826 677.604C532.061 677.604 535.242 676.215 538.369 673.437C541.604 670.312 544.57 665.972 547.265 660.417C549.961 654.514 552.279 647.569 554.22 639.583C556.269 631.25 557.725 621.875 558.588 611.458H605.979C605.979 621.875 605.278 633.854 603.876 647.396C602.475 660.59 600.318 674.132 597.407 688.021C594.603 701.562 591.045 714.931 586.731 728.125C582.418 741.319 577.296 753.125 571.365 763.542C565.435 773.611 558.695 781.771 551.147 788.021C543.707 794.271 535.404 797.396 526.238 797.396C514.485 797.396 503.432 791.667 493.08 780.208C482.836 769.097 473.832 751.389 466.069 727.083C458.413 702.431 452.374 670.66 447.953 631.771C443.532 592.882 441.321 545.66 441.321 490.104C441.321 451.562 442.885 414.583 446.012 379.167C449.247 343.403 454.207 311.979 460.893 284.896C467.686 257.813 476.313 236.285 486.772 220.312C497.34 203.993 510.01 195.833 524.783 195.833C540.418 195.833 553.573 204.167 564.249 220.833C574.924 237.153 583.496 260.417 589.966 290.625C596.544 320.833 601.235 357.292 604.038 400C606.842 442.708 608.244 490.104 608.244 542.187H487.419ZM560.69 444.271C560.69 419.271 559.504 398.437 557.132 381.771C554.867 365.104 551.956 351.91 548.397 342.187C544.947 332.118 541.119 325.174 536.914 321.354C532.708 317.187 528.664 315.104 524.783 315.104C521.008 315.104 517.019 317.187 512.813 321.354C508.608 325.174 504.726 332.118 501.168 342.187C497.717 351.91 494.806 365.104 492.433 381.771C490.169 398.437 489.037 419.271 489.037 444.271H560.69Z" fill="black"/>
<path d="M611.181 212.5H654.852V293.75H655.499C658.626 276.736 661.915 262.153 665.366 250C668.816 237.5 672.645 227.257 676.85 219.271C681.055 211.285 685.692 205.382 690.76 201.562C695.936 197.743 701.759 195.833 708.229 195.833C713.62 195.833 719.174 197.917 724.889 202.083C730.604 206.25 736.157 213.021 741.548 222.396C747.048 231.424 752.224 243.403 757.076 258.333C761.928 272.917 766.188 290.972 769.854 312.5C773.52 334.028 776.432 359.201 778.588 388.021C780.745 416.493 781.823 449.132 781.823 485.937C781.823 531.771 780.26 573.785 777.133 611.979C774.113 650.174 769.477 682.986 763.222 710.417C757.076 737.847 749.258 759.201 739.769 774.479C730.388 789.757 719.335 797.396 706.611 797.396C702.19 797.396 697.715 796.007 693.186 793.229C688.657 790.451 684.236 785.764 679.923 779.167C675.61 772.569 671.512 763.715 667.63 752.604C663.856 741.146 660.514 726.91 657.602 709.896H656.955V1000H611.181V212.5ZM694.642 328.125C687.31 328.125 681.109 333.16 676.041 343.229C671.081 353.299 667.037 366.319 663.91 382.292C660.891 398.264 658.68 416.319 657.279 436.458C655.877 456.597 655.176 476.562 655.176 496.354C655.176 507.118 655.338 518.924 655.661 531.771C656.092 544.271 656.847 557.118 657.926 570.312C659.004 583.16 660.46 595.66 662.293 607.812C664.234 619.965 666.66 630.729 669.571 640.104C672.483 649.479 675.987 657.118 680.085 663.021C684.182 668.576 689.035 671.354 694.642 671.354C700.249 671.354 705.102 668.576 709.199 663.021C713.297 657.118 716.801 649.479 719.713 640.104C722.624 630.729 724.996 619.965 726.829 607.812C728.77 595.66 730.28 583.16 731.358 570.312C732.437 557.118 733.138 544.271 733.461 531.771C733.892 518.924 734.108 507.118 734.108 496.354C734.108 476.562 733.407 456.597 732.005 436.458C730.604 416.319 728.339 398.264 725.212 382.292C722.193 366.319 718.149 353.299 713.081 343.229C708.013 333.16 701.867 328.125 694.642 328.125Z" fill="black"/>
<path d="M799.965 206.25C808.483 142.361 820.938 73.6111 837.328 0H872.104L862.237 58.3333C848.65 138.542 839.215 222.569 833.931 310.417C830.481 368.056 828.756 430.903 828.756 498.958C828.756 605.208 833.554 702.951 843.151 792.187C848.758 844.965 858.679 912.674 872.912 995.312H838.784L827.3 944.792C819.86 914.236 811.934 868.75 803.523 808.333C788.535 700.347 781.04 594.097 781.04 489.583C781.04 394.444 787.349 300 799.965 206.25Z" fill="black"/>
<path d="M889.436 0C905.827 73.6111 918.281 142.361 926.8 206.25C939.416 300 945.724 394.444 945.724 489.583C945.724 594.097 938.23 700.347 923.241 808.333C914.83 868.75 906.905 914.236 899.465 944.792L887.981 995.312H853.852C868.086 912.674 878.006 844.965 883.613 792.187C893.21 702.951 898.009 605.208 898.009 498.958C898.009 430.903 896.284 368.056 892.833 310.417C887.549 222.569 878.114 138.542 864.527 58.3333L854.661 0H889.436Z" fill="black"/>
<path d="M1098.6 668.229C1098.6 685.243 1098.87 699.306 1099.41 710.417C1100.06 721.181 1100.86 729.861 1101.84 736.458C1102.81 742.708 1103.88 747.396 1105.07 750.521C1106.36 753.299 1107.71 755.382 1109.11 756.771V780.208H1058.49C1057.62 773.611 1056.65 764.931 1055.58 754.167C1054.61 743.056 1054.12 729.687 1054.12 714.062C1050.56 725.868 1047.06 736.806 1043.61 746.875C1040.26 756.944 1036.49 765.799 1032.28 773.437C1028.08 780.729 1023.23 786.458 1017.73 790.625C1012.23 795.139 1005.6 797.396 997.832 797.396C989.96 797.396 982.682 793.576 975.996 785.937C969.419 778.646 963.704 767.708 958.851 753.125C953.999 738.542 950.225 720.312 947.529 698.437C944.833 676.562 943.485 651.215 943.485 622.396C943.485 599.132 944.618 577.604 946.882 557.812C949.147 537.674 952.328 520.139 956.425 505.208C960.631 489.931 965.699 477.431 971.629 467.708C977.668 457.639 984.407 450.868 991.848 447.396L1036.65 426.042C1038.27 425.347 1039.99 424.306 1041.83 422.917C1043.77 421.528 1045.55 419.271 1047.16 416.146C1048.78 412.674 1050.13 408.16 1051.21 402.604C1052.29 396.701 1052.83 388.889 1052.83 379.167C1052.83 369.792 1052.34 361.285 1051.37 353.646C1050.51 345.66 1049 338.889 1046.84 333.333C1044.68 327.431 1041.77 322.917 1038.11 319.792C1034.55 316.667 1030.07 315.104 1024.68 315.104C1018.54 315.104 1013.58 317.187 1009.8 321.354C1006.14 325.174 1003.22 330.729 1001.07 338.021C998.91 344.965 997.347 353.299 996.376 363.021C995.406 372.396 994.705 382.465 994.274 393.229H948.5C948.5 386.285 948.823 376.736 949.47 364.583C950.225 352.083 951.519 338.542 953.352 323.958C955.293 309.375 957.935 294.618 961.277 279.687C964.728 264.757 969.203 251.215 974.702 239.062C980.31 226.562 987.103 216.319 995.082 208.333C1003.06 200.347 1012.6 196.181 1023.71 195.833C1039.45 195.833 1052.18 201.042 1061.88 211.458C1071.7 221.528 1079.3 234.896 1084.69 251.562C1090.19 267.882 1093.86 286.285 1095.69 306.771C1097.63 326.91 1098.6 347.049 1098.6 367.187V668.229ZM1052.83 503.125C1050.02 507.986 1047.22 512.5 1044.42 516.667C1041.61 520.486 1037.89 523.785 1033.25 526.562L1021.12 533.854C1015.84 536.979 1011.2 540.625 1007.21 544.792C1003.22 548.958 999.881 554.514 997.185 561.458C994.597 568.056 992.602 576.215 991.201 585.937C989.907 595.66 989.26 607.812 989.26 622.396C989.26 634.549 989.853 645.139 991.039 654.167C992.225 662.847 993.842 670.139 995.891 676.042C998.048 681.597 1000.53 685.764 1003.33 688.542C1006.14 691.319 1009.15 692.708 1012.39 692.708C1014.11 692.708 1016.33 692.187 1019.02 691.146C1021.72 689.757 1024.57 687.326 1027.59 683.854C1030.61 680.382 1033.63 675.694 1036.65 669.792C1039.67 663.542 1042.37 655.556 1044.74 645.833C1047.11 636.111 1049.05 624.306 1050.56 610.417C1052.07 596.181 1052.83 579.514 1052.83 560.417V503.125Z" fill="black"/>
<path d="M1113.99 212.5H1159.77V660.937H1227.05V212.5H1272.66V660.937H1294.18V916.667H1251.8V780.208H1113.99V212.5Z" fill="black"/>
<path d="M1290 212.5H1335.77V562.5H1336.42L1400.63 212.5H1448.67V780.208H1403.06V438.021H1402.25L1339.98 780.208H1290V212.5Z" fill="black"/>
<path d="M1625 780.208H1579.06V571.354H1549.14C1542.56 571.354 1536.9 572.222 1532.16 573.958C1527.52 575.347 1523.69 578.993 1520.67 584.896C1517.65 590.451 1515.34 598.785 1513.72 609.896C1512.21 621.007 1511.35 636.111 1511.13 655.208L1510.48 709.896C1510.27 717.882 1509.94 728.299 1509.51 741.146C1509.19 753.993 1508.17 767.014 1506.44 780.208H1458.08C1459.48 772.569 1460.61 765.278 1461.47 758.333C1462.34 751.042 1462.98 744.097 1463.42 737.5C1463.95 730.556 1464.33 723.611 1464.55 716.667C1464.87 709.722 1465.14 702.431 1465.36 694.792L1467.62 626.562C1468.16 611.285 1468.81 598.09 1469.56 586.979C1470.32 575.868 1471.56 566.319 1473.28 558.333C1475.01 550 1477.38 542.882 1480.4 536.979C1483.42 531.076 1487.46 525.694 1492.53 520.833C1490.91 519.444 1489.08 517.535 1487.03 515.104C1485.09 512.326 1482.99 508.854 1480.72 504.687C1478.57 500.174 1476.36 494.618 1474.09 488.021C1471.93 481.076 1469.89 472.569 1467.94 462.5C1466.54 455.903 1465.41 448.958 1464.55 441.667C1463.79 434.028 1463.2 426.736 1462.77 419.792C1462.34 412.5 1462.07 405.729 1461.96 399.479C1461.85 393.229 1461.8 387.847 1461.8 383.333C1461.8 363.194 1462.55 345.312 1464.06 329.687C1465.57 313.715 1467.51 299.826 1469.89 288.021C1472.26 276.215 1474.95 266.146 1477.97 257.812C1480.99 249.479 1484.07 242.708 1487.19 237.5C1490.64 231.25 1494.47 226.562 1498.68 223.437C1502.88 219.965 1506.98 217.535 1510.97 216.146C1514.96 214.41 1518.68 213.368 1522.13 213.021C1525.58 212.674 1528.28 212.5 1530.22 212.5H1625V780.208ZM1579.06 323.437H1542.19C1538.3 323.437 1534.42 323.785 1530.54 324.479C1526.66 325.174 1523.15 327.951 1520.03 332.812C1517.01 337.326 1514.53 344.618 1512.59 354.687C1510.75 364.41 1509.84 378.299 1509.84 396.354C1509.84 414.062 1510.75 427.604 1512.59 436.979C1514.53 446.354 1516.95 453.299 1519.86 457.812C1522.88 462.326 1526.23 464.931 1529.89 465.625C1533.56 466.319 1537.23 466.667 1540.89 466.667H1579.06V323.437Z" fill="black"/>
<path d="M182.218 1411.97H170.829C21.2383 1411.97 0 1233.03 0 1115.33V1091.47C0 972.966 19.6992 798 170.829 798H182.218C328.116 798 348.123 961.832 348.123 1043.75V1054.88H241.931C240.392 1039.77 234.236 972.966 175.139 972.966C118.196 972.966 107.115 1038.18 107.115 1096.24V1105.78C107.115 1162.25 119.427 1235.42 175.446 1235.42C235.468 1235.42 241.008 1160.66 241.931 1147.93H348.123V1164.63C348.123 1245.76 328.116 1411.97 182.218 1411.97Z" fill="black"/>
<path d="M337.706 1400.84V809.134H441.434V1228.26H564.863V809.134H668.591V1228.26H705.528V1509H609.494V1400.84H337.706Z" fill="black"/>
<path d="M694.548 809.134H960.488V965.809H796.738V1023.87H958.025V1178.15H796.738V1242.57H962.027V1400.84H694.548V809.134Z" fill="black"/>
<path d="M955.159 1400.84V809.134H1058.89V1011.14H1190.32V809.134H1294.36V1400.84H1190.32V1183.72H1058.89V1400.84H955.159Z" fill="black"/>
<path d="M1487.92 1155.89L1455.29 973.762L1423.28 1155.89H1487.92ZM1531.62 1400.84L1517.16 1318.92H1394.96L1380.8 1400.84H1275.84L1386.03 809.134H1529.47L1646.74 1400.84H1531.62Z" fill="black"/>
<path d="M1838.4 1056.52H1730.94V1400.84H1627.17V214.839H1838.4C1924.92 214.839 1949.24 391.782 1949.24 613.36V648.43C1949.24 866.82 1924.3 1056.52 1838.4 1056.52ZM1730.94 540.032V724.946H1817.77C1835.93 724.946 1842.09 685.094 1842.09 634.083V630.895C1842.09 578.29 1835.93 540.032 1817.77 540.032H1730.94Z" fill="black"/>
<path d="M2174.58 1400.84V697.847L2040.95 1400.84H1937.19V214.839H2040.95V919.425L2174.58 214.839H2278.35V1400.84H2174.58Z" fill="black"/>
<path d="M2494.41 1061.3H2461.15L2329 1676.5H2204.61L2348.76 1024.63C2297.34 973.624 2273.64 833.344 2273.64 650.024V616.549C2273.64 406.129 2300.12 214.839 2382.33 214.839H2598.17V1400.84H2494.41V1061.3ZM2494.41 755.234V540.032H2407.27C2387.87 540.032 2380.79 589.449 2380.79 646.836V648.43C2380.79 707.411 2388.18 755.234 2407.58 755.234H2494.41Z" fill="black"/>
</svg>
