<svg width="2894" height="1177" viewBox="0 0 2894 1177" fill="none" xmlns="http://www.w3.org/2000/svg">
<path d="M1397.08 62.3221C1396.84 48.2255 1398.74 18.9351 1408.25 14.5461C1420.13 9.05984 1445.34 -5.79872 1461.55 2.43064C1477.76 10.66 1476.32 26.6615 1474.15 29.4046C1472.43 31.5991 1450.14 39.7675 1439.22 43.5774L1434.18 80.1523C1434.66 79.6951 1436.12 79.0551 1438.14 80.1523C1440.16 81.2496 1439.7 84.267 1439.22 85.6386C1442.58 85.029 1449.59 84.4956 1450.74 87.2387C1451.9 89.9818 1452.19 91.4296 1452.19 91.8106C1463.11 93.2583 1485.39 97.0682 1487.12 100.726C1488.85 104.383 1487.84 106.517 1487.12 107.126C1495.4 106.288 1513.34 106.715 1518.81 115.127C1522.77 116.194 1530.84 119.79 1531.42 125.642C1535.26 125.49 1542.94 125.505 1542.94 126.785C1542.94 128.065 1541.74 133.872 1541.14 136.615C1545.58 136.462 1554.32 136.569 1553.75 138.215C1553.17 139.861 1551.59 142.863 1550.86 144.158C1557.23 149.111 1570.38 159.931 1572.11 163.589C1574.27 168.161 1584 183.248 1582.92 190.563C1581.84 197.878 1578.24 207.936 1577.88 209.308C1577.52 210.679 1586.88 215.48 1589.4 219.594C1591.92 223.709 1592.28 227.824 1593 228.281C1593.72 228.738 1596.6 228.052 1599.12 231.253C1601.64 234.453 1601.28 240.168 1599.12 241.082C1601.28 241.234 1605.68 242.134 1605.97 244.511C1606.33 247.483 1603.81 251.597 1596.6 250.454C1596 252.969 1594.08 257.998 1591.2 257.998C1587.6 257.998 1585.44 258.227 1582.92 253.883C1580.9 250.409 1580.4 248.473 1580.4 247.94C1578.24 250.073 1572.98 253.197 1569.23 248.626C1565.49 244.054 1564.31 235.139 1564.19 231.253C1561.19 225.995 1554.39 215.617 1551.22 216.165C1547.26 216.851 1549.42 218.908 1548.34 220.509C1547.48 221.789 1541.26 219.823 1538.26 218.68C1540.66 220.585 1544.74 224.44 1541.86 224.623C1538.98 224.806 1534.9 223.938 1533.22 223.48C1540.42 226.604 1555.11 233.173 1556.27 234.453C1557.71 236.053 1560.59 238.568 1558.07 240.625C1556.05 242.271 1553.15 241.92 1551.95 241.539C1554.71 242.454 1560.01 245.014 1559.15 247.94C1558.28 250.866 1552.31 249.616 1549.42 248.626C1551.22 250.302 1553.53 253.975 1548.34 255.255C1543.16 256.535 1536.1 253.502 1533.22 251.826C1527.22 247.864 1514.92 239.528 1513.77 237.882C1512.33 235.824 1509.81 231.253 1500.8 230.11C1491.8 228.967 1443.9 215.937 1454.35 202.221C1446.66 197.04 1431.08 186.768 1430.22 187.134C1429.14 187.591 1427.7 201.535 1425.17 206.793C1422.65 212.051 1421.57 215.48 1419.05 217.08C1416.53 218.68 1415.09 220.737 1412.57 220.051C1410.05 219.366 1407.53 219.594 1407.17 216.623C1406.21 217.461 1403.21 218.726 1398.88 217.08C1395.21 215.681 1396.48 213.082 1398.05 211.445C1396.37 212.762 1393.36 214.034 1390.24 212.051C1386.5 209.673 1392.28 206.183 1395.64 204.736C1395.16 204.736 1394.49 203.73 1395.64 199.707C1397.08 194.678 1395.28 191.477 1400.32 182.562C1404.36 175.43 1406.57 171.361 1407.17 170.218C1406.57 169.913 1404.07 170.035 1398.88 172.961C1392.4 176.619 1383.76 184.619 1379.44 188.506C1375.11 192.392 1370.07 198.335 1368.63 203.821C1367.19 209.308 1371.51 212.051 1366.83 212.965C1363.09 213.697 1361.91 212.66 1361.79 212.051C1361.79 213.346 1361.29 215.937 1359.27 215.937C1356.75 215.937 1355.31 215.251 1354.23 213.422C1353.99 214.794 1352.57 217.125 1348.82 215.48C1345.08 213.834 1347.26 211.136 1348.82 209.993C1348.1 208.622 1346.74 205.33 1347.02 203.136C1347.38 200.392 1347.74 192.62 1349.9 186.22C1352.07 179.819 1356.03 176.39 1355.67 174.333C1355.31 172.275 1352.79 165.418 1354.23 157.874C1355.38 151.839 1355.67 140.425 1355.67 135.472C1351.35 133.567 1342.99 127.791 1344.14 119.928C1345.58 110.098 1348.1 112.841 1349.9 108.269C1351.71 103.697 1346.66 91.582 1349.9 87.2387C1353.15 82.8954 1358.55 79.0094 1358.55 74.6661C1358.55 70.3228 1353.51 48.6064 1340.9 43.5774C1325.41 45.9395 1293.07 48.1493 1287.6 38.0911C1284.72 30.9286 1290.77 16.192 1338.02 14.5461C1343.9 13.7079 1358.4 15.1861 1369.35 27.8045C1380.3 40.4228 1392.4 56.0739 1397.08 62.3221Z" fill="black"/>
<path d="M153.976 228.649C127.382 280.314 110.104 318.342 102.143 342.734C90.1159 379.831 84.1025 422.687 84.1025 471.302C84.1025 520.425 90.9628 565.314 104.683 605.967C113.153 631.037 129.838 667.117 154.738 714.208H123.994C99.263 675.587 83.9331 650.941 78.0044 640.269C72.0758 629.597 65.6389 615.114 58.6939 596.82C49.208 571.75 42.6018 544.987 38.8752 516.529C37.0119 501.792 36.0802 487.733 36.0802 474.351C36.0802 424.211 43.9569 379.577 59.7102 340.447C69.7043 315.547 90.5393 278.281 122.215 228.649H153.976ZM372.358 335.874H541.325V376.528H419.11V608H372.358V335.874ZM772.33 521.103C770.467 532.96 766.402 544.563 760.134 555.912C753.867 567.262 745.651 577.425 735.488 586.403C725.324 595.38 713.298 602.579 699.408 608C685.687 613.59 670.442 616.385 653.672 616.385C635.378 616.385 618.439 613.421 602.855 607.492C587.44 601.394 574.058 592.331 562.709 580.305C551.529 568.108 542.721 552.863 536.284 534.569C529.847 516.275 526.629 494.762 526.629 470.031C526.629 453.431 528.408 438.44 531.965 425.058C535.691 411.507 540.604 399.48 546.702 388.978C552.969 378.306 560.168 369.159 568.299 361.536C576.43 353.745 584.984 347.392 593.962 342.48C603.109 337.398 612.425 333.672 621.911 331.3C631.397 328.759 640.544 327.489 649.353 327.489C667.986 327.489 685.009 330.284 700.424 335.874C715.838 341.464 729.051 350.018 740.061 361.536C751.241 372.886 759.88 387.199 765.978 404.477C772.246 421.585 775.379 441.743 775.379 464.95V488.325H576.43C576.599 501.538 578.463 513.565 582.02 524.406C585.577 535.077 590.659 544.224 597.265 551.847C603.871 559.47 611.833 565.398 621.149 569.633C630.635 573.698 641.307 575.731 653.164 575.731C665.191 575.731 675.354 574.037 683.654 570.649C691.954 567.262 698.899 562.942 704.489 557.691C710.079 552.44 714.568 546.596 717.956 540.159C721.513 533.722 724.477 527.37 726.849 521.103H772.33ZM728.373 450.975C728.035 437.762 726.002 425.99 722.275 415.657C718.718 405.324 713.636 396.685 707.03 389.74C700.593 382.626 692.801 377.29 683.654 373.733C674.507 370.006 664.344 368.143 653.164 368.143C642.492 368.143 632.668 370.26 623.69 374.495C614.712 378.56 606.836 384.32 600.06 391.773C593.284 399.057 587.864 407.78 583.798 417.944C579.733 427.938 577.277 438.948 576.43 450.975H728.373ZM788.632 335.874H835.384V445.639H962.427V335.874H1009.43V608H962.427V486.293H835.384V608H788.632V335.874ZM1268.39 521.103C1266.52 532.96 1262.46 544.563 1256.19 555.912C1249.92 567.262 1241.71 577.425 1231.55 586.403C1221.38 595.38 1209.36 602.579 1195.46 608C1181.74 613.59 1166.5 616.385 1149.73 616.385C1131.44 616.385 1114.5 613.421 1098.91 607.492C1083.5 601.394 1070.12 592.331 1058.77 580.305C1047.59 568.108 1038.78 552.863 1032.34 534.569C1025.9 516.275 1022.69 494.762 1022.69 470.031C1022.69 453.431 1024.47 438.44 1028.02 425.058C1031.75 411.507 1036.66 399.48 1042.76 388.978C1049.03 378.306 1056.23 369.159 1064.36 361.536C1072.49 353.745 1081.04 347.392 1090.02 342.48C1099.17 337.398 1108.48 333.672 1117.97 331.3C1127.45 328.759 1136.6 327.489 1145.41 327.489C1164.04 327.489 1181.07 330.284 1196.48 335.874C1211.9 341.464 1225.11 350.018 1236.12 361.536C1247.3 372.886 1255.94 387.199 1262.04 404.477C1268.3 421.585 1271.44 441.743 1271.44 464.95V488.325H1072.49C1072.66 501.538 1074.52 513.565 1078.08 524.406C1081.63 535.077 1086.72 544.224 1093.32 551.847C1099.93 559.47 1107.89 565.398 1117.21 569.633C1126.69 573.698 1137.36 575.731 1149.22 575.731C1161.25 575.731 1171.41 574.037 1179.71 570.649C1188.01 567.262 1194.96 562.942 1200.55 557.691C1206.14 552.44 1210.63 546.596 1214.01 540.159C1217.57 533.722 1220.53 527.37 1222.91 521.103H1268.39ZM1224.43 450.975C1224.09 437.762 1222.06 425.99 1218.33 415.657C1214.78 405.324 1209.69 396.685 1203.09 389.74C1196.65 382.626 1188.86 377.29 1179.71 373.733C1170.56 370.006 1160.4 368.143 1149.22 368.143C1138.55 368.143 1128.73 370.26 1119.75 374.495C1110.77 378.56 1102.89 384.32 1096.12 391.773C1089.34 399.057 1083.92 407.78 1079.86 417.944C1075.79 427.938 1073.33 438.948 1072.49 450.975H1224.43ZM1282.15 335.874H1328.9V373.224H1329.92C1332.97 366.957 1336.78 361.028 1341.35 355.438C1346.09 349.849 1351.68 345.021 1358.12 340.956C1364.73 336.721 1372.26 333.418 1380.73 331.046C1389.37 328.675 1399.2 327.489 1410.21 327.489C1424.78 327.489 1438.75 330.284 1452.13 335.874C1465.51 341.464 1477.37 349.849 1487.7 361.028C1498.04 372.208 1506.25 386.268 1512.35 403.207C1518.45 419.976 1521.5 439.541 1521.5 461.9C1521.5 489.85 1518.62 513.649 1512.86 533.299C1507.27 552.779 1499.22 568.701 1488.72 581.067C1478.39 593.432 1465.85 602.41 1451.12 608C1436.38 613.59 1419.95 616.385 1401.82 616.385C1392.85 616.385 1384.46 615.199 1376.67 612.828C1368.88 610.456 1361.85 607.407 1355.58 603.681C1349.48 599.785 1344.23 595.55 1339.83 590.976C1335.42 586.233 1332.12 581.66 1329.92 577.256H1328.9V715.224H1282.15V335.874ZM1327.88 473.334C1327.88 488.071 1329.32 501.707 1332.2 514.242C1335.08 526.608 1339.49 537.364 1345.42 546.511C1351.51 555.658 1359.05 562.857 1368.03 568.108C1377.18 573.19 1387.93 575.731 1400.3 575.731C1413.17 575.731 1424.27 573.19 1433.58 568.108C1443.07 562.857 1450.86 555.658 1456.96 546.511C1463.06 537.364 1467.55 526.608 1470.43 514.242C1473.31 501.707 1474.75 488.071 1474.75 473.334C1474.75 457.92 1473.31 443.776 1470.43 430.902C1467.55 418.028 1463.06 406.933 1456.96 397.617C1450.86 388.3 1443.07 381.101 1433.58 376.019C1424.27 370.768 1413.17 368.143 1400.3 368.143C1387.93 368.143 1377.18 370.768 1368.03 376.019C1359.05 381.101 1351.51 388.3 1345.42 397.617C1339.49 406.933 1335.08 418.028 1332.2 430.902C1329.32 443.776 1327.88 457.92 1327.88 473.334ZM1532.21 417.435C1532.72 400.835 1535.85 386.86 1541.61 375.511C1547.37 363.993 1555.16 354.676 1564.99 347.562C1574.81 340.447 1586.42 335.366 1599.8 332.317C1613.35 329.098 1628.09 327.489 1644.01 327.489C1657.22 327.489 1670.01 328.844 1682.38 331.554C1694.91 334.265 1706.01 338.669 1715.66 344.767C1725.32 350.695 1733.02 358.487 1738.78 368.143C1744.71 377.629 1747.68 389.232 1747.68 402.953V561.248C1747.68 565.652 1748.86 569.464 1751.23 572.682C1753.6 575.731 1757.42 577.256 1762.67 577.256C1765.04 577.256 1767.49 577.086 1770.04 576.747C1772.58 576.239 1775.2 575.731 1777.91 575.223V607.492C1774.02 608.508 1770.12 609.44 1766.22 610.287C1762.5 611.134 1758.01 611.557 1752.76 611.557C1744.63 611.557 1737.6 610.88 1731.67 609.525C1725.91 608.169 1721 605.967 1716.93 602.918C1713.04 599.7 1709.99 595.634 1707.78 590.722C1705.58 585.64 1704.14 579.458 1703.46 572.174C1697.71 578.441 1691.61 584.285 1685.17 589.706C1678.73 594.957 1671.53 599.615 1663.57 603.681C1655.61 607.577 1646.72 610.626 1636.89 612.828C1627.07 615.199 1615.97 616.385 1603.61 616.385C1593.11 616.385 1582.86 614.691 1572.86 611.303C1563.04 607.915 1554.15 602.918 1546.19 596.312C1538.39 589.706 1532.13 581.575 1527.38 571.92C1522.64 562.095 1520.27 550.746 1520.27 537.872C1520.27 523.813 1522.64 511.701 1527.38 501.538C1532.13 491.205 1538.31 482.651 1545.93 475.875C1553.55 468.93 1562.28 463.594 1572.1 459.868C1581.93 456.141 1591.92 453.685 1602.08 452.499L1678.56 443.098C1685.85 442.251 1691.52 439.456 1695.59 434.713C1699.82 429.801 1701.94 422.009 1701.94 411.337C1701.94 394.906 1696.52 383.134 1685.68 376.019C1675.01 368.736 1659.59 365.094 1639.43 365.094C1618.77 365.094 1603.35 369.498 1593.19 378.306C1583.03 386.945 1577.27 399.988 1575.91 417.435H1532.21ZM1700.92 469.523C1697.2 472.233 1692.54 474.52 1686.95 476.383C1681.53 478.077 1675.52 479.517 1668.91 480.703C1662.3 481.889 1655.27 482.99 1647.82 484.006C1640.37 484.853 1632.91 485.785 1625.46 486.801C1616.99 487.987 1609.2 489.681 1602.08 491.883C1594.97 494.085 1588.79 496.964 1583.54 500.522C1578.28 504.079 1574.22 508.398 1571.34 513.48C1568.46 518.392 1567.02 524.236 1567.02 531.012C1567.02 538.804 1568.21 545.664 1570.58 551.593C1573.12 557.522 1576.51 562.519 1580.74 566.584C1585.15 570.649 1590.4 573.698 1596.49 575.731C1602.59 577.764 1609.28 578.78 1616.57 578.78C1621.14 578.78 1626.39 578.272 1632.32 577.256C1638.25 576.07 1644.35 574.376 1650.61 572.174C1656.88 569.972 1662.98 567.177 1668.91 563.789C1675.01 560.232 1680.43 555.997 1685.17 551.085C1689.91 546.172 1693.72 540.582 1696.6 534.315C1699.48 528.048 1700.92 521.018 1700.92 513.226V469.523ZM1780.75 335.874H1827.5V567.346H1954.54V335.874H2001.55V567.346H2035.09V674.571H1991.38V608H1780.75V335.874ZM2036.4 335.874H2083.15V544.478H2084.17L2217.82 335.874H2271.43V608H2224.42V399.395H2223.41L2090.01 608H2036.4V335.874ZM2519.97 608H2472.96V500.267H2412.74C2401.9 500.267 2392.41 500.522 2384.28 501.03C2376.32 501.369 2369.55 502.893 2363.96 505.603C2358.37 508.314 2353.96 512.548 2350.74 518.308C2347.69 524.067 2345.75 532.282 2344.9 542.954L2342.87 572.174C2342.7 573.021 2342.53 574.715 2342.36 577.256C2342.19 579.796 2341.85 582.845 2341.34 586.403C2340.83 589.79 2340.16 593.432 2339.31 597.328C2338.46 601.224 2337.45 604.782 2336.26 608H2284.68C2285.87 606.475 2286.97 604.951 2287.98 603.426C2289.17 601.733 2290.27 599.446 2291.29 596.566C2292.47 593.686 2293.49 589.96 2294.34 585.386C2295.35 580.813 2296.28 574.969 2297.13 567.854L2300.18 533.045C2301.2 523.897 2302.38 516.444 2303.74 510.685C2305.26 504.926 2307.3 500.183 2309.84 496.456C2312.55 492.56 2316.02 489.426 2320.25 487.055C2324.49 484.514 2329.82 481.973 2336.26 479.432C2307.13 468.93 2292.56 447.418 2292.56 414.895C2292.56 406.764 2293.57 399.311 2295.61 392.535C2297.64 385.59 2300.27 379.407 2303.48 373.987C2306.87 368.566 2310.6 363.823 2314.66 359.758C2318.9 355.523 2323.13 352.051 2327.37 349.34C2332.62 345.953 2338.38 343.412 2344.65 341.718C2350.91 339.854 2357.18 338.499 2363.45 337.652C2369.88 336.805 2376.15 336.297 2382.25 336.128C2388.35 335.958 2393.94 335.874 2399.02 335.874H2519.97V608ZM2472.96 377.036H2401.82C2395.72 377.036 2390.47 377.12 2386.06 377.29C2381.66 377.29 2377.76 377.459 2374.37 377.798C2371.16 378.137 2368.19 378.73 2365.48 379.577C2362.77 380.424 2359.98 381.609 2357.1 383.134C2351.17 386.522 2346.59 391.519 2343.38 398.125C2340.33 404.731 2338.8 411.761 2338.8 419.214C2338.8 426.498 2339.9 432.681 2342.1 437.762C2344.31 442.675 2347.19 446.74 2350.74 449.958C2354.47 453.177 2358.54 455.718 2362.94 457.581C2367.51 459.275 2372.09 460.545 2376.66 461.392C2381.4 462.07 2385.98 462.493 2390.38 462.663C2394.79 462.832 2398.6 462.917 2401.82 462.917H2472.96V377.036ZM2737.84 714.208C2764.77 661.697 2782.13 623.415 2789.93 599.361C2801.78 562.942 2807.71 520.256 2807.71 471.302C2807.71 422.348 2800.85 377.544 2787.13 336.89C2778.66 311.82 2761.98 275.74 2737.08 228.649H2767.82C2793.91 270.32 2809.66 296.067 2815.08 305.892C2820.67 315.547 2826.68 328.929 2833.12 346.037C2841.25 367.211 2847.01 388.131 2850.4 408.796C2853.96 429.462 2855.73 449.366 2855.73 468.507C2855.73 518.646 2847.77 563.366 2831.85 602.664C2821.86 627.903 2801.11 665.085 2769.6 714.208H2737.84Z" fill="black"/>
<path d="M464.931 984.292L474.907 931.167C436.667 957.556 387.897 978.042 328.597 992.625C269.297 1007.21 200.853 1014.33 123.264 1013.98L95 866.063C140.445 861.549 179.516 855.299 212.214 847.313C244.912 838.979 270.129 826.826 287.863 810.854C305.598 794.882 314.465 773.181 314.465 745.75H576.327C576.327 786.722 565.797 824.396 544.737 858.771C600.712 859.812 650.036 862.417 692.709 866.583C735.937 870.403 767.527 874.049 787.478 877.521L756.72 1011.9C745.082 1010.16 725.408 1007.38 697.697 1003.56C670.541 999.743 637.012 995.924 597.109 992.104C557.761 988.285 513.701 985.681 464.931 984.292ZM95 1162.94V1031.69H798.285V1162.94H95Z" fill="black"/>
<path d="M1409.99 1031.69H1464.86V1162.94H761.572V1031.69H1372.58L1177.22 1008.25C1180 1003.39 1182.49 998.701 1184.71 994.188C1186.92 989.674 1189.14 985.333 1191.36 981.167H803.137V896.792H1209.65C1210.2 893.667 1210.48 890.715 1210.48 887.938C1210.48 884.813 1210.48 881.514 1210.48 878.042H784.017V746.792H1434.93C1434.93 789.5 1434.65 825.438 1434.1 854.604C1433.54 883.771 1432.71 908.076 1431.6 927.521C1430.5 946.965 1429.11 962.938 1427.45 975.438C1425.79 987.59 1423.29 998.007 1419.97 1006.69C1417.2 1015.37 1413.87 1023.7 1409.99 1031.69Z" fill="black"/>
<path d="M1896.17 938.458V727H2120.62V979.604H1896.17V965.021C1885.08 969.188 1866.52 972.833 1840.47 975.958C1814.98 978.736 1785.33 980.993 1751.52 982.729C1717.71 984.465 1683.08 985.333 1647.61 985.333C1612.14 985.333 1578.89 984.465 1547.85 982.729C1517.37 980.993 1492.15 978.215 1472.2 974.396C1452.81 970.576 1442.28 965.542 1440.61 959.292L1439.78 832.729H1631.81V823.354H1439.78V734.292H1866.24V831.687C1866.24 838.632 1850.72 846.097 1819.69 854.083C1788.65 861.722 1743.21 865.368 1683.35 865.021V874.396C1714.39 874.049 1739.61 873.354 1759 872.312C1778.4 870.924 1794.47 869.187 1807.22 867.104C1819.97 865.021 1830.77 862.59 1839.64 859.812C1848.51 857.035 1857.37 854.083 1866.24 850.958L1896.17 938.458ZM1687.51 1015.54H1888.69V992.104H2120.62V1177H1455.58V996.792H1687.51V1015.54ZM1687.51 1076.48V1092.63H1888.69V1076.48H1687.51Z" fill="black"/>
<path d="M2356.58 917.104H2766.41V1010.85H2132.12V738.979H2758.93V832.729H2356.58V846.792H2751.45V903.042H2356.58V917.104ZM2094.71 1162.94V1031.69H2798V1162.94H2094.71Z" fill="black"/>
</svg>
