<svg width="1795" height="30" viewBox="0 0 1795 30" fill="none" xmlns="http://www.w3.org/2000/svg">
<path d="M1168.74 8.47954C1169.45 6.84519 1170.47 5.08649 1171.82 3.20343H1174.69L1173.87 4.69566C1172.75 6.74748 1171.98 8.89701 1171.54 11.1442C1171.26 12.6187 1171.12 14.2264 1171.12 15.9674C1171.12 18.6853 1171.51 21.1857 1172.3 23.4685C1172.76 24.8186 1173.58 26.5507 1174.75 28.6647H1171.94L1171 27.3723C1170.38 26.5906 1169.73 25.427 1169.04 23.8815C1167.8 21.1191 1167.19 18.4011 1167.19 15.7275C1167.19 13.2938 1167.71 10.8778 1168.74 8.47954Z" fill="black"/>
<path d="M1239.05 3.20343C1240.4 5.08649 1241.43 6.84519 1242.13 8.47954C1243.17 10.8778 1243.69 13.2938 1243.69 15.7275C1243.69 18.4011 1243.07 21.1191 1241.84 23.8815C1241.14 25.427 1240.49 26.5906 1239.88 27.3723L1238.93 28.6647H1236.12C1237.29 26.5507 1238.11 24.8186 1238.57 23.4685C1239.36 21.1857 1239.76 18.6853 1239.76 15.9674C1239.76 14.2264 1239.62 12.6187 1239.33 11.1442C1238.9 8.89701 1238.12 6.74748 1237 4.69566L1236.19 3.20343H1239.05Z" fill="black"/>
<path d="M16.5 7.66205C11.7 15.262 8 15.162 0 13.662C9 16.662 8.5 18.162 8.5 23.662C14 16.662 20 16.162 21.5 16.162C26 16.162 31 16.662 39.5 23.162C42.5 17.162 47 15.662 54 15.662C62.4 15.662 67.5 20.662 69 23.162C70.2 17.562 88.1667 16.8287 97 16.662C84.5 13.162 85.6667 10.9954 83.5 7.66205C83.8333 8.99538 83 11.662 77 11.662C71 11.662 64.1667 6.66205 61.5 4.16205C61 5.32871 58.8 8.06205 54 9.66205C49.2 11.262 45 6.66205 43.5 4.16205C43 7.32871 40.1 13.662 32.5 13.662C24.9 13.662 18.6667 9.66205 16.5 7.66205Z" fill="black"/>
<path d="M163.392 19.7518C167.351 12.3467 170.402 12.4441 177 13.9056C169.577 10.9826 169.99 9.52102 169.99 4.16204C165.454 10.9826 160.505 11.4697 159.268 11.4697C155.557 11.4697 151.433 10.9826 144.423 4.64922C138.378 7.60298 130.595 14.2414 132.464 11.9569C147.292 -6.16892 123.186 0.636401 120.093 4.64922C117 8.66204 104.285 10.8202 97 10.9826C107.309 14.3928 107 21.162 107 21.162C107 21.162 108.546 15.8544 113.495 15.8544C118.443 15.8544 124.079 20.7261 126.278 23.162C126.691 22.0253 128.505 19.362 132.464 17.8031C136.423 16.2441 139.887 20.7261 141.124 23.162C142.423 20.4184 146.604 14.9366 150.196 13.9056C156.221 12.1761 161.605 17.8031 163.392 19.7518Z" fill="black"/>
<path d="M1395.61 19.9139C1391.65 12.5088 1388.6 12.6062 1382 14.0677C1389.42 11.1447 1389.01 9.68313 1389.01 4.32415C1393.55 11.1447 1398.49 11.6318 1399.73 11.6318C1403.44 11.6318 1407.57 11.1447 1414.58 4.81133C1420.62 7.76509 1428.41 14.4035 1426.54 12.119C1411.71 -6.00681 1435.81 0.798511 1438.91 4.81133C1442 8.82415 1454.71 10.9823 1462 11.1447C1451.69 14.5549 1452 21.3242 1452 21.3242C1452 21.3242 1450.45 16.0165 1445.51 16.0165C1440.56 16.0165 1434.92 20.8883 1432.72 23.3242C1432.31 22.1874 1430.49 19.5242 1426.54 17.9652C1422.58 16.4062 1419.11 20.8883 1417.88 23.3242C1416.58 20.5806 1412.4 15.0987 1408.8 14.0677C1402.78 12.3382 1397.4 17.9652 1395.61 19.9139Z" fill="black"/>
<path d="M1340.63 19.7518C1345.97 12.3467 1350.09 12.4441 1359 13.9056C1348.98 10.9826 1349.54 9.52102 1349.54 4.16205C1343.41 10.9826 1336.73 11.4697 1335.06 11.4697C1330.05 11.4697 1324.48 10.9826 1315.02 4.64922C1311.68 10.4954 1306.67 11.9569 1298.88 11.9569C1289.52 11.9569 1283.85 7.08512 1282.18 4.64922C1280.84 10.1056 1260.84 10.8202 1251 10.9826C1264.92 14.3928 1263.62 16.5039 1266.03 19.7518C1265.66 18.4526 1266.59 15.8544 1273.27 15.8544C1279.95 15.8544 1287.56 20.7261 1290.53 23.162C1291.08 22.0253 1293.53 19.362 1298.88 17.8031C1304.22 16.2441 1308.9 20.7261 1310.57 23.162C1311.12 20.0766 1314.35 13.9056 1322.81 13.9056C1331.28 13.9056 1338.22 17.8031 1340.63 19.7518Z" fill="black"/>
<path d="M230 7.16205H287V23.162H230V7.16205Z" fill="black"/>
<path d="M1738 7.16205H1795V23.162H1738V7.16205Z" fill="black"/>
<path d="M703 7.16205H1160V23.162H703V7.16205Z" fill="black"/>
<path d="M1192 2.16205H1219V14.2003H1192V2.16205Z" fill="url(#paint0_linear_149_37)"/>
<path d="M1192 13.6845H1219V29.1622H1192V13.6845Z" fill="url(#paint1_linear_149_37)"/>
<defs>
<linearGradient id="paint0_linear_149_37" x1="893.247" y1="-1.43577e-08" x2="893.251" y2="29.1629" gradientUnits="userSpaceOnUse">
<stop stop-color="#FF0000"/>
<stop offset="0.31" stop-color="#FF00CC"/>
<stop offset="0.68" stop-color="#FFAE00"/>
<stop offset="1" stop-color="#0037FF"/>
</linearGradient>
<linearGradient id="paint1_linear_149_37" x1="1205.44" y1="13.6846" x2="1205.52" y2="29.1622" gradientUnits="userSpaceOnUse">
<stop stop-color="#2B00FF"/>
<stop offset="0.31" stop-color="#00FF1A"/>
<stop offset="0.68" stop-color="#FF0000"/>
<stop offset="1" stop-color="#FFD900"/>
</linearGradient>
</defs>
</svg>
