<svg width="429" height="119" viewBox="0 0 429 119" fill="none" xmlns="http://www.w3.org/2000/svg">
<path d="M25.5967 43.2929C26.1608 50.4387 28.9023 57.9845 30.4905 65.0434C31.8081 70.8994 32.8608 76.8683 34.4056 82.6613C36.1592 89.2372 37.4785 95.8903 39.3539 102.454C40.2351 105.539 56.6762 103.977 58.8749 103.977C64.8509 103.977 68.8405 104.033 74.3178 101.802C76.7564 100.808 79.4223 98.987 81.6042 97.5604C84.3918 95.7377 83.3496 95.8897 84.5405 93.2103C86.2506 89.3624 87.2593 87.2079 87.2593 82.9332C87.2593 70.7567 77.2415 70.6567 67.1401 68.2516C61.0448 66.8003 53.8874 67.7622 47.619 67.7622C43.3301 67.7622 34.0253 68.1844 43.2146 66.0222C47.4825 65.018 53.4836 63.9547 55.1773 59.932C56.6871 56.3464 59.7336 51.003 56.428 47.6974C50.154 41.4234 40.5241 43.2929 31.6868 43.2929C23.1669 43.2929 15.3368 45.2505 7 45.2505" stroke="black" stroke-width="12.8741" stroke-linecap="round"/>
<path d="M101.941 37.4204C101.941 49.1235 102.92 60.5998 102.92 72.3299C102.92 78.2026 102.92 84.0752 102.92 89.9478C102.92 92.3653 102.159 96.3437 103.409 98.5937C105.312 102.019 103.209 97.5013 102.92 95.5486C102.253 91.0468 99.5309 84.7396 101.179 80.1601C101.928 78.0816 118.074 80.5355 119.885 80.432C125.316 80.1217 130.593 79.5076 136.089 79.5076C138.957 79.5076 138.155 77.4023 138.155 75.0488C138.155 70.1797 136.176 65.3221 135.708 60.3672C135.446 57.5831 133.685 46.3952 135.437 54.4945C136.427 59.0737 138.155 62.6351 138.155 67.4361C138.155 74.3962 138.155 81.3564 138.155 88.3166C138.155 93.1209 139.134 97.7639 139.134 102.509C139.134 105.634 141.092 107.813 141.092 110.828" stroke="black" stroke-width="12.8741" stroke-linecap="round"/>
<path d="M227.224 111.807C227.224 108.339 224.845 104.454 224.342 100.932C223.77 96.9286 224.856 92.8315 223.744 88.8605C222.988 86.1594 221.352 83.3117 221.352 80.4866C221.352 78.3246 222.856 67.5228 219.775 66.8381C215.509 65.8902 211.383 67.3112 207.486 68.6869C200.466 71.1645 191.696 71.763 184.321 73.1458C177.215 74.4782 170.233 75.8534 163.06 76.789C162.075 76.9176 154.912 79.4018 159.363 79.5078C175.734 79.8976 188.945 71.7076 203.951 66.7838C208.405 65.3224 212.832 63.5113 217.219 61.8899C224.147 59.3294 231.835 58.3757 239.078 56.996C247.25 55.4394 255.468 52.8564 263.765 52.1022C266.866 51.8202 257.624 53.2042 254.63 54.0597" stroke="black" stroke-width="12.8741" stroke-linecap="round"/>
<path d="M221.351 69.7201C221.351 66.7328 218.625 64.0499 218.415 60.4761C218.12 55.4657 218.781 43.6594 215.479 40.3569" stroke="black" stroke-width="12.8741" stroke-linecap="round"/>
<path d="M384.807 62.8685C384.807 72.8072 383.828 82.8459 383.828 92.6667C383.828 97.6874 388.427 89.7774 389.755 88.3166C396.391 81.017 402.809 72.7122 408.134 64.391C409.005 63.0311 409.415 61.4113 410.037 59.9322C410.157 59.6488 410.399 57.5748 410.472 57.6484C413.988 61.1638 414.812 70.3354 416.128 74.94C417.034 78.1116 416.922 94.1892 422 94.1892" stroke="black" stroke-width="12.8741" stroke-linecap="round"/>
<path d="M143.049 24.6964C150.687 32.6405 154.532 43.4219 160.667 52.537C161.609 53.9367 165.571 61.2893 168.008 60.7478C171.738 59.9188 175.774 50.2727 177.306 47.2081C180.654 40.5125 184.18 34.1073 187.039 27.1977C189.326 21.6724 190.913 12.276 195.359 8.27477C197.033 6.76801 197.45 6.09425 196.773 9.14479C195.383 15.3983 189.133 21.1229 186.06 26.6539C180.629 36.4299 175.213 45.5804 170.944 56.0171C168.65 61.6241 167.041 67.662 164.147 73.0369C160.847 79.1647 157.73 88.3798 157.73 95.168" stroke="black" stroke-width="12.8741" stroke-linecap="round"/>
<path d="M317.271 102.998C314.851 96.511 313.835 88.947 310.909 82.7702C308.949 78.6321 307.404 73.7522 306.287 69.2849C304.226 61.0416 303.656 52.3548 301.828 43.9456C300.473 37.7132 298.776 31.5182 297.261 25.2402C294.979 15.7877 300.945 17.845 308.68 17.845C321.177 17.845 333.13 14.9087 345.656 14.9087C354.773 14.9087 363.89 14.9087 373.007 14.9087C377.182 14.9087 383.828 22.3192 383.828 26.654C383.828 29.5723 385.283 31.6985 384.045 34.4841C382.069 38.9296 380.296 40.6688 375.943 43.3475C367.145 48.7615 355.894 50.8684 345.873 53.0808C338.549 54.6979 330.139 56.9959 322.654 56.9959C319.296 56.9959 316.406 58.9534 313.139 58.9534C310.601 58.9534 308.063 58.9534 305.526 58.9534" stroke="black" stroke-width="12.8741" stroke-linecap="round"/>
<path d="M25.5967 43.2929C26.1608 50.4387 28.9023 57.9845 30.4905 65.0434C31.8081 70.8994 32.8608 76.8683 34.4056 82.6613C36.1592 89.2372 37.4785 95.8903 39.3539 102.454C40.2351 105.539 56.6762 103.977 58.8749 103.977C64.8509 103.977 68.8405 104.033 74.3178 101.802C76.7564 100.808 79.4223 98.987 81.6042 97.5604C84.3918 95.7377 83.3496 95.8897 84.5405 93.2103C86.2506 89.3624 87.2593 87.2079 87.2593 82.9332C87.2593 70.7567 77.2415 70.6567 67.1401 68.2516C61.0448 66.8003 53.8874 67.7622 47.619 67.7622C43.3301 67.7622 34.0253 68.1844 43.2146 66.0222C47.4825 65.018 53.4836 63.9547 55.1773 59.932C56.6871 56.3464 59.7336 51.003 56.428 47.6974C50.154 41.4234 40.5241 43.2929 31.6868 43.2929C23.1669 43.2929 15.3368 45.2505 7 45.2505" stroke="white" stroke-width="11.7802" stroke-linecap="round"/>
<path d="M101.941 37.4204C101.941 49.1235 102.92 60.5998 102.92 72.3299C102.92 78.2026 102.92 84.0752 102.92 89.9478C102.92 92.3653 102.159 96.3437 103.409 98.5937C105.312 102.019 103.209 97.5013 102.92 95.5486C102.253 91.0468 99.5309 84.7396 101.179 80.1601C101.928 78.0816 118.074 80.5355 119.885 80.432C125.316 80.1217 130.593 79.5076 136.089 79.5076C138.957 79.5076 138.155 77.4023 138.155 75.0488C138.155 70.1797 136.176 65.3221 135.708 60.3672C135.446 57.5831 133.685 46.3952 135.437 54.4945C136.427 59.0737 138.155 62.6351 138.155 67.4361C138.155 74.3962 138.155 81.3564 138.155 88.3166C138.155 93.1209 139.134 97.7639 139.134 102.509C139.134 105.634 141.092 107.813 141.092 110.828" stroke="white" stroke-width="11.7802" stroke-linecap="round"/>
<path d="M227.224 111.807C227.224 108.339 224.845 104.454 224.342 100.932C223.77 96.9286 224.856 92.8315 223.744 88.8605C222.988 86.1594 221.352 83.3117 221.352 80.4866C221.352 78.3246 222.856 67.5228 219.775 66.8381C215.509 65.8902 211.383 67.3112 207.486 68.6869C200.466 71.1645 191.696 71.763 184.321 73.1458C177.215 74.4782 170.233 75.8534 163.06 76.789C162.075 76.9176 154.912 79.4018 159.363 79.5078C175.734 79.8976 188.945 71.7076 203.951 66.7838C208.405 65.3224 212.832 63.5113 217.219 61.8899C224.147 59.3294 231.835 58.3757 239.078 56.996C247.25 55.4394 255.468 52.8564 263.765 52.1022C266.866 51.8202 257.624 53.2042 254.63 54.0597" stroke="white" stroke-width="11.7802" stroke-linecap="round"/>
<path d="M221.351 69.7201C221.351 66.7328 218.625 64.0499 218.415 60.4761C218.12 55.4657 218.781 43.6594 215.479 40.3569" stroke="white" stroke-width="11.7802" stroke-linecap="round"/>
<path d="M384.807 62.8685C384.807 72.8072 383.828 82.8459 383.828 92.6667C383.828 97.6874 388.427 89.7774 389.755 88.3166C396.391 81.017 402.809 72.7122 408.134 64.391C409.005 63.0311 409.415 61.4113 410.037 59.9322C410.157 59.6488 410.399 57.5748 410.472 57.6484C413.988 61.1638 414.812 70.3354 416.128 74.94C417.034 78.1116 416.922 94.1892 422 94.1892" stroke="white" stroke-width="11.7802" stroke-linecap="round"/>
<path d="M143.049 24.6964C150.687 32.6405 154.532 43.4219 160.667 52.537C161.609 53.9367 165.571 61.2893 168.008 60.7478C171.738 59.9188 175.774 50.2727 177.306 47.2081C180.654 40.5125 184.18 34.1073 187.039 27.1977C189.326 21.6724 190.913 12.276 195.359 8.27477C197.033 6.76801 197.45 6.09425 196.773 9.14479C195.383 15.3983 189.133 21.1229 186.06 26.6539C180.629 36.4299 175.213 45.5804 170.944 56.0171C168.65 61.6241 167.041 67.662 164.147 73.0369C160.847 79.1647 157.73 88.3798 157.73 95.168" stroke="white" stroke-width="11.7802" stroke-linecap="round"/>
<path d="M317.271 102.998C314.851 96.511 313.835 88.947 310.909 82.7702C308.949 78.6321 307.404 73.7522 306.287 69.2849C304.226 61.0416 303.656 52.3548 301.828 43.9456C300.473 37.7132 298.776 31.5182 297.261 25.2402C294.979 15.7877 300.945 17.845 308.68 17.845C321.177 17.845 333.13 14.9087 345.656 14.9087C354.773 14.9087 363.89 14.9087 373.007 14.9087C377.182 14.9087 383.828 22.3192 383.828 26.654C383.828 29.5723 385.283 31.6985 384.045 34.4841C382.069 38.9296 380.296 40.6688 375.943 43.3475C367.145 48.7615 355.894 50.8684 345.873 53.0808C338.549 54.6979 330.139 56.9959 322.654 56.9959C319.296 56.9959 316.406 58.9534 313.139 58.9534C310.601 58.9534 308.063 58.9534 305.526 58.9534" stroke="white" stroke-width="11.7802" stroke-linecap="round"/>
</svg>
