<svg width="433" height="141" viewBox="0 0 433 141" fill="none" xmlns="http://www.w3.org/2000/svg">
<path d="M6.61816 85.189C7.59822 87.7492 15.0976 90.6608 17.4491 92.0243C20.5333 93.8127 23.7871 95.8772 27.1745 96.9655C29.7392 97.7895 31.2124 100.669 33.0996 101.511" stroke="black" stroke-width="12.5535" stroke-linecap="round"/>
<path d="M51.139 72.1935C45.4132 72.4447 41.8345 80.2104 39.1995 84.373C33.3876 93.5544 28.3489 104.513 25.2039 114.944C23.8845 119.32 20.2578 123.394 20.4524 127.831C20.5386 129.797 18.525 130.348 17.8986 132.544" stroke="black" stroke-width="12.5535" stroke-linecap="round"/>
<path d="M41.8976 134.252C40.9585 132.464 39.2398 129.838 38.9091 127.891C38.5485 125.766 39.0959 123.37 38.3653 121.32C36.0558 114.839 45.5295 116.403 49.8456 114.988C51.5045 114.444 63.7877 108.837 63.9116 111.662C64.0795 115.489 64.2473 119.315 64.4152 123.142" stroke="black" stroke-width="12.5535" stroke-linecap="round"/>
<path d="M45.4821 111.09C45.3373 107.79 45.1926 104.491 45.0479 101.191C44.8712 97.1622 43.4539 94.6154 47.9714 94.4173C50.1799 94.3204 52.9822 93.2711 53.1056 96.0836C53.2526 99.4341 53.3995 102.785 53.5465 106.135" stroke="black" stroke-width="12.5535" stroke-linecap="round"/>
<path d="M73.9948 110.759C74.1502 108.437 80.2962 106.443 82.001 104.478C84.1364 102.016 83.7561 98.6624 83.453 95.6211C83.1295 92.3756 80.249 92.0808 77.7812 92.1891C70.3285 92.516 71.4085 93.7542 71.7484 101.502C72.0418 108.192 72.5783 120.317 81.4197 121.527C88.871 122.547 96.3684 122.309 102.869 118.695" stroke="black" stroke-width="12.5535" stroke-linecap="round"/>
<path d="M102.304 105.837C99.0402 102.847 100.043 96.2456 99.8631 92.1411C99.5856 85.8137 98.3978 79.7134 98.1189 73.3536C98.056 71.9212 96.9292 65.9373 97.9492 64.8237C99.7467 62.8613 105.652 62.441 108.218 62.3284C113.855 62.0812 116.53 69.1072 116.557 74.1297C116.601 82.3356 105.762 81.3347 101.337 83.7947" stroke="black" stroke-width="12.5535" stroke-linecap="round"/>
<path d="M121.946 92.0928C128.738 101.038 136.491 107.45 145.874 113.128" stroke="black" stroke-width="12.5535" stroke-linecap="round"/>
<path d="M120.439 120.685C127.696 114.669 131.969 109.47 136.99 101.76C139.082 98.5475 144.423 93.4231 144.834 89.453C144.978 88.0624 145.61 87.4298 146.541 86.413" stroke="black" stroke-width="12.5535" stroke-linecap="round"/>
<path d="M129.849 83.4644C130.892 93.6018 133.253 103.447 133.933 113.652C134.083 115.899 133.876 119.029 136.052 120" stroke="black" stroke-width="12.5535" stroke-linecap="round"/>
<path d="M157.846 92.3584C158.281 99.7841 160.224 106.758 161.963 113.956C163.394 119.882 164.298 120.527 167.803 116.562C173.861 109.71 177.51 101.705 182.784 94.4852C184.813 91.7079 187.17 104.981 187.47 105.731C188.272 107.736 188.417 112.057 189.651 113.508C190.071 114.002 192.045 116.797 191.997 115.706" stroke="black" stroke-width="12.5535" stroke-linecap="round"/>
<path d="M197.087 63.9512C198.064 72.3927 202.452 79.6339 205.677 87.295C208.796 94.7013 216.326 86.1096 219.577 83.6691C222.534 81.4498 227.818 73.8433 220.851 73.0821C217.851 72.7545 208.197 75.498 205.992 73.4783C205.935 73.4265 212.206 70.8427 213.014 70.4097C216.055 68.7797 219.099 66.8073 222.201 65.4057C226.304 63.5521 223.116 56.0881 219.269 55.6678C210.185 54.6755 195.762 54.713 196.29 66.7468" stroke="black" stroke-width="12.5535" stroke-linecap="round"/>
<path d="M251.968 98.3522C251.71 92.4736 251.241 87.1774 246.017 83.8901C240.957 80.7054 239.297 82.204 239.536 87.6507C239.757 92.6864 241.946 110.459 251.35 105.23C256.536 102.346 260.589 97.8252 261.691 91.5866C261.773 91.1244 261.615 87.5017 261.668 88.7248C261.762 90.8678 261.856 93.0108 261.95 95.1538C262.174 100.247 261.816 103.823 264.708 107.916C266.574 110.556 269.481 109.547 272.697 109.405" stroke="black" stroke-width="12.5535" stroke-linecap="round"/>
<path d="M278.159 87.0808C278.339 91.1848 278.28 111.268 282.002 111.757C284.795 112.125 291.096 98.2927 291.939 95.8828C292.295 94.8652 294.541 88.8741 295.369 90.16C297.713 93.8019 298.896 97.6278 300.673 101.532C302.314 105.137 303.105 108.975 304.584 112.607C305.735 115.432 305.022 112.087 304.963 110.75" stroke="black" stroke-width="12.5535" stroke-linecap="round"/>
<path d="M279.312 71.3872L294.006 70.7426" stroke="black" stroke-width="12.5535" stroke-linecap="round"/>
<path d="M355.469 87.3706C356.925 91.9152 360.455 100.222 364.419 102.621" stroke="black" stroke-width="12.5535" stroke-linecap="round"/>
<path d="M370.8 80.2568C374.84 83.9572 379.506 93.1472 384.343 95.3061" stroke="black" stroke-width="12.5535" stroke-linecap="round"/>
<path d="M387.871 28.8977C378.563 29.6796 374.638 41.8887 374.99 49.9115C375.32 57.4275 378.229 60.168 382.339 65.9481C385.549 70.4619 393.043 70.9998 397.99 70.7828C400.355 70.6791 403.701 71.1781 405.51 69.7373C406.523 68.9307 410.276 67.4833 411.646 67.4233" stroke="black" stroke-width="12.5535" stroke-linecap="round"/>
<path d="M406.554 14.2754C407.315 19.5438 410.685 24.5518 410.912 29.7275" stroke="black" stroke-width="12.5535" stroke-linecap="round"/>
<path d="M422.803 7.12069C422.984 11.2325 422.556 15.8716 423.416 19.9254C423.855 21.9967 425.758 23.3282 426.364 25.3684" stroke="black" stroke-width="12.5535" stroke-linecap="round"/>
<path d="M6.61816 85.189C7.59822 87.7492 15.0976 90.6608 17.4491 92.0243C20.5333 93.8127 23.7871 95.8772 27.1745 96.9655C29.7392 97.7895 31.2124 100.669 33.0996 101.511" stroke="white" stroke-width="10.4613" stroke-linecap="round"/>
<path d="M51.139 72.1935C45.4132 72.4447 41.8345 80.2104 39.1995 84.373C33.3876 93.5544 28.3489 104.513 25.2039 114.944C23.8845 119.32 20.2578 123.394 20.4524 127.831C20.5386 129.797 18.525 130.348 17.8986 132.544" stroke="white" stroke-width="10.4613" stroke-linecap="round"/>
<path d="M41.8976 134.252C40.9585 132.464 39.2398 129.838 38.9091 127.891C38.5485 125.766 39.0959 123.37 38.3653 121.32C36.0558 114.839 45.5295 116.403 49.8456 114.988C51.5045 114.444 63.7877 108.837 63.9116 111.662C64.0795 115.489 64.2473 119.315 64.4152 123.142" stroke="white" stroke-width="10.4613" stroke-linecap="round"/>
<path d="M45.4821 111.09C45.3373 107.79 45.1926 104.491 45.0479 101.191C44.8712 97.1622 43.4539 94.6154 47.9714 94.4173C50.1799 94.3204 52.9822 93.2711 53.1056 96.0836C53.2526 99.4341 53.3995 102.785 53.5465 106.135" stroke="white" stroke-width="10.4613" stroke-linecap="round"/>
<path d="M73.9948 110.759C74.1502 108.437 80.2962 106.443 82.001 104.478C84.1364 102.016 83.7561 98.6624 83.453 95.6211C83.1295 92.3756 80.249 92.0808 77.7812 92.1891C70.3285 92.516 71.4085 93.7542 71.7484 101.502C72.0418 108.192 72.5783 120.317 81.4197 121.527C88.871 122.547 96.3684 122.309 102.869 118.695" stroke="white" stroke-width="10.4613" stroke-linecap="round"/>
<path d="M102.304 105.837C99.0402 102.847 100.043 96.2456 99.8631 92.1411C99.5856 85.8137 98.3978 79.7134 98.1189 73.3536C98.056 71.9212 96.9292 65.9373 97.9492 64.8237C99.7467 62.8613 105.652 62.441 108.218 62.3284C113.855 62.0812 116.53 69.1072 116.557 74.1297C116.601 82.3356 105.762 81.3347 101.337 83.7947" stroke="white" stroke-width="10.4613" stroke-linecap="round"/>
<path d="M121.946 92.0928C128.738 101.038 136.491 107.45 145.874 113.128" stroke="white" stroke-width="10.4613" stroke-linecap="round"/>
<path d="M120.439 120.685C127.696 114.669 131.969 109.47 136.99 101.76C139.082 98.5475 144.423 93.4231 144.834 89.453C144.978 88.0624 145.61 87.4298 146.541 86.413" stroke="white" stroke-width="10.4613" stroke-linecap="round"/>
<path d="M129.849 83.4644C130.892 93.6018 133.253 103.447 133.933 113.652C134.083 115.899 133.876 119.029 136.052 120" stroke="white" stroke-width="10.4613" stroke-linecap="round"/>
<path d="M157.846 92.3584C158.281 99.7841 160.224 106.758 161.963 113.956C163.394 119.882 164.298 120.527 167.803 116.562C173.861 109.71 177.51 101.705 182.784 94.4852C184.813 91.7079 187.17 104.981 187.47 105.731C188.272 107.736 188.417 112.057 189.651 113.508C190.071 114.002 192.045 116.797 191.997 115.706" stroke="white" stroke-width="10.4613" stroke-linecap="round"/>
<path d="M197.087 63.9512C198.064 72.3927 202.452 79.6339 205.677 87.295C208.796 94.7013 216.326 86.1096 219.577 83.6691C222.534 81.4498 227.818 73.8433 220.851 73.0821C217.851 72.7545 208.197 75.498 205.992 73.4783C205.935 73.4265 212.206 70.8427 213.014 70.4097C216.055 68.7797 219.099 66.8073 222.201 65.4057C226.304 63.5521 223.116 56.0881 219.269 55.6678C210.185 54.6755 195.762 54.713 196.29 66.7468" stroke="white" stroke-width="10.4613" stroke-linecap="round"/>
<path d="M251.968 98.3522C251.71 92.4736 251.241 87.1774 246.017 83.8901C240.957 80.7054 239.297 82.204 239.536 87.6507C239.757 92.6864 241.946 110.459 251.35 105.23C256.536 102.346 260.589 97.8252 261.691 91.5866C261.773 91.1244 261.615 87.5017 261.668 88.7248C261.762 90.8678 261.856 93.0108 261.95 95.1538C262.174 100.247 261.816 103.823 264.708 107.916C266.574 110.556 269.481 109.547 272.697 109.405" stroke="white" stroke-width="10.4613" stroke-linecap="round"/>
<path d="M278.159 87.0808C278.339 91.1848 278.28 111.268 282.002 111.757C284.795 112.125 291.096 98.2927 291.939 95.8828C292.295 94.8652 294.541 88.8741 295.369 90.16C297.713 93.8019 298.896 97.6278 300.673 101.532C302.314 105.137 303.105 108.975 304.584 112.607C305.735 115.432 305.022 112.087 304.963 110.75" stroke="white" stroke-width="10.4613" stroke-linecap="round"/>
<path d="M279.312 71.3872L294.006 70.7426" stroke="white" stroke-width="10.4613" stroke-linecap="round"/>
<path d="M355.469 87.3706C356.925 91.9152 360.455 100.222 364.419 102.621" stroke="white" stroke-width="10.4613" stroke-linecap="round"/>
<path d="M370.8 80.2568C374.84 83.9572 379.506 93.1472 384.343 95.3061" stroke="white" stroke-width="10.4613" stroke-linecap="round"/>
<path d="M387.871 28.8977C378.563 29.6796 374.638 41.8887 374.99 49.9115C375.32 57.4275 378.229 60.168 382.339 65.9481C385.549 70.4619 393.043 70.9998 397.99 70.7828C400.355 70.6791 403.701 71.1781 405.51 69.7373C406.523 68.9307 410.276 67.4833 411.646 67.4233" stroke="white" stroke-width="10.4613" stroke-linecap="round"/>
<path d="M406.554 14.2754C407.315 19.5438 410.685 24.5518 410.912 29.7275" stroke="white" stroke-width="10.4613" stroke-linecap="round"/>
<path d="M422.803 7.12069C422.984 11.2325 422.556 15.8716 423.416 19.9254C423.855 21.9967 425.758 23.3282 426.364 25.3684" stroke="white" stroke-width="10.4613" stroke-linecap="round"/>
</svg>
