<svg width="106" height="32" viewBox="0 0 106 32" fill="none" xmlns="http://www.w3.org/2000/svg">
<path d="M6.73944 0C4.777 2.36665 3.2858 4.57701 2.26584 6.63108C0.755281 9.64521 -2.88217e-07 12.6817 -2.88217e-07 15.7404C-2.88217e-07 19.1006 0.8973 22.5167 2.6919 25.9885C3.69894 27.9309 4.64789 29.3933 5.53873 30.3757L6.91373 32H11C9.29577 29.3431 8.10798 27.1662 7.43662 25.4694C6.28756 22.6004 5.71303 19.4579 5.71303 16.0419C5.71303 13.8538 5.9196 11.8332 6.33275 9.98011C6.96538 7.15576 8.09507 4.45421 9.72183 1.87546L10.9032 0H6.73944Z" fill="black"/>
<path d="M99.2606 0C101.223 2.36665 102.714 4.57701 103.734 6.63108C105.245 9.64521 106 12.6817 106 15.7404C106 19.1006 105.103 22.5167 103.308 25.9885C102.301 27.9309 101.352 29.3933 100.461 30.3757L99.0863 32H95C96.7042 29.3431 97.892 27.1662 98.5634 25.4694C99.7124 22.6004 100.287 19.4579 100.287 16.0419C100.287 13.8538 100.08 11.8332 99.6673 9.98011C99.0346 7.15576 97.9049 4.45421 96.2782 1.87546L95.0968 0H99.2606Z" fill="black"/>
</svg>
