<svg width="141" height="52" viewBox="0 0 141 52" fill="none" xmlns="http://www.w3.org/2000/svg">
<path d="M43.9836 22.1964H45.3243V25.3441H48.9675V22.1964H50.3154V30H48.9675V26.5099H45.3243V30H43.9836V22.1964ZM57.7413 27.5081C57.6879 27.8481 57.5713 28.1809 57.3916 28.5063C57.2119 28.8318 56.9763 29.1232 56.6848 29.3807C56.3934 29.6381 56.0485 29.8446 55.6502 30C55.2567 30.1603 54.8195 30.2404 54.3386 30.2404C53.814 30.2404 53.3283 30.1554 52.8814 29.9854C52.4393 29.8106 52.0556 29.5507 51.7301 29.2058C51.4095 28.8561 51.157 28.4189 50.9724 27.8943C50.7878 27.3696 50.6955 26.7527 50.6955 26.0435C50.6955 25.5675 50.7465 25.1376 50.8485 24.7539C50.9554 24.3653 51.0962 24.0204 51.2711 23.7192C51.4508 23.4132 51.6573 23.1509 51.8904 22.9323C52.1236 22.7088 52.3689 22.5267 52.6264 22.3858C52.8887 22.2401 53.1558 22.1332 53.4279 22.0652C53.6999 21.9924 53.9622 21.9559 54.2148 21.9559C54.7491 21.9559 55.2373 22.0361 55.6793 22.1964C56.1214 22.3567 56.5002 22.602 56.816 22.9323C57.1366 23.2578 57.3843 23.6682 57.5592 24.1637C57.7389 24.6543 57.8288 25.2323 57.8288 25.8978V26.5682H52.1236C52.1285 26.947 52.1819 27.2919 52.2839 27.6028C52.3859 27.9088 52.5316 28.1711 52.7211 28.3897C52.9105 28.6083 53.1388 28.7783 53.406 28.8998C53.678 29.0164 53.984 29.0746 54.3241 29.0746C54.6689 29.0746 54.9604 29.0261 55.1984 28.9289C55.4364 28.8318 55.6356 28.7079 55.7959 28.5573C55.9562 28.4067 56.0849 28.2391 56.1821 28.0546C56.2841 27.87 56.3691 27.6878 56.4371 27.5081H57.7413ZM56.4808 25.4971C56.4711 25.1182 56.4128 24.7806 56.3059 24.4843C56.2039 24.188 56.0582 23.9402 55.8688 23.7411C55.6842 23.5371 55.4607 23.384 55.1984 23.282C54.9361 23.1752 54.6447 23.1217 54.3241 23.1217C54.018 23.1217 53.7363 23.1825 53.4789 23.3039C53.2214 23.4205 52.9955 23.5856 52.8012 23.7994C52.6069 24.0082 52.4515 24.2584 52.3349 24.5499C52.2183 24.8364 52.1479 25.1522 52.1236 25.4971H56.4808ZM67.3033 27.2531C67.2839 27.4425 67.245 27.649 67.1867 27.8724C67.1333 28.0958 67.0531 28.3193 66.9463 28.5427C66.8394 28.7613 66.701 28.9726 66.5309 29.1766C66.3658 29.3807 66.1618 29.5628 65.9189 29.7231C65.6809 29.8786 65.3991 30.0024 65.0737 30.0947C64.7482 30.1919 64.3766 30.2404 63.9589 30.2404C63.7306 30.2404 63.4901 30.2113 63.2375 30.153C62.9849 30.0996 62.7372 30.0073 62.4943 29.8761C62.2563 29.745 62.028 29.5774 61.8094 29.3734C61.5957 29.1645 61.4062 28.9071 61.2411 28.601C61.0808 28.295 60.9521 27.9404 60.8549 27.5372C60.7578 27.1292 60.7092 26.6629 60.7092 26.1383C60.7092 25.4922 60.8015 24.9117 60.9861 24.3968C61.1707 23.8771 61.416 23.4375 61.722 23.078C62.0329 22.7186 62.3923 22.4417 62.8004 22.2474C63.2132 22.0531 63.6456 21.9559 64.0973 21.9559C64.5053 21.9559 64.8648 21.9997 65.1757 22.0871C65.4914 22.1745 65.7659 22.2911 65.999 22.4368C66.2322 22.5826 66.4289 22.7526 66.5892 22.9469C66.7495 23.1363 66.8783 23.3379 66.9754 23.5516C67.0774 23.7605 67.1527 23.9742 67.2013 24.1928C67.2547 24.4114 67.2887 24.6203 67.3033 24.8194H66.05C65.982 24.29 65.7975 23.8747 65.4963 23.5735C65.2 23.2723 64.7822 23.1217 64.243 23.1217C63.8739 23.1217 63.5508 23.197 63.274 23.3476C63.0019 23.4982 62.7736 23.7095 62.5891 23.9815C62.4093 24.2487 62.2733 24.5741 62.181 24.9579C62.0936 25.3368 62.0499 25.7545 62.0499 26.2111C62.0499 26.726 62.0984 27.1705 62.1956 27.5445C62.2927 27.9137 62.4312 28.2197 62.6109 28.4626C62.7906 28.7006 63.0092 28.8779 63.2667 28.9945C63.529 29.1062 63.8253 29.1621 64.1556 29.1621C64.3888 29.1621 64.6098 29.1208 64.8187 29.0382C65.0275 28.9508 65.2145 28.8269 65.3797 28.6666C65.5449 28.5015 65.6857 28.2999 65.8023 28.0618C65.9189 27.8238 66.0015 27.5542 66.05 27.2531H67.3033ZM76.1937 26.0873C76.1937 25.6549 76.1452 25.2591 76.048 24.8996C75.9509 24.5353 75.8051 24.222 75.6108 23.9597C75.4214 23.6974 75.1834 23.4933 74.8968 23.3476C74.615 23.197 74.2871 23.1217 73.9131 23.1217C73.5391 23.1217 73.2088 23.197 72.9222 23.3476C72.6404 23.4933 72.4024 23.6974 72.2081 23.9597C72.0187 24.222 71.8754 24.5353 71.7782 24.8996C71.6811 25.2591 71.6325 25.6549 71.6325 26.0873C71.6325 26.5244 71.6811 26.9276 71.7782 27.2968C71.8754 27.6611 72.0187 27.9744 72.2081 28.2367C72.4024 28.499 72.6404 28.7055 72.9222 28.8561C73.2088 29.0018 73.5391 29.0746 73.9131 29.0746C74.2871 29.0746 74.615 29.0018 74.8968 28.8561C75.1834 28.7055 75.4214 28.499 75.6108 28.2367C75.8051 27.9744 75.9509 27.6611 76.048 27.2968C76.1452 26.9276 76.1937 26.5244 76.1937 26.0873ZM67.4356 22.1964H68.7763V25.4971H70.2845C70.338 24.9482 70.4594 24.4551 70.6489 24.018C70.8383 23.5808 71.0885 23.2092 71.3993 22.9032C71.7102 22.5971 72.077 22.364 72.4996 22.2037C72.9222 22.0385 73.3934 21.9559 73.9131 21.9559C74.4814 21.9559 74.9891 22.0531 75.436 22.2474C75.8828 22.4368 76.2617 22.7113 76.5726 23.0707C76.8884 23.4302 77.1288 23.8649 77.294 24.375C77.4591 24.885 77.5417 25.4558 77.5417 26.0873C77.5417 26.7285 77.4591 27.3065 77.294 27.8214C77.1288 28.3314 76.8884 28.7662 76.5726 29.1256C76.2617 29.4851 75.8828 29.762 75.436 29.9563C74.9891 30.1457 74.4814 30.2404 73.9131 30.2404C73.3836 30.2404 72.9028 30.1579 72.4704 29.9927C72.043 29.8227 71.6738 29.5798 71.3629 29.2641C71.052 28.9435 70.8043 28.5573 70.6197 28.1056C70.4351 27.649 70.3234 27.1365 70.2845 26.5682H68.7763V30H67.4356V22.1964ZM84.3628 30H78.3298V31.909H77.0765V28.8342H78.1039C78.3176 28.3096 78.4876 27.7753 78.6139 27.2312C78.7402 26.6823 78.8374 26.131 78.9054 25.5772C78.9734 25.0186 79.0171 24.4576 79.0365 23.8941C79.056 23.3306 79.0657 22.7647 79.0657 22.1964H84.5158V28.8342H85.6161V31.909H84.3628V30ZM83.1752 28.8342V23.3622H80.3481C80.3141 23.8042 80.2776 24.2584 80.2388 24.7247C80.2048 25.191 80.1562 25.6598 80.0931 26.131C80.0348 26.5973 79.9546 27.0588 79.8526 27.5154C79.7555 27.972 79.6267 28.4116 79.4664 28.8342H83.1752ZM85.6974 24.5353C85.712 24.0592 85.8018 23.6585 85.967 23.333C86.1321 23.0027 86.3556 22.7356 86.6373 22.5316C86.9191 22.3275 87.2518 22.1818 87.6355 22.0944C88.0241 22.0021 88.4467 21.9559 88.9034 21.9559C89.2822 21.9559 89.649 21.9948 90.0036 22.0725C90.363 22.1502 90.6812 22.2765 90.9581 22.4514C91.235 22.6214 91.456 22.8449 91.6211 23.1217C91.7912 23.3938 91.8762 23.7265 91.8762 24.12V28.6593C91.8762 28.7856 91.9102 28.8949 91.9782 28.9872C92.0462 29.0746 92.1555 29.1184 92.3061 29.1184C92.3741 29.1184 92.4445 29.1135 92.5174 29.1038C92.5902 29.0892 92.6655 29.0746 92.7432 29.0601V29.9854C92.6315 30.0146 92.5198 30.0413 92.4081 30.0656C92.3012 30.0899 92.1725 30.102 92.0219 30.102C91.7887 30.102 91.5871 30.0826 91.4171 30.0437C91.252 30.0049 91.1111 29.9417 90.9945 29.8543C90.8828 29.762 90.7954 29.6454 90.7322 29.5045C90.6691 29.3588 90.6278 29.1815 90.6083 28.9726C90.4432 29.1524 90.2683 29.3199 90.0837 29.4754C89.8991 29.626 89.6927 29.7596 89.4644 29.8761C89.2361 29.9879 88.9811 30.0753 88.6993 30.1384C88.4176 30.2064 88.0994 30.2404 87.7448 30.2404C87.4437 30.2404 87.1498 30.1919 86.8632 30.0947C86.5815 29.9976 86.3264 29.8543 86.0981 29.6648C85.8747 29.4754 85.695 29.2422 85.5589 28.9653C85.4229 28.6836 85.3549 28.3582 85.3549 27.989C85.3549 27.5858 85.4229 27.2385 85.5589 26.947C85.695 26.6507 85.8723 26.4054 86.0908 26.2111C86.3094 26.012 86.5596 25.859 86.8413 25.7521C87.1231 25.6452 87.4097 25.5748 87.7011 25.5408L89.8943 25.2712C90.1032 25.2469 90.2659 25.1668 90.3825 25.0307C90.5039 24.8899 90.5646 24.6664 90.5646 24.3604C90.5646 23.8892 90.4092 23.5516 90.0983 23.3476C89.7923 23.1387 89.3502 23.0343 88.7722 23.0343C88.1796 23.0343 87.7375 23.1606 87.4461 23.4132C87.1546 23.6609 86.9895 24.035 86.9506 24.5353H85.6974ZM90.5355 26.029C90.4286 26.1067 90.295 26.1723 90.1347 26.2257C89.9793 26.2743 89.8069 26.3156 89.6174 26.3496C89.428 26.3836 89.2264 26.4151 89.0126 26.4443C88.7989 26.4686 88.5852 26.4953 88.3715 26.5244C88.1286 26.5584 87.9051 26.607 87.7011 26.6702C87.4971 26.7333 87.3198 26.8159 87.1692 26.9179C87.0186 27.0199 86.902 27.1438 86.8195 27.2895C86.7369 27.4304 86.6956 27.598 86.6956 27.7923C86.6956 28.0157 86.7296 28.2124 86.7976 28.3824C86.8705 28.5525 86.9676 28.6958 87.0891 28.8123C87.2154 28.9289 87.3659 29.0164 87.5408 29.0746C87.7157 29.1329 87.9076 29.1621 88.1164 29.1621C88.2476 29.1621 88.3982 29.1475 88.5682 29.1184C88.7382 29.0844 88.9131 29.0358 89.0928 28.9726C89.2725 28.9095 89.4474 28.8293 89.6174 28.7322C89.7923 28.6302 89.9477 28.5087 90.0837 28.3679C90.2197 28.227 90.329 28.0667 90.4116 27.887C90.4942 27.7072 90.5355 27.5057 90.5355 27.2822V26.029ZM93.116 28.4116H94.6388V30H93.116V28.4116Z" fill="#FF0165"/>
</svg>
