<svg width="507" height="396" viewBox="0 0 507 396" fill="none" xmlns="http://www.w3.org/2000/svg">
<path d="M193.413 243.341C182.173 242.07 166.839 231.823 158.588 225.253C154.546 222.034 156.369 225.253 149.835 214.351C149.835 207.433 151.433 194.391 151.433 187.59C151.433 180.528 149.835 173.467 149.835 166.405C149.835 157.794 145.566 154.869 139.714 148.564C137.095 145.743 139.878 132.123 139.714 127.627C139.424 119.676 137.522 111.908 137.522 103.964C137.522 90.5361 133.959 75.3241 139.47 62.7081C145.264 49.444 144.018 37.1429 155.057 25.9125C165.437 15.3511 181.339 13.1602 194.509 7.20494C201.84 3.88967 216.041 5.01205 223.855 6.08993C234.643 7.57834 244.791 9.12895 254.783 13.6473C260.888 16.4078 266.563 16.7484 272.229 20.7399C275.051 22.7273 278.22 26.7708 281.085 28.3903C287.217 31.8565 293.656 37.5883 298.619 42.6378C309.18 53.3827 310.124 53.0942 326.26 76.0883C333.443 86.3229 338.693 100.078 339.168 112.636C339.705 126.843 339.775 138.564 335.636 152.777C334.585 156.387 332.338 156.472 332.338 160.213C332.338 163.383 329.39 167.102 327.982 169.395C319.672 174.723 322.32 175.078 317.528 178.576C314.192 181.783 310.124 181.637 307.386 196.939C307.386 199.574 307.227 199.71 307.386 202.623C307.644 207.346 305.668 210.056 307.386 217.052C313.416 241.592 312.698 247.801 320.537 247.801C350.429 247.801 371.81 262.02 398.346 274.809C412.908 281.827 428.584 295.457 438.651 308.26C440.217 310.252 441.513 311.567 443.278 313.587C445.193 315.779 444.248 319.282 445.713 321.145C450.549 327.295 447.049 342.686 449.001 350.135C450.929 357.492 452.705 367.376 453.141 374.913C453.3 377.654 456.916 380.323 455.089 383.833C453.816 386.28 445.463 386.007 443.034 386.063C436.551 386.213 431.726 390.524 425.135 390.524C420.979 390.524 416.743 390.758 412.593 390.524C409.652 390.357 407.741 387.338 404.921 387.178C400.605 386.934 396.166 386.063 391.527 386.063C348.994 386.063 307.126 383.833 264.646 383.833C241.916 383.833 220.534 376.028 198.04 376.028C178.541 376.028 160.288 380.488 140.81 380.488C133.504 380.488 126.198 380.488 118.892 380.488C109.157 380.488 101.652 382.739 92.2249 384.701C88.979 385.376 84.9009 386.063 81.6312 386.063C78.6313 386.063 76.866 383.998 73.96 383.833C69.5177 383.582 59.4644 384.34 55.3297 382.471C48.8953 379.561 19.165 383.887 19.165 372.683C19.165 356.262 23.423 337.724 29.1831 331.166C34.9431 324.608 38.7656 323.296 47.0413 314.114C51.6266 312.041 50.8488 310.27 55.3297 307.556C59.8597 304.813 63.4036 300.761 68.3841 298.812C76.397 295.676 87.7714 284.498 95.3893 280.011C103.809 275.052 115.368 269.854 125.008 267.332C141.469 263.025 147.222 261.648 165.516 255.964C183.809 252.904 196.04 249.362 201.232 243.341C206.21 243.341 205.782 241.867 191.221 245.571" stroke="black" stroke-width="9" stroke-linecap="round"/>
<path d="M215.748 242.164C215.302 240.921 214.927 240.409 213.805 239.626C207.94 235.538 201.716 231.993 195.87 227.875C192.105 225.223 188.191 222.801 184.398 220.19C180.999 217.851 177.428 215.279 174.237 212.787C173.287 212.046 172.081 212.143 171.076 211.495C169.951 210.769 167.688 209.993 166.955 209.074C166.014 207.892 166.731 201.849 166.955 200.519C167.539 197.07 168.341 193.646 168.969 190.178C169.618 186.597 169.475 183.195 169.835 179.579C170.262 175.295 170.233 170.979 170.233 166.63C170.233 164.029 170.233 161.428 170.233 158.827C170.233 156.218 170.183 152.819 169.484 157.652C168.164 166.777 168.352 176.19 168.126 185.384C168.107 186.149 167.705 192.072 167.705 188.58C167.705 185.683 167.66 182.781 167.705 179.885C167.791 174.224 168.97 168.08 168.103 162.423C167.764 160.215 166.932 158.193 166.464 156.077C166.067 154.286 164.754 152.564 164.122 150.789C163.478 148.977 163.207 148.094 162.226 146.371C161.528 145.145 159.303 144.499 158.527 143.175C157.505 141.431 158.796 138.884 158.855 136.829C158.979 132.448 159.697 128.3 159.697 123.903C159.697 118.614 158.422 113.085 158.012 107.734C157.881 106.031 156.421 104.178 156.326 102.564C156.168 99.8686 155.262 97.1453 155.062 94.432C154.909 92.364 153.83 90.7606 153.399 88.8151C152.858 86.3684 153.476 83.4064 153.774 81.0125C154.134 78.118 154.172 75.2174 154.617 72.3168C154.886 70.5597 154.199 65.2682 155.694 64.0677C157.374 62.7185 157.19 57.9623 158.527 56.03C159.687 54.3525 160.348 51.3819 161.711 50.0136C163.677 48.0397 165.459 45.1497 167.19 42.916C168.892 40.7194 170.831 38.9317 172.762 36.9936C176.612 33.1289 182.385 31.5597 186.693 28.5329C189.534 26.5367 193.346 25.7412 196.69 25.0547C200.542 24.2636 204.195 23.0591 208.069 22.2814C215.764 20.7366 222.993 20.0723 230.896 20.0723C237.507 20.0723 244.117 20.0723 250.727 20.0723C255.859 20.0723 261.277 21.7589 265.899 23.8796C273.71 27.4641 282.524 26.8707 289.733 32.2462C292.376 34.2172 294.353 37.1056 296.827 39.2968C299.898 42.0163 301.382 45.0949 303.64 48.392C308.144 54.9673 310.802 62.6863 313.731 70.2016C317.25 79.2288 322.187 87.9385 322.371 97.9103C322.419 100.511 322.936 103.397 323.424 105.948C324.089 109.415 323.635 113.209 323.635 116.735C323.635 122.303 323.239 127.534 322.394 133.045C320.003 148.648 310.753 161.609 303.921 175.325C302.922 177.331 300.818 178.477 299.403 180.214C299.085 180.603 298.025 182.779 298.162 182.681C299.832 181.484 301.302 180.087 302.587 178.474C308.289 171.319 315.312 165.678 320.474 158.192C323.477 153.838 326.164 146.048 326.164 140.731C326.164 136.97 329.878 124.984 323.214 124.984" stroke="black" stroke-width="38" stroke-linecap="round"/>
<path d="M292.871 185.903C295.017 206.158 295.533 226.569 298.443 246.726C298.86 249.615 299.655 252.395 300.011 255.257C300.177 256.586 300.101 256.231 300.011 255.022C299.8 252.154 298.892 249.102 298.256 246.303C294.143 228.226 289.934 210.185 286.128 192.037C284.025 182.011 281.937 172.001 279.408 162.073C277.891 156.117 276.593 149.515 273.485 144.117C272.217 141.917 270.751 143.149 270.207 145.151C267.559 154.897 269.27 166.614 269.27 176.526C269.27 190.052 270.211 203.433 271.377 216.902C272.231 226.756 273.025 236.816 276.341 246.209C276.359 246.259 278.5 251.076 278.87 249.922C280.236 245.654 277.914 239.49 277.043 235.422C271.725 210.572 266.363 185.88 261.895 160.851C261.527 158.788 253.592 123.554 247.777 128.841C246.296 130.188 245.995 132.95 245.67 134.764C244.896 139.087 244.396 143.492 244.172 147.878C243.378 163.368 244.479 179.107 246.536 194.458C246.943 197.491 251.523 235.897 259.39 233.189C261.263 232.544 259.622 222.724 259.484 221.485C258.074 208.906 254.147 196.394 250.259 184.399C246.216 171.925 241.616 159.668 235.766 147.925C232.149 140.663 228.352 132.226 223.006 126.021C220.174 122.734 219.758 127.769 219.635 130.016C218.81 145.008 220.316 160.874 223.217 175.563C225.91 189.198 229.565 202.832 234.034 215.986C236.413 222.988 238.584 231.312 243.891 236.808C245.329 238.298 246.568 238.745 246.513 236.291C246.389 230.744 243.926 224.482 242.111 219.323C233.998 196.263 221.107 174.669 209.474 153.259C208.224 150.96 205.755 144.799 202.52 144.517C199.137 144.222 202.195 159.117 202.356 160.098C204.352 172.286 208.288 184.147 212.47 195.727C217.23 208.906 222.245 222.606 229.375 234.717C229.602 235.103 235.123 243.677 236.141 241.18C236.731 239.731 236.303 237.51 236.094 236.056C235.25 230.192 233.195 224.447 231.341 218.853C225.483 201.176 219.318 183.565 213.079 166.021C209.694 156.5 206.204 146.905 201.185 138.101C199.606 135.33 197.656 132.475 194.723 131.003C186.259 126.755 185.65 149.102 185.499 152.907C185.021 164.892 186.247 177.998 191.516 188.982C192.124 190.25 201.185 211.579 201.185 210.057C201.185 204.356 193.085 177.548 192.897 171.849C192.632 163.809 192.898 155.718 192.476 147.69C192.312 144.573 191.934 136.033 187.278 136.033C177.48 136.033 178.929 160.405 179.177 165.927C179.413 171.179 180.268 176.889 183.391 181.297C185.158 183.791 188.11 184.621 189.83 181.744C192.671 176.991 192.744 170.174 193.178 164.822C194.185 152.415 194.318 139.966 194.255 127.525C194.193 115.164 193.188 102.798 191.305 90.5801C190.549 85.6751 189.604 80.8108 188.168 76.056C187.256 73.0367 186.287 68.3339 183.555 66.3028C177.028 61.4493 175.22 81.3798 174.963 83.7176C174.027 92.2106 173.873 101.127 174.12 109.664C174.3 115.89 174.25 123.76 178.03 129.1C183.986 137.514 186.954 107.005 187.091 105.856C188.408 94.8072 189.865 83.7424 190.017 72.6012C190.113 65.5567 191.006 57.6676 187.512 51.2381C186.284 48.9785 184.127 47.4994 181.472 48.1829C176.829 49.3777 175.639 60.0294 174.869 63.3415C172.602 73.0936 171.24 82.7445 171.1 92.7658C171.001 99.7796 171.083 107.763 176.133 113.283C178.782 116.178 183.422 116.321 186.576 114.129C192.541 109.984 195.252 100.528 197.392 94.0349C201.095 82.8044 204 70.6341 204.51 58.7822C204.824 51.4798 205.247 41.6223 200.483 35.3979C195.474 28.8532 187.074 34.4417 183.11 39.1817C179.266 43.7793 177.839 50.0507 177.047 55.868C175.925 64.1033 175.838 73.7644 179.692 81.3204C184.112 89.9839 196.624 102.846 207.226 95.9385C212.982 92.1887 216.788 84.4891 219.354 78.3592C222.874 69.9506 225.035 61.437 224.528 52.2722C224.16 45.6197 221.033 37.1054 216.708 31.9666C212.422 26.8744 208.631 27.6423 204.697 32.8127C199.523 39.6138 198.372 50.0525 198.142 58.3356C197.842 69.0844 200.095 79.8183 204.018 89.8046C206.378 95.8096 210.449 105.476 217.012 108.042C225.762 111.463 232.299 103.319 235.883 96.5496C244.028 81.1691 247.71 63.4793 244.757 46.1382C243.177 36.858 234.921 18.7035 224.177 31.7786C219.108 37.9468 217.688 47.0638 216.685 54.7164C214.652 70.2204 215.035 85.8244 217.972 101.179C219.56 109.477 221.676 124.07 231.177 127.548C240.026 130.788 249.28 118.421 252.998 111.967C263.627 93.5156 273.027 66.4552 263.698 45.6447C262.172 42.2414 259.611 37.2547 255.363 36.761C248.696 35.9861 246.051 46.7454 245.295 51.3321C243.464 62.4484 243.696 74.0548 244.265 85.2687C245.091 101.548 247.539 118.748 252.975 134.152C254.828 139.403 258.328 146.811 265.056 146.279C271.552 145.766 275.331 138.529 277.231 133.142C280.309 124.413 281.954 115.231 283.388 106.115C285.208 94.5454 286.772 82.4055 285.238 70.6976C284.882 67.9829 283.974 57.1843 278.542 59.2757C276.685 59.9907 275.597 62.2979 274.796 63.9291C272.322 68.9678 270.852 74.2554 270.16 79.8163C268.773 90.9565 268.823 102.624 269.973 113.776C271.075 124.47 272.525 137.607 279.057 146.608C288.795 160.028 299.728 139.607 302.54 131.732C306.359 121.039 307.152 109.383 307.152 98.1007C307.152 93.2865 306.681 84.9285 301.814 82.1195C298.551 80.2358 295.379 83.8696 293.713 86.2558C288.105 94.289 287.54 106.03 287.415 115.492C287.3 124.266 288.103 132.922 290.787 141.321C292.146 145.575 296.551 153.376 302.048 148.724C306.074 145.317 307.51 138.255 308.276 133.353C309.988 122.405 308.827 110.329 306.754 99.5578C303.902 84.7382 297.552 65.7078 281.726 60.3568C268.302 55.8178 253.84 58.6544 249.299 73.2123C247.2 79.9403 246.999 87.0497 247.613 94.0349C247.889 97.1745 248.556 99.9142 250.587 102.402C253.143 105.533 255.141 104.97 258.734 104.681" stroke="black" stroke-width="38" stroke-linecap="round"/>
<path d="M182.717 138.331C181.556 137.295 178.475 138.056 177.343 138.186C170.713 138.945 166.698 139.238 162.432 144.041C158.618 148.337 156.111 157.11 160.738 161.755C164.193 165.223 171.168 164.136 175.528 164.136C177.942 164.136 185.131 163.261 182.717 163.261" stroke="white" stroke-width="9" stroke-linecap="round"/>
<path d="M182.717 163.262C182.717 155.676 183.588 132.932 183.588 140.519" stroke="white" stroke-width="9" stroke-linecap="round"/>
<path d="M180.069 149.051C172.149 152.986 176.154 151.323 175.973 153.505C175.877 154.658 183.028 164.193 183.601 163.042C185.343 140.745 183.601 137.247 171.931 147.868C169.139 150.761 168.837 159.708 174.206 160.381C177.974 160.854 177.716 152.809 177.716 150.37C177.716 147.152 174.821 144.482 171.616 144.66C167.685 144.88 166.33 150.81 166.387 153.845C166.464 157.922 171.397 160.152 174.133 156.907C176.836 153.701 177.771 147.814 172.149 147.722C168.272 147.658 164.645 150.379 164.645 154.501C164.645 159.094 173.136 160.058 176.167 158.17C178.627 156.638 185.007 144.115 181.859 141.181M181.859 141.181C176.353 136.049 173.55 145.329 170.962 148.378C169.324 150.308 165.84 155.475 170.406 156.372C175.418 157.356 181.754 146.013 181.859 141.181ZM181.859 141.181C181.859 138.653 174.107 144.541 171.713 146.944C171.605 147.053 169.391 149.86 170.575 149.86C172.313 149.86 174.398 147.554 175.537 146.41" stroke="white" stroke-width="9" stroke-linecap="round"/>
<path d="M158.316 94.5938C157.515 102.63 156.947 110.732 157.275 118.892C157.363 121.091 159.826 128.056 162.891 127.372C163.891 127.149 164.611 123.336 164.852 122.488C165.872 118.904 165.723 115.342 165.723 111.651C165.723 106.75 165.811 100.364 163.327 95.9302C161.459 92.5963 159.623 98.2148 159.623 99.6478C159.623 104.378 159.623 109.108 159.623 113.838C159.623 114.399 158.895 122.709 161.148 121.2C163.639 119.533 162.237 109.806 162.237 107.278C162.237 104.821 162.495 102.238 161.899 99.8422C161.458 98.0743 161.369 99.4048 160.059 99.4048" stroke="white" stroke-width="9" stroke-linecap="round"/>
<path d="M198.011 94.1914C197.211 102.228 196.643 110.33 196.97 118.49C197.059 120.689 199.522 127.654 202.586 126.97C203.586 126.747 204.306 122.933 204.547 122.086C205.567 118.501 205.419 114.94 205.419 111.249C205.419 106.347 205.507 99.9619 203.022 95.5278C201.154 92.194 199.319 97.8125 199.319 99.2455C199.319 103.976 199.319 108.706 199.319 113.436C199.319 113.997 198.59 122.306 200.844 120.798C203.335 119.131 201.933 109.403 201.933 106.875C201.933 104.418 202.191 101.836 201.594 99.4399C201.154 97.6719 201.064 99.0025 199.754 99.0025" stroke="white" stroke-width="9" stroke-linecap="round"/>
<path d="M169.436 182.512C176.52 186.418 174.742 185.381 176.52 186.418C182.787 190.074 188.873 194.19 195.57 196.94C195.57 196.94 193.05 198.621 192.158 199.248C188.6 201.749 187.458 202.791 185.113 204.569C181.416 207.373 179.018 209.091 173.664 212.806C169.436 215.74 173.664 212.806 169.436 215.74" stroke="white" stroke-width="9" stroke-linecap="round"/>
<path fill-rule="evenodd" clip-rule="evenodd" d="M507 395.001C507 310.486 393.504 241.974 253.5 241.974C113.496 241.974 0 310.486 0 395.001H507Z" fill="black"/>
</svg>
