<svg width="197" height="98" viewBox="0 0 197 98" fill="none" xmlns="http://www.w3.org/2000/svg">
<path d="M43.1626 30.652C40.5284 30.4117 37.8793 31.1849 35.2441 30.5542C32.0104 29.7803 27.9371 25.0957 25.7333 21.6402C23.7436 18.5203 23.2114 14.172 21.5122 10.8205C20.594 9.00938 22.8233 15.1102 22.9774 17.4941C23.2403 21.5604 23.7086 25.6468 23.3299 29.798C22.8534 35.0209 20.038 40.8815 16.5966 41.9698C13.2277 43.0352 9.71274 43.8524 6.33696 43.7895C5.9918 43.783 0.608189 42.929 0.544377 43.6285C0.483743 44.2931 4.18362 44.2911 4.44544 44.315C8.29925 44.6666 12.3449 45.6625 15.606 48.7868C18.2658 51.3352 20.508 55.662 22.7898 58.9583C26.9585 64.9803 30.4444 73.694 32.7973 81.8794C34.0991 86.4084 34.4107 91.9325 35.8403 96.2658C35.9687 96.655 35.7966 97.7556 35.9118 96.4928C36.1578 93.7963 36.4038 91.0999 36.6498 88.4035C37.3413 80.8232 39.07 74.7298 42.3895 68.6825C46.0831 61.9535 53.0698 53.9407 58.7055 53.2698C62.1877 52.8552 66.1474 53.6666 69.5285 54.3673C73.1487 55.1177 72.2119 56.1059 73.7579 60.044C74.5573 62.0803 75.3478 72.497 76.4755 65.6194C77.5341 59.1641 79.964 52.6327 83.2795 48.1265C85.4361 45.1952 87.7317 45.2994 90.2912 45.5329C94.2829 45.897 98.9431 45.2933 102.786 46.7462C103.798 47.1289 104.184 50.4722 104.489 51.8249C105.205 55.005 106.001 58.0302 107.145 60.8485C107.656 62.1055 109.257 68.6095 109.627 66.9903C111.377 59.3315 114.854 51.4923 118.98 46.313C121.415 43.2561 126.551 42.8459 129.445 42.4913C134.035 41.9288 138.13 41.4016 142.476 43.3861C147.336 45.6053 151.613 48.8153 155.554 53.6176C156.131 54.3203 160.594 61.374 160.894 58.7342C161.609 52.4601 163.725 43.8399 168.261 42.3949C175.952 39.9449 183.551 38.4058 190.905 41.4845C192.618 42.2017 197.643 44.8406 195.986 43.8953C194.834 43.2383 194.055 42.146 192.943 41.6337C191.479 40.9598 190.283 38.1481 189.28 36.5599C186.998 32.9442 185.272 29.3333 184.265 24.345C183.181 18.9767 183.349 12.6627 183.872 6.93041C184.062 4.84082 182.201 10.3986 181.411 12.1804C179.833 15.7369 178.828 17.3155 176.026 18.1557C167.016 20.8583 160.378 19.8196 152.213 15.4689C149.793 14.1798 147.322 13.0076 145.396 10.3646C144.762 9.49393 144.342 9.09122 144.401 7.62847C144.446 6.53704 143.829 6.80279 143.483 6.07503C143.217 5.51486 142.521 2.07296 142.511 1.32018C142.496 0.143294 142.645 0.256918 142.455 1.42533C142.14 3.37161 141.356 5.09129 140.739 6.85345C139.872 9.33052 137.857 16.4281 135.792 16.6164C134.766 16.7099 133.749 17.8465 132.701 18.1714C127.038 19.9264 121.298 21.1949 115.616 22.5649C109.965 23.9273 104.354 25.8387 98.7095 27.2687C96.6569 27.7888 93.3472 28.9489 91.4143 27.4115C90.303 26.5276 89.8328 24.4085 89.0507 23.0074C88.2284 21.534 87.0955 20.331 86.1378 19.0675C84.7845 17.2821 83.5678 15.6559 82.4798 13.443C81.8104 12.0814 80.8674 8.38319 80.8617 8.44548C80.2791 14.8315 78.9053 22.4107 74.7712 24.938C65.2653 30.7491 58.9304 29.7061 50.6281 22.0741C49.1414 20.7075 47.555 18.9966 46.7839 16.4694C46.5634 15.7464 46.4031 13.3184 46.3273 14.1498C46.0436 17.2592 45.7599 20.3686 45.4763 23.478C45.1017 27.584 44.1814 27.583 42.3997 29.921" stroke="black" stroke-width="0.91061" stroke-linecap="round"/>
</svg>
