<svg width="171" height="70" viewBox="0 0 171 70" fill="none" xmlns="http://www.w3.org/2000/svg">
<path d="M48.1869 16.7396C47.8504 13.3863 42.1064 11.2395 39.4696 10.5683C34.323 9.25832 28.535 9.35383 23.4114 10.4769C22.3075 10.7189 21.5574 11.295 20.6127 11.894C18.3427 13.3333 16.0487 14.6111 13.6847 15.9168C10.5602 17.6425 3.89402 20.5981 2.35216 24.2366C1.32404 26.6627 2.01627 29.8938 1.93923 32.4649C1.80123 37.0713 0.118628 41.8606 1.61807 46.4532C2.96227 50.5703 7.21832 54.8705 10.2207 57.904L10.2436 57.9272C14.1309 61.8548 19.0685 65.2487 24.3749 66.887C27.4688 67.8422 30.8245 68.4436 33.9639 68.9441C36.3316 69.3215 38.2383 67.7083 40.1578 66.5213C46.0306 62.8894 54.9263 62.4118 56.3537 54.5901C56.8076 52.1028 56.4448 50.7058 57.5924 48.4188C58.0793 47.4487 57.0886 46.5506 58.1889 47.6874C60.5301 50.1065 62.6337 52.9126 65.2545 55.0015C67.6514 56.912 70.9436 58.3329 73.7424 59.5957L73.7501 59.5992C80.2609 62.5367 87.9963 66.0268 95.2146 63.2299C100.037 61.3614 105.101 58.4046 107.442 53.5616C108.764 50.825 110.435 48.3757 111.732 45.6075C112.02 44.9916 112.421 41.8265 113.246 42.499C116.072 44.8031 118.456 48.024 122.33 48.7388C130.809 50.3033 139.307 53.2246 148.023 52.9445C150.094 52.8779 152.846 50.0187 154.63 48.9217C156.683 47.6597 159.631 45.7682 160.916 43.6875C162.393 41.2956 164.409 39.4462 165.687 36.8991C166.678 34.9248 167.527 33.0012 168.348 30.9564C168.987 29.3644 169.174 28.0968 169.174 26.408C169.174 24.5128 170 22.7263 170 20.8538M47.3611 15.5053C48.1227 15.3367 49.1902 14.204 49.6322 13.6082C50.8117 12.0182 52.2999 10.7634 53.5549 9.24261C55.7564 6.57489 58.071 4.1925 61.3776 2.95705C68.4181 0.326485 77.4396 0.171997 84.2032 3.57418C89.07 6.02224 95.1522 6.87335 99.2979 10.6597C99.8826 11.1937 100.195 12.3335 100.422 13.0368C101.083 15.0855 102.27 16.5992 103.45 18.3624C104.541 19.9933 104.177 22.9412 104.849 24.8765C105.353 26.325 105.803 27.5726 106.019 29.0821C106.337 31.2941 109.28 26.322 109.69 25.7908C112.911 21.6192 114.747 16.3445 118.476 12.534C120.494 10.4718 122.805 8.96835 125.083 7.36837C129.905 3.98132 136.312 4.74369 141.623 2.97991C142.782 2.59488 143.746 2.87003 144.903 3.16276C147.07 3.71091 149.259 3.7423 151.418 4.39701C154.264 5.26 157.266 5.5255 159.585 7.59694C160.731 8.62024 163.055 9.07514 163.806 10.3854C164.25 11.1587 165.12 12.7874 165.871 13.0368" stroke="black" stroke-width="0.648208" stroke-linecap="round"/>
</svg>
