<svg width="313" height="93" viewBox="0 0 313 93" fill="none" xmlns="http://www.w3.org/2000/svg">
<path d="M67.5863 25.88C63.3863 25.4969 59.2173 26.1315 54.995 25.356C49.8134 24.4044 43.0872 19.4778 39.3986 15.8868C36.0684 12.6447 34.9885 8.24637 32.1076 4.78705C30.5508 2.9177 34.4222 9.16832 34.7953 11.5722C35.4318 15.6725 36.3958 19.8042 36.0171 23.9554C35.5407 29.1783 31.3809 34.9162 25.9694 35.8248C20.6721 36.7143 15.1291 37.3465 9.76008 37.1018C9.21111 37.0767 0.608189 35.929 0.544377 36.6285C0.483743 37.2931 6.36441 37.4901 6.78185 37.5282C12.9262 38.0887 19.4102 39.307 24.7614 42.6221C29.1262 45.3259 32.9227 49.7946 36.7268 53.2297C43.6765 59.5054 49.6858 68.4494 53.8658 76.8014C56.1785 81.4227 56.9707 86.9906 59.4761 91.422C59.7012 91.82 59.4867 92.9167 59.6019 91.6539C59.8479 88.9575 60.0939 86.2611 60.3399 83.5646C61.0314 75.9843 63.4515 69.9541 68.4024 64.0555C73.9114 57.4922 84.5856 49.8157 93.5071 49.4446C99.0198 49.2153 105.357 50.2435 110.769 51.1295C116.563 52.0782 115.128 53.0209 117.797 57.0614C119.177 59.1508 120.993 69.661 122.416 62.8104C123.751 56.3803 127.262 49.9476 132.29 45.5975C135.56 42.7678 139.214 42.996 143.295 43.3682C149.659 43.9488 157.034 43.5928 163.22 45.2594C164.85 45.6983 165.643 49.0788 166.2 50.4546C167.51 53.6887 168.937 56.7716 170.908 59.6653C171.787 60.9559 174.682 67.5779 175.182 65.9707C177.551 58.3684 182.657 50.6777 188.936 45.6948C192.642 42.7539 200.785 42.6179 205.365 42.4171C212.63 42.0988 219.11 41.7891 226.125 44.0171C233.97 46.5085 240.94 49.9643 247.462 55.002C248.416 55.7392 255.89 63.0675 256.225 60.4309C257.023 54.1644 259.924 45.6157 267.056 44.4076C279.149 42.3591 291.144 41.2211 302.999 44.7104C305.76 45.5232 313.888 48.4452 311.203 47.4062C309.337 46.684 308.041 45.5445 306.245 44.9698C303.882 44.2139 301.83 41.3241 300.151 39.6742C296.329 35.918 293.392 32.1966 291.522 27.1297C289.511 21.6768 289.438 15.3408 289.961 9.60853C290.152 7.51894 287.493 13.0039 286.332 14.752C284.016 18.2411 282.502 19.7733 278.095 20.4671C263.919 22.6984 253.311 21.2975 240.1 16.4865C236.185 15.061 232.193 13.7501 228.991 10.9906C227.936 10.0816 227.246 9.65428 227.263 8.18757C227.275 7.09318 226.308 7.32705 225.719 6.57712C225.266 5.99988 223.975 2.50369 223.919 1.74668C223.831 0.563188 224.074 0.685385 223.836 1.84935C223.44 3.78824 222.285 5.47417 221.399 7.2118C220.154 9.65438 217.333 16.6784 214.062 16.7566C212.436 16.7955 210.881 17.8829 209.232 18.153C200.326 19.6121 191.271 20.5782 182.312 21.6494C173.403 22.7145 164.588 24.3337 155.694 25.4671C152.459 25.8794 147.261 26.8672 144.106 25.2184C142.292 24.2703 141.431 22.1155 140.112 20.6655C138.726 19.1407 136.861 17.8708 135.27 16.5496C133.023 14.6828 131.002 12.9832 129.154 10.7009C128.017 9.29664 126.319 5.52954 126.313 5.59183C125.73 11.9779 123.955 19.5204 117.519 21.8377C102.723 27.1662 92.5976 25.7774 78.9911 17.6616C76.5546 16.2083 73.9411 14.4037 72.5796 11.8226C72.1901 11.0842 71.8048 8.63569 71.729 9.46706C71.4453 12.5765 71.1617 15.6859 70.878 18.7953C70.5034 22.9013 69.0405 22.8508 66.3343 25.1045" stroke="black" stroke-width="0.91061" stroke-linecap="round"/>
</svg>
