<svg width="303" height="251" viewBox="0 0 303 251" fill="none" xmlns="http://www.w3.org/2000/svg">
<mask id="path-1-outside-1_293_56" maskUnits="userSpaceOnUse" x="0" y="0" width="303" height="251" fill="black">
<rect fill="white" width="303" height="251"/>
<path d="M15.7075 88.7903L23.3925 88.9248C24.2598 88.9248 25.0767 88.3869 25.8432 87.3112C26.6298 86.2355 27.3055 84.6219 27.8703 82.4704C28.4553 80.2292 28.9192 77.4951 29.2621 74.2678C29.605 71.0406 29.7764 67.2755 29.7764 62.9726C29.7764 57.5042 29.5344 52.9771 29.0503 49.3913C28.5662 45.8055 27.9409 42.9817 27.1744 40.9199C26.408 38.858 25.5507 37.4237 24.6027 36.6169C23.6547 35.8101 22.7067 35.4067 21.7586 35.4067C20.5282 35.4067 19.4491 35.9894 18.5213 37.1548C17.6136 38.2305 16.8269 39.6648 16.1613 41.4577C15.5158 43.2506 14.9712 45.2677 14.5275 47.5088C14.1039 49.6603 13.7711 51.8566 13.529 54.0977C13.287 56.2492 13.1155 58.311 13.0147 60.2832C12.9138 62.1658 12.8634 63.6897 12.8634 64.8551H4.301C4.301 62.0761 4.3716 58.6248 4.51279 54.5011C4.67416 50.3774 4.97672 46.0296 5.42047 41.4577C5.86422 36.8858 6.48951 32.3139 7.29633 27.742C8.12333 23.1701 9.21254 19.0465 10.564 15.371C11.9154 11.6956 13.5593 8.73729 15.4957 6.49616C17.4522 4.16539 19.7819 3 22.4848 3C25.3288 3 27.7695 4.70326 29.8067 8.10977C31.8641 11.4266 33.5483 15.7296 34.8594 21.0187C36.1705 26.2181 37.1387 32.045 37.764 38.4995C38.3893 44.9539 38.7019 51.2739 38.7019 57.4594C38.7019 60.9555 38.6011 64.631 38.3994 68.4857C38.2178 72.3405 37.8648 76.1056 37.3404 79.781C36.8361 83.4565 36.1403 86.863 35.2527 90.0006C34.3854 93.1381 33.2559 95.693 31.8641 97.6652V98.2031C32.3078 98.741 32.8222 99.4133 33.4071 100.22C33.9921 101.027 34.5871 102.192 35.1922 103.716C35.8175 105.151 36.4226 107.033 37.0076 109.364C37.6127 111.695 38.1472 114.608 38.6111 118.104C39.0751 121.6 39.4482 125.814 39.7306 130.744C40.0332 135.585 40.1845 141.278 40.1845 147.822C40.1845 156.428 39.771 164.54 38.944 172.16C38.117 179.78 36.9067 186.459 35.3133 192.196C33.74 197.844 31.7834 202.326 29.4436 205.643C27.124 208.96 24.4615 210.618 21.4561 210.618C19.9231 210.618 18.4002 210.215 16.8874 209.408C15.3746 208.691 13.9325 207.391 12.5609 205.508C11.2094 203.626 9.94876 201.16 8.77887 198.113C7.60898 194.975 6.59036 191.12 5.72303 186.548C4.87586 181.887 4.21023 176.418 3.72614 170.143C3.24205 163.778 3 156.428 3 148.091H11.5624C11.5624 151.407 11.7339 154.859 12.0768 158.445C12.4398 161.941 13.0147 165.168 13.8013 168.126C14.588 170.995 15.6167 173.37 16.8874 175.253C18.1582 177.136 19.7012 178.077 21.5166 178.077C23.2109 178.077 24.6531 177.225 25.8432 175.522C27.0332 173.729 28.0014 171.398 28.7477 168.53C29.494 165.571 30.0387 162.254 30.3816 158.579C30.7245 154.814 30.8959 150.959 30.8959 147.015C30.8959 140.829 30.6539 135.899 30.1698 132.223C29.7058 128.458 29.1108 125.59 28.3847 123.617C27.6585 121.645 26.8719 120.39 26.0247 119.852C25.1775 119.225 24.3808 118.911 23.6345 118.911H15.7075V88.7903Z"/>
<path d="M55.1054 7.9753H65.7252L81.4583 205.643H71.3528L68.5088 164.899H52.0798L48.9937 205.643H39.1908L55.1054 7.9753ZM54.5608 130.744H65.9068L60.37 52.4841H60.2489L54.5608 130.744Z"/>
<path d="M118.285 205.643H109.299V127.651H101.008C99.5965 127.651 98.3056 127.831 97.1357 128.189C95.9859 128.548 94.9774 129.758 94.1101 131.82C93.2427 133.792 92.5368 137.019 91.9922 141.502C91.4677 145.984 91.1248 152.304 90.9635 160.462L90.6609 179.153C90.5802 183.456 90.4895 187.086 90.3886 190.044C90.3079 192.913 90.2172 195.334 90.1163 197.306C90.0155 199.188 89.9146 200.802 89.8137 202.147C89.7129 203.402 89.6221 204.567 89.5414 205.643H79.8898C80.1924 203.133 80.4243 200.981 80.5857 199.188C80.7672 197.395 80.9084 195.513 81.0093 193.541C81.1303 191.568 81.2211 189.282 81.2816 186.683C81.3623 184.083 81.453 180.677 81.5539 176.463L81.9775 157.772C82.1187 152.035 82.2901 146.836 82.4918 142.174C82.7137 137.423 83.0465 133.209 83.4903 129.534C83.9542 125.859 84.5896 122.676 85.3964 119.987C86.2032 117.297 87.2723 115.012 88.6035 113.129C88.0186 112.233 87.3832 111.067 86.6974 109.633C86.0318 108.199 85.3258 105.778 84.5795 102.372C83.6113 98.0686 82.8448 92.8244 82.28 86.6389C81.7153 80.3637 81.4329 73.5059 81.4329 66.0653C81.4329 61.4038 81.5438 56.9663 81.7657 52.753C81.9876 48.4501 82.3002 44.416 82.7036 40.6509C83.107 36.8858 83.581 33.4345 84.1256 30.2969C84.6904 27.1593 85.2955 24.3804 85.941 21.9599C86.8688 18.4638 87.8774 15.7744 88.9666 13.8919C90.076 12.0093 91.2156 10.6198 92.3855 9.72338C93.5756 8.82693 94.7858 8.33388 96.0162 8.24424C97.2668 8.06495 98.4972 7.9753 99.7074 7.9753H118.285V205.643ZM109.299 42.6679H98.83C98.709 42.6679 98.4669 42.7128 98.1039 42.8024C97.7408 42.8024 97.3273 42.8921 96.8634 43.0714C96.4196 43.161 95.9658 43.3403 95.5019 43.6092C95.0379 43.8782 94.6446 44.2816 94.3219 44.8194C93.9185 45.5366 93.505 46.5227 93.0814 47.7777C92.6578 48.9431 92.2645 50.5119 91.9014 52.4841C91.5585 54.4563 91.2761 56.8319 91.0542 59.6109C90.8324 62.3899 90.7214 65.7067 90.7214 69.5615C90.7214 73.8644 90.8525 77.4951 91.1148 80.4534C91.3971 83.322 91.7602 85.7424 92.204 87.7146C92.6679 89.5972 93.1822 91.0763 93.747 92.152C94.332 93.1381 94.9169 93.8553 95.5019 94.3035C96.107 94.7517 96.6919 95.0207 97.2567 95.1103C97.8416 95.2 98.3661 95.2448 98.83 95.2448H109.299V42.6679Z"/>
<path d="M122.041 7.9753H131.36V171.488H148.818V7.9753H158.106V171.488H162.735V248H154.687V205.643H122.041V7.9753Z"/>
<path d="M200.898 7.43743H211.457L196.541 131.148V205.643H187.222V131.148L171.791 7.43743H182.774L192.033 93.7656L200.898 7.43743Z"/>
<path d="M211.825 7.43743H221.295V129.265C221.295 142.891 221.658 152.842 222.384 159.117C223.514 170.233 225.974 175.791 229.766 175.791C233.538 175.791 235.989 170.233 237.119 159.117C237.845 152.842 238.208 142.891 238.208 129.265V7.43743H247.678V129.265C247.678 150.332 246.942 166.737 245.469 178.48C242.726 199.995 237.492 210.752 229.766 210.752C222.041 210.752 216.797 199.995 214.033 178.48C212.561 166.737 211.825 150.332 211.825 129.265V7.43743Z"/>
<path d="M251.798 7.43743H260.965V89.0593L278.181 7.43743H290.223L271.948 89.0593L291.16 205.643H279.179L265.413 119.046L260.965 139.35V205.643H251.798V7.43743Z"/>
<path d="M300 205.643H290.742V7.43743H300V205.643Z"/>
</mask>
<path d="M15.7075 88.7903L23.3925 88.9248C24.2598 88.9248 25.0767 88.3869 25.8432 87.3112C26.6298 86.2355 27.3055 84.6219 27.8703 82.4704C28.4553 80.2292 28.9192 77.4951 29.2621 74.2678C29.605 71.0406 29.7764 67.2755 29.7764 62.9726C29.7764 57.5042 29.5344 52.9771 29.0503 49.3913C28.5662 45.8055 27.9409 42.9817 27.1744 40.9199C26.408 38.858 25.5507 37.4237 24.6027 36.6169C23.6547 35.8101 22.7067 35.4067 21.7586 35.4067C20.5282 35.4067 19.4491 35.9894 18.5213 37.1548C17.6136 38.2305 16.8269 39.6648 16.1613 41.4577C15.5158 43.2506 14.9712 45.2677 14.5275 47.5088C14.1039 49.6603 13.7711 51.8566 13.529 54.0977C13.287 56.2492 13.1155 58.311 13.0147 60.2832C12.9138 62.1658 12.8634 63.6897 12.8634 64.8551H4.301C4.301 62.0761 4.3716 58.6248 4.51279 54.5011C4.67416 50.3774 4.97672 46.0296 5.42047 41.4577C5.86422 36.8858 6.48951 32.3139 7.29633 27.742C8.12333 23.1701 9.21254 19.0465 10.564 15.371C11.9154 11.6956 13.5593 8.73729 15.4957 6.49616C17.4522 4.16539 19.7819 3 22.4848 3C25.3288 3 27.7695 4.70326 29.8067 8.10977C31.8641 11.4266 33.5483 15.7296 34.8594 21.0187C36.1705 26.2181 37.1387 32.045 37.764 38.4995C38.3893 44.9539 38.7019 51.2739 38.7019 57.4594C38.7019 60.9555 38.6011 64.631 38.3994 68.4857C38.2178 72.3405 37.8648 76.1056 37.3404 79.781C36.8361 83.4565 36.1403 86.863 35.2527 90.0006C34.3854 93.1381 33.2559 95.693 31.8641 97.6652V98.2031C32.3078 98.741 32.8222 99.4133 33.4071 100.22C33.9921 101.027 34.5871 102.192 35.1922 103.716C35.8175 105.151 36.4226 107.033 37.0076 109.364C37.6127 111.695 38.1472 114.608 38.6111 118.104C39.0751 121.6 39.4482 125.814 39.7306 130.744C40.0332 135.585 40.1845 141.278 40.1845 147.822C40.1845 156.428 39.771 164.54 38.944 172.16C38.117 179.78 36.9067 186.459 35.3133 192.196C33.74 197.844 31.7834 202.326 29.4436 205.643C27.124 208.96 24.4615 210.618 21.4561 210.618C19.9231 210.618 18.4002 210.215 16.8874 209.408C15.3746 208.691 13.9325 207.391 12.5609 205.508C11.2094 203.626 9.94876 201.16 8.77887 198.113C7.60898 194.975 6.59036 191.12 5.72303 186.548C4.87586 181.887 4.21023 176.418 3.72614 170.143C3.24205 163.778 3 156.428 3 148.091H11.5624C11.5624 151.407 11.7339 154.859 12.0768 158.445C12.4398 161.941 13.0147 165.168 13.8013 168.126C14.588 170.995 15.6167 173.37 16.8874 175.253C18.1582 177.136 19.7012 178.077 21.5166 178.077C23.2109 178.077 24.6531 177.225 25.8432 175.522C27.0332 173.729 28.0014 171.398 28.7477 168.53C29.494 165.571 30.0387 162.254 30.3816 158.579C30.7245 154.814 30.8959 150.959 30.8959 147.015C30.8959 140.829 30.6539 135.899 30.1698 132.223C29.7058 128.458 29.1108 125.59 28.3847 123.617C27.6585 121.645 26.8719 120.39 26.0247 119.852C25.1775 119.225 24.3808 118.911 23.6345 118.911H15.7075V88.7903Z" stroke="black" stroke-width="6" mask="url(#path-1-outside-1_293_56)"/>
<path d="M55.1054 7.9753H65.7252L81.4583 205.643H71.3528L68.5088 164.899H52.0798L48.9937 205.643H39.1908L55.1054 7.9753ZM54.5608 130.744H65.9068L60.37 52.4841H60.2489L54.5608 130.744Z" stroke="black" stroke-width="6" mask="url(#path-1-outside-1_293_56)"/>
<path d="M118.285 205.643H109.299V127.651H101.008C99.5965 127.651 98.3056 127.831 97.1357 128.189C95.9859 128.548 94.9774 129.758 94.1101 131.82C93.2427 133.792 92.5368 137.019 91.9922 141.502C91.4677 145.984 91.1248 152.304 90.9635 160.462L90.6609 179.153C90.5802 183.456 90.4895 187.086 90.3886 190.044C90.3079 192.913 90.2172 195.334 90.1163 197.306C90.0155 199.188 89.9146 200.802 89.8137 202.147C89.7129 203.402 89.6221 204.567 89.5414 205.643H79.8898C80.1924 203.133 80.4243 200.981 80.5857 199.188C80.7672 197.395 80.9084 195.513 81.0093 193.541C81.1303 191.568 81.2211 189.282 81.2816 186.683C81.3623 184.083 81.453 180.677 81.5539 176.463L81.9775 157.772C82.1187 152.035 82.2901 146.836 82.4918 142.174C82.7137 137.423 83.0465 133.209 83.4903 129.534C83.9542 125.859 84.5896 122.676 85.3964 119.987C86.2032 117.297 87.2723 115.012 88.6035 113.129C88.0186 112.233 87.3832 111.067 86.6974 109.633C86.0318 108.199 85.3258 105.778 84.5795 102.372C83.6113 98.0686 82.8448 92.8244 82.28 86.6389C81.7153 80.3637 81.4329 73.5059 81.4329 66.0653C81.4329 61.4038 81.5438 56.9663 81.7657 52.753C81.9876 48.4501 82.3002 44.416 82.7036 40.6509C83.107 36.8858 83.581 33.4345 84.1256 30.2969C84.6904 27.1593 85.2955 24.3804 85.941 21.9599C86.8688 18.4638 87.8774 15.7744 88.9666 13.8919C90.076 12.0093 91.2156 10.6198 92.3855 9.72338C93.5756 8.82693 94.7858 8.33388 96.0162 8.24424C97.2668 8.06495 98.4972 7.9753 99.7074 7.9753H118.285V205.643ZM109.299 42.6679H98.83C98.709 42.6679 98.4669 42.7128 98.1039 42.8024C97.7408 42.8024 97.3273 42.8921 96.8634 43.0714C96.4196 43.161 95.9658 43.3403 95.5019 43.6092C95.0379 43.8782 94.6446 44.2816 94.3219 44.8194C93.9185 45.5366 93.505 46.5227 93.0814 47.7777C92.6578 48.9431 92.2645 50.5119 91.9014 52.4841C91.5585 54.4563 91.2761 56.8319 91.0542 59.6109C90.8324 62.3899 90.7214 65.7067 90.7214 69.5615C90.7214 73.8644 90.8525 77.4951 91.1148 80.4534C91.3971 83.322 91.7602 85.7424 92.204 87.7146C92.6679 89.5972 93.1822 91.0763 93.747 92.152C94.332 93.1381 94.9169 93.8553 95.5019 94.3035C96.107 94.7517 96.6919 95.0207 97.2567 95.1103C97.8416 95.2 98.3661 95.2448 98.83 95.2448H109.299V42.6679Z" stroke="black" stroke-width="6" mask="url(#path-1-outside-1_293_56)"/>
<path d="M122.041 7.9753H131.36V171.488H148.818V7.9753H158.106V171.488H162.735V248H154.687V205.643H122.041V7.9753Z" stroke="black" stroke-width="6" mask="url(#path-1-outside-1_293_56)"/>
<path d="M200.898 7.43743H211.457L196.541 131.148V205.643H187.222V131.148L171.791 7.43743H182.774L192.033 93.7656L200.898 7.43743Z" stroke="black" stroke-width="6" mask="url(#path-1-outside-1_293_56)"/>
<path d="M211.825 7.43743H221.295V129.265C221.295 142.891 221.658 152.842 222.384 159.117C223.514 170.233 225.974 175.791 229.766 175.791C233.538 175.791 235.989 170.233 237.119 159.117C237.845 152.842 238.208 142.891 238.208 129.265V7.43743H247.678V129.265C247.678 150.332 246.942 166.737 245.469 178.48C242.726 199.995 237.492 210.752 229.766 210.752C222.041 210.752 216.797 199.995 214.033 178.48C212.561 166.737 211.825 150.332 211.825 129.265V7.43743Z" stroke="black" stroke-width="6" mask="url(#path-1-outside-1_293_56)"/>
<path d="M251.798 7.43743H260.965V89.0593L278.181 7.43743H290.223L271.948 89.0593L291.16 205.643H279.179L265.413 119.046L260.965 139.35V205.643H251.798V7.43743Z" stroke="black" stroke-width="6" mask="url(#path-1-outside-1_293_56)"/>
<path d="M300 205.643H290.742V7.43743H300V205.643Z" stroke="black" stroke-width="6" mask="url(#path-1-outside-1_293_56)"/>
</svg>
