<svg width="184" height="36" viewBox="0 0 184 36" fill="none" xmlns="http://www.w3.org/2000/svg">
<path d="M3.17969 17.5873C8.8255 17.5873 12.8742 14.2856 18.0372 14.2856C23.8671 14.2856 27.1461 12.0845 32.8948 12.0845" stroke="black" stroke-width="5" stroke-linecap="round"/>
<path d="M17.4873 14.2856C17.4873 20.6445 19.6884 26.6736 19.6884 32.9952" stroke="black" stroke-width="5" stroke-linecap="round"/>
<path d="M26.3027 23.0107C26.3027 24.8278 26.53 27.0695 27.0279 28.8123C27.3439 29.9182 27.9344 30.8211 27.9344 31.985" stroke="black" stroke-width="5" stroke-linecap="round"/>
<path d="M27.9346 29.5375C27.9346 27.8383 31.2553 25.9712 32.4217 24.8464C34.063 23.2637 35.7069 21.7651 37.3168 20.1553" stroke="black" stroke-width="5" stroke-linecap="round"/>
<path d="M29.5664 28.314C31.4487 28.314 33.4329 28.1371 35.2773 28.5406C36.857 28.8862 39.1858 29.2484 40.5803 29.9457" stroke="black" stroke-width="5" stroke-linecap="round"/>
<path d="M43.0283 21.3789C44.2414 23.3056 44.3538 25.4501 45.2946 27.4977C45.871 28.7523 45.7438 30.4872 47.1075 31.169" stroke="black" stroke-width="5" stroke-linecap="round"/>
<path d="M44.6592 27.498C45.9245 26.9026 46.9595 26.5156 48.1265 25.7077C48.8382 25.215 49.3206 24.5591 49.9622 24.144C50.9607 23.4979 51.5621 21.7871 52.8176 21.7871" stroke="black" stroke-width="5" stroke-linecap="round"/>
<path d="M54.45 16.0762C54.45 19.4083 54.2999 22.7057 55.0392 25.9796C55.5007 28.0235 56.0817 30.2985 56.0817 32.3931" stroke="black" stroke-width="5" stroke-linecap="round"/>
<path d="M59.7529 18.9316C59.7529 20.669 59.6065 22.4839 59.9796 24.1893C60.26 25.4713 60.8774 26.6718 61.362 27.8833C61.643 28.5859 61.5917 29.6975 62.0192 30.3081C62.6918 31.269 63.7681 26.9916 63.9228 26.6822C64.8572 24.8133 66.751 23.2434 67.4128 21.1979C68.9067 16.5804 71.0461 21.8199 71.5827 24.2346C72.1614 26.8389 74.0302 28.9435 74.0302 31.5772" stroke="black" stroke-width="5" stroke-linecap="round"/>
<path d="M121.349 12.4051C118.831 12.4051 116.01 11.9515 114.006 13.1303C112.293 14.1382 112.783 15.994 112.783 17.7988C112.783 24.5068 120.418 23.2204 125.02 21.3794" stroke="black" stroke-width="5" stroke-linecap="round"/>
<path d="M130.731 12.4053C131.509 14.1542 131.568 16.1592 132.363 17.8896C132.804 18.8499 133.587 20.3499 133.587 21.3796" stroke="black" stroke-width="5" stroke-linecap="round"/>
<path d="M132.771 17.7079C132.89 16.7505 137.125 16.0768 138.073 15.5777C139.125 15.0243 139.604 14.0366 140.929 14.0366" stroke="black" stroke-width="5" stroke-linecap="round"/>
<path d="M141.337 9.14148C141.337 11.793 141.337 14.4445 141.337 17.096C141.337 20.4155 145.406 16.9917 146.232 16.2575C147.517 15.1154 148.272 13.1334 148.272 10.9998C148.272 8.65484 145.042 9.14148 143.377 9.14148" stroke="black" stroke-width="5" stroke-linecap="round"/>
<path d="M154.799 17.3C153.856 16.4617 152.759 14.9584 152.759 13.6287C152.759 12.547 151.948 12.0668 153.484 11.997C155.315 11.9138 157.336 11.4496 159.104 10.9545C160.071 10.6839 163.899 9.54972 164.906 10.456C165.96 11.4043 165.438 13.0333 166.628 13.6287" stroke="black" stroke-width="5" stroke-linecap="round"/>
<path d="M156.023 11.1813C155.908 9.22189 153.853 7.53568 153.598 5.4931C153.541 5.04012 152.92 3.4463 153.167 3.43083C153.841 3.38871 154.532 3.43083 155.207 3.43083C158.758 3.43083 157.098 9.80943 159.286 11.9972" stroke="black" stroke-width="5" stroke-linecap="round"/>
<path d="M173.971 16.076C171.964 15.8251 172.339 10.7138 172.339 9.57188C172.339 6.8448 171.796 3.02246 175.603 3.02246C179.371 3.02246 180.906 9.6987 180.906 12.8126" stroke="black" stroke-width="5" stroke-linecap="round"/>
<path d="M169.483 11.9973C173.123 11.3674 177.28 9.5498 180.905 9.5498" stroke="black" stroke-width="5" stroke-linecap="round"/>
<path d="M3.17969 17.5873C8.8255 17.5873 12.8742 14.2856 18.0372 14.2856C23.8671 14.2856 27.1461 12.0845 32.8948 12.0845" stroke="white" stroke-width="4" stroke-linecap="round"/>
<path d="M17.4873 14.2856C17.4873 20.6445 19.6884 26.6736 19.6884 32.9952" stroke="white" stroke-width="4" stroke-linecap="round"/>
<path d="M26.3027 23.0107C26.3027 24.8278 26.53 27.0695 27.0279 28.8123C27.3439 29.9182 27.9344 30.8211 27.9344 31.985" stroke="white" stroke-width="4" stroke-linecap="round"/>
<path d="M27.9346 29.5375C27.9346 27.8383 31.2553 25.9712 32.4217 24.8464C34.063 23.2637 35.7069 21.7651 37.3168 20.1553" stroke="white" stroke-width="4" stroke-linecap="round"/>
<path d="M29.5664 28.314C31.4487 28.314 33.4329 28.1371 35.2773 28.5406C36.857 28.8862 39.1858 29.2484 40.5803 29.9457" stroke="white" stroke-width="4" stroke-linecap="round"/>
<path d="M43.0283 21.3789C44.2414 23.3056 44.3538 25.4501 45.2946 27.4977C45.871 28.7523 45.7438 30.4872 47.1075 31.169" stroke="white" stroke-width="4" stroke-linecap="round"/>
<path d="M44.6592 27.498C45.9245 26.9026 46.9595 26.5156 48.1265 25.7077C48.8382 25.215 49.3206 24.5591 49.9622 24.144C50.9607 23.4979 51.5621 21.7871 52.8176 21.7871" stroke="white" stroke-width="4" stroke-linecap="round"/>
<path d="M54.45 16.0762C54.45 19.4083 54.2999 22.7057 55.0392 25.9796C55.5007 28.0235 56.0817 30.2985 56.0817 32.3931" stroke="white" stroke-width="4" stroke-linecap="round"/>
<path d="M59.7529 18.9316C59.7529 20.669 59.6065 22.4839 59.9796 24.1893C60.26 25.4713 60.8774 26.6718 61.362 27.8833C61.643 28.5859 61.5917 29.6975 62.0192 30.3081C62.6918 31.269 63.7681 26.9916 63.9228 26.6822C64.8572 24.8133 66.751 23.2434 67.4128 21.1979C68.9067 16.5804 71.0461 21.8199 71.5827 24.2346C72.1614 26.8389 74.0302 28.9435 74.0302 31.5772" stroke="white" stroke-width="4" stroke-linecap="round"/>
<path d="M121.349 12.4051C118.831 12.4051 116.01 11.9515 114.006 13.1303C112.293 14.1382 112.783 15.994 112.783 17.7988C112.783 24.5068 120.418 23.2204 125.02 21.3794" stroke="white" stroke-width="4" stroke-linecap="round"/>
<path d="M130.731 12.4053C131.509 14.1542 131.568 16.1592 132.363 17.8896C132.804 18.8499 133.587 20.3499 133.587 21.3796" stroke="white" stroke-width="4" stroke-linecap="round"/>
<path d="M132.771 17.7079C132.89 16.7505 137.125 16.0768 138.073 15.5777C139.125 15.0243 139.604 14.0366 140.929 14.0366" stroke="white" stroke-width="4" stroke-linecap="round"/>
<path d="M141.337 9.14148C141.337 11.793 141.337 14.4445 141.337 17.096C141.337 20.4155 145.406 16.9917 146.232 16.2575C147.517 15.1154 148.272 13.1334 148.272 10.9998C148.272 8.65484 145.042 9.14148 143.377 9.14148" stroke="white" stroke-width="4" stroke-linecap="round"/>
<path d="M154.799 17.3C153.856 16.4617 152.759 14.9584 152.759 13.6287C152.759 12.547 151.948 12.0668 153.484 11.997C155.315 11.9138 157.336 11.4496 159.104 10.9545C160.071 10.6839 163.899 9.54972 164.906 10.456C165.96 11.4043 165.438 13.0333 166.628 13.6287" stroke="white" stroke-width="4" stroke-linecap="round"/>
<path d="M156.023 11.1813C155.908 9.22189 153.853 7.53568 153.598 5.4931C153.541 5.04012 152.92 3.4463 153.167 3.43083C153.841 3.38871 154.532 3.43083 155.207 3.43083C158.758 3.43083 157.098 9.80943 159.286 11.9972" stroke="white" stroke-width="4" stroke-linecap="round"/>
<path d="M173.971 16.076C171.964 15.8251 172.339 10.7138 172.339 9.57188C172.339 6.8448 171.796 3.02246 175.603 3.02246C179.371 3.02246 180.906 9.6987 180.906 12.8126" stroke="white" stroke-width="4" stroke-linecap="round"/>
<path d="M169.483 11.9973C173.123 11.3674 177.28 9.5498 180.905 9.5498" stroke="white" stroke-width="4" stroke-linecap="round"/>
</svg>
