<svg width="1920" height="31" viewBox="0 0 1920 31" fill="none" xmlns="http://www.w3.org/2000/svg">
<path d="M1.79867 10.4774H7.47449L9.92601 21.0163H9.99263L12.3909 10.4774H17.8935V25H14.3494V13.3153H14.2961L11.5648 25H8.12734L5.40934 13.3153H5.34273V25H1.79867V10.4774ZM20.6514 17.7387C20.6514 16.6195 20.8202 15.5892 21.1577 14.6476C21.5041 13.7061 21.9971 12.8978 22.6366 12.2228C23.285 11.5388 24.0667 11.0059 24.9816 10.6239C25.8965 10.242 26.9268 10.051 28.0726 10.051C29.2362 10.051 30.2754 10.242 31.1903 10.6239C32.1141 11.0059 32.8913 11.5388 33.5219 12.2228C34.1615 12.8978 34.65 13.7061 34.9875 14.6476C35.3251 15.5892 35.4938 16.6195 35.4938 17.7387C35.4938 18.8579 35.3251 19.8882 34.9875 20.8297C34.65 21.7713 34.1615 22.584 33.5219 23.2679C32.8913 23.9519 32.1141 24.4848 31.1903 24.8668C30.2754 25.2487 29.2362 25.4397 28.0726 25.4397C26.9268 25.4397 25.8965 25.2487 24.9816 24.8668C24.0667 24.4848 23.285 23.9519 22.6366 23.2679C21.9971 22.584 21.5041 21.7713 21.1577 20.8297C20.8202 19.8882 20.6514 18.8579 20.6514 17.7387ZM24.5819 17.7387C24.5819 18.2894 24.6396 18.8357 24.7551 19.3775C24.8794 19.9104 25.0793 20.3901 25.3546 20.8164C25.63 21.2339 25.9897 21.5714 26.4338 21.829C26.878 22.0866 27.4242 22.2154 28.0726 22.2154C28.7477 22.2154 29.3073 22.091 29.7514 21.8423C30.2044 21.5847 30.5641 21.2517 30.8306 20.8431C31.0971 20.4256 31.2836 19.9504 31.3902 19.4175C31.5057 18.8756 31.5634 18.316 31.5634 17.7387C31.5634 17.1702 31.5057 16.6151 31.3902 16.0733C31.2836 15.5314 31.0971 15.0562 30.8306 14.6476C30.5641 14.2302 30.2044 13.8971 29.7514 13.6484C29.3073 13.3908 28.7477 13.262 28.0726 13.262C27.4242 13.262 26.878 13.3908 26.4338 13.6484C25.9897 13.906 25.63 14.2479 25.3546 14.6743C25.0793 15.0918 24.8794 15.5714 24.7551 16.1132C24.6396 16.6462 24.5819 17.188 24.5819 17.7387ZM38.1186 10.4774H41.7159V12.5558H41.7692C42.0268 12.1206 42.2977 11.7476 42.5819 11.4367C42.8662 11.1169 43.1815 10.8549 43.5279 10.6506C43.8743 10.4463 44.2562 10.2953 44.6737 10.1976C45.1001 10.0999 45.5797 10.051 46.1127 10.051C46.5568 10.051 47.0142 10.1043 47.485 10.2109C47.9557 10.3175 48.4132 10.4907 48.8573 10.7305C49.3103 10.9615 49.7367 11.2679 50.1364 11.6498C50.5361 12.0229 50.8869 12.4848 51.1889 13.0355C51.4909 13.5862 51.7307 14.2302 51.9084 14.9674C52.086 15.6958 52.1749 16.5307 52.1749 17.4722C52.1749 18.6447 52.0461 19.7194 51.7885 20.6965C51.5398 21.6736 51.1578 22.5129 50.6427 23.2147C50.1364 23.9164 49.4924 24.4626 48.7107 24.8534C47.938 25.2443 47.0275 25.4397 45.9794 25.4397C45.6152 25.4397 45.2466 25.4041 44.8736 25.3331C44.5005 25.262 44.1363 25.1421 43.781 24.9734C43.4258 24.8046 43.0882 24.5781 42.7685 24.2939C42.4576 24.0007 42.1822 23.6366 41.9424 23.2013H41.8891V30.6225H38.1186V10.4774ZM44.9935 13.4352C44.3895 13.4352 43.8787 13.564 43.4613 13.8216C43.0527 14.0792 42.7196 14.4123 42.462 14.8208C42.2133 15.2294 42.0312 15.6913 41.9158 16.2065C41.8003 16.7217 41.7425 17.2324 41.7425 17.7387C41.7425 18.014 41.7559 18.316 41.7825 18.6447C41.818 18.9645 41.8802 19.2931 41.969 19.6306C42.0579 19.9593 42.1778 20.279 42.3288 20.5899C42.4887 20.9008 42.6885 21.1762 42.9283 21.416C43.1682 21.6558 43.4568 21.8512 43.7944 22.0022C44.1319 22.1443 44.5316 22.2154 44.9935 22.2154C45.4554 22.2154 45.8551 22.1443 46.1926 22.0022C46.5301 21.8512 46.8188 21.6558 47.0586 21.416C47.2984 21.1762 47.4939 20.9008 47.6449 20.5899C47.8047 20.279 47.9291 19.9593 48.0179 19.6306C48.1067 19.2931 48.1645 18.9645 48.1911 18.6447C48.2267 18.316 48.2444 18.014 48.2444 17.7387C48.2444 17.2324 48.1867 16.7217 48.0712 16.2065C47.9557 15.6913 47.7692 15.2294 47.5116 14.8208C47.2629 14.4123 46.9298 14.0792 46.5124 13.8216C46.0949 13.564 45.5886 13.4352 44.9935 13.4352ZM53.6538 21.9489H55.1593C55.5146 21.2827 55.8077 20.5855 56.0387 19.8571C56.2785 19.1199 56.4695 18.3782 56.6116 17.6321C56.7537 16.886 56.8558 16.1576 56.918 15.447C56.9802 14.7276 57.0246 14.0525 57.0513 13.4219C57.0779 12.7912 57.0868 12.2228 57.0779 11.7165C57.0779 11.2102 57.0823 10.7971 57.0912 10.4774H68.4429V21.9489H70.2682V28.4908H66.7241V25H57.1978V28.4908H53.6538V21.9489ZM64.6856 21.9489V13.5418H60.3688C60.3688 13.8083 60.3644 14.1369 60.3555 14.5277C60.3555 14.9185 60.3377 15.3538 60.3022 15.8334C60.2755 16.3042 60.2311 16.806 60.169 17.339C60.1157 17.8719 60.0313 18.4049 59.9158 18.9378C59.8092 19.4707 59.676 19.9948 59.5161 20.51C59.3651 21.0252 59.1741 21.5048 58.9432 21.9489H64.6856ZM105.654 22.1354C105.654 22.5707 105.677 22.9304 105.721 23.2147C105.774 23.49 105.841 23.7121 105.921 23.8808C106.001 24.0407 106.09 24.1606 106.187 24.2406C106.294 24.3116 106.405 24.3649 106.52 24.4004V25H102.35C102.279 24.8312 102.199 24.6092 102.11 24.3338C102.03 24.0496 101.99 23.7076 101.99 23.3079C101.697 23.6099 101.409 23.8897 101.124 24.1473C100.849 24.4049 100.538 24.6314 100.192 24.8268C99.8453 25.0133 99.4456 25.1599 98.9926 25.2665C98.5396 25.3819 97.9933 25.4397 97.3538 25.4397C96.7054 25.4397 96.1058 25.342 95.5551 25.1466C95.0133 24.96 94.5425 24.6802 94.1428 24.3072C93.7431 23.9341 93.4322 23.4678 93.2102 22.9082C92.9881 22.3486 92.8771 21.7002 92.8771 20.963C92.8771 20.3679 92.9704 19.8172 93.1569 19.3109C93.3434 18.7957 93.6055 18.3471 93.943 17.9652C94.2894 17.5744 94.7069 17.2546 95.1954 17.0059C95.6928 16.7483 96.2479 16.5751 96.8608 16.4863L100.551 15.94C100.685 15.9223 100.827 15.8956 100.978 15.8601C101.138 15.8245 101.284 15.7668 101.417 15.6869C101.551 15.598 101.662 15.4826 101.751 15.3405C101.839 15.1895 101.884 14.9896 101.884 14.7409C101.884 14.5011 101.844 14.2835 101.764 14.088C101.693 13.8838 101.568 13.7105 101.391 13.5684C101.213 13.4174 100.973 13.302 100.671 13.222C100.378 13.1421 100.01 13.1021 99.5655 13.1021C99.0592 13.1021 98.6506 13.1554 98.3397 13.262C98.0377 13.3597 97.7979 13.5018 97.6203 13.6883C97.4426 13.866 97.3138 14.0792 97.2339 14.3279C97.1539 14.5677 97.0962 14.8253 97.0607 15.1006H93.2901C93.2901 14.923 93.3168 14.6787 93.3701 14.3678C93.4322 14.0481 93.5388 13.7017 93.6898 13.3286C93.8497 12.9555 94.0673 12.5781 94.3427 12.1961C94.6269 11.8142 94.9955 11.4678 95.4485 11.1569C95.9104 10.8371 96.47 10.5751 97.1273 10.3708C97.7846 10.1665 98.5707 10.0599 99.4856 10.051C100.782 10.051 101.83 10.1843 102.63 10.4507C103.438 10.7083 104.064 11.0503 104.509 11.4766C104.962 11.8941 105.264 12.3649 105.415 12.8889C105.574 13.4041 105.654 13.9193 105.654 14.4345V22.1354ZM101.884 17.9119C101.653 18.0362 101.422 18.1517 101.191 18.2583C100.96 18.356 100.654 18.4404 100.272 18.5115L99.2724 18.698C98.8371 18.7779 98.4552 18.8712 98.1266 18.9778C97.7979 19.0844 97.5226 19.2265 97.3005 19.4041C97.0873 19.5729 96.923 19.7816 96.8075 20.0303C96.7009 20.279 96.6477 20.5899 96.6477 20.963C96.6477 21.2739 96.6965 21.5448 96.7942 21.7757C96.8919 21.9978 97.0252 22.1843 97.1939 22.3353C97.3716 22.4774 97.5759 22.584 97.8068 22.6551C98.0377 22.7261 98.2864 22.7617 98.5529 22.7617C98.695 22.7617 98.8771 22.7483 99.0992 22.7217C99.3212 22.6862 99.5566 22.624 99.8053 22.5352C100.054 22.4463 100.303 22.3264 100.551 22.1754C100.8 22.0155 101.022 21.8112 101.218 21.5625C101.413 21.3138 101.573 21.0118 101.697 20.6565C101.822 20.2924 101.884 19.866 101.884 19.3775V17.9119Z" fill="black"/>
<path d="M296.799 10.4774H309.869V25H306.112V13.5418H300.569V25H296.799V10.4774ZM325.218 22.1354C325.218 22.5707 325.24 22.9304 325.284 23.2147C325.338 23.49 325.404 23.7121 325.484 23.8808C325.564 24.0407 325.653 24.1606 325.751 24.2406C325.857 24.3116 325.968 24.3649 326.084 24.4004V25H321.913C321.842 24.8312 321.762 24.6092 321.674 24.3338C321.594 24.0496 321.554 23.7076 321.554 23.3079C321.261 23.6099 320.972 23.8897 320.688 24.1473C320.412 24.4049 320.101 24.6314 319.755 24.8268C319.409 25.0133 319.009 25.1599 318.556 25.2665C318.103 25.3819 317.557 25.4397 316.917 25.4397C316.269 25.4397 315.669 25.342 315.118 25.1466C314.577 24.96 314.106 24.6802 313.706 24.3072C313.306 23.9341 312.996 23.4678 312.774 22.9082C312.551 22.3486 312.44 21.7002 312.44 20.963C312.44 20.3679 312.534 19.8172 312.72 19.3109C312.907 18.7957 313.169 18.3471 313.506 17.9652C313.853 17.5744 314.27 17.2546 314.759 17.0059C315.256 16.7483 315.811 16.5751 316.424 16.4863L320.115 15.94C320.248 15.9223 320.39 15.8956 320.541 15.8601C320.701 15.8245 320.848 15.7668 320.981 15.6869C321.114 15.598 321.225 15.4826 321.314 15.3405C321.403 15.1895 321.447 14.9896 321.447 14.7409C321.447 14.5011 321.407 14.2835 321.327 14.088C321.256 13.8838 321.132 13.7105 320.954 13.5684C320.777 13.4174 320.537 13.302 320.235 13.222C319.942 13.1421 319.573 13.1021 319.129 13.1021C318.623 13.1021 318.214 13.1554 317.903 13.262C317.601 13.3597 317.361 13.5018 317.184 13.6883C317.006 13.866 316.877 14.0792 316.797 14.3279C316.717 14.5677 316.66 14.8253 316.624 15.1006H312.853C312.853 14.923 312.88 14.6787 312.933 14.3678C312.996 14.0481 313.102 13.7017 313.253 13.3286C313.413 12.9555 313.631 12.5781 313.906 12.1961C314.19 11.8142 314.559 11.4678 315.012 11.1569C315.474 10.8371 316.033 10.5751 316.691 10.3708C317.348 10.1665 318.134 10.0599 319.049 10.051C320.346 10.051 321.394 10.1843 322.193 10.4507C323.002 10.7083 323.628 11.0503 324.072 11.4766C324.525 11.8941 324.827 12.3649 324.978 12.8889C325.138 13.4041 325.218 13.9193 325.218 14.4345V22.1354ZM321.447 17.9119C321.216 18.0362 320.985 18.1517 320.754 18.2583C320.523 18.356 320.217 18.4404 319.835 18.5115L318.836 18.698C318.401 18.7779 318.019 18.8712 317.69 18.9778C317.361 19.0844 317.086 19.2265 316.864 19.4041C316.651 19.5729 316.486 19.7816 316.371 20.0303C316.264 20.279 316.211 20.5899 316.211 20.963C316.211 21.2739 316.26 21.5448 316.358 21.7757C316.455 21.9978 316.589 22.1843 316.757 22.3353C316.935 22.4774 317.139 22.584 317.37 22.6551C317.601 22.7261 317.85 22.7617 318.116 22.7617C318.258 22.7617 318.44 22.7483 318.663 22.7217C318.885 22.6862 319.12 22.624 319.369 22.5352C319.617 22.4463 319.866 22.3264 320.115 22.1754C320.364 22.0155 320.586 21.8112 320.781 21.5625C320.976 21.3138 321.136 21.0118 321.261 20.6565C321.385 20.2924 321.447 19.866 321.447 19.3775V17.9119ZM337.182 15.6069C337.111 15.225 337.013 14.8919 336.889 14.6077C336.765 14.3145 336.6 14.0703 336.396 13.8749C336.201 13.6706 335.956 13.5196 335.663 13.4219C335.379 13.3153 335.033 13.262 334.624 13.262C333.993 13.262 333.487 13.4085 333.105 13.7017C332.732 13.9948 332.443 14.3634 332.239 14.8075C332.035 15.2516 331.897 15.7357 331.826 16.2598C331.764 16.7838 331.733 17.2768 331.733 17.7387C331.733 18.2183 331.76 18.7246 331.813 19.2576C331.866 19.7816 331.99 20.2657 332.186 20.7098C332.381 21.1451 332.67 21.5048 333.052 21.789C333.434 22.0733 333.958 22.2154 334.624 22.2154C335.059 22.2154 335.437 22.131 335.757 21.9622C336.076 21.7846 336.343 21.567 336.556 21.3094C336.769 21.0518 336.925 20.7764 337.022 20.4833C337.129 20.1902 337.182 19.9237 337.182 19.6839H341.113C341.113 19.9237 341.068 20.2346 340.979 20.6166C340.899 20.9985 340.762 21.4027 340.566 21.829C340.371 22.2554 340.109 22.6862 339.78 23.1214C339.461 23.5477 339.056 23.9341 338.568 24.2805C338.088 24.6181 337.524 24.8934 336.876 25.1066C336.227 25.3286 335.477 25.4397 334.624 25.4397C333.514 25.4397 332.532 25.2709 331.68 24.9334C330.836 24.5959 330.125 24.1029 329.548 23.4545C328.979 22.7972 328.544 21.9889 328.242 21.0296C327.949 20.0703 327.802 18.9733 327.802 17.7387C327.802 16.504 327.962 15.4115 328.282 14.4611C328.611 13.5018 329.073 12.698 329.668 12.0496C330.263 11.3923 330.978 10.8948 331.813 10.5573C332.657 10.2198 333.594 10.051 334.624 10.051C335.068 10.051 335.526 10.0866 335.996 10.1576C336.476 10.2287 336.947 10.353 337.409 10.5307C337.871 10.6994 338.31 10.9215 338.728 11.1968C339.154 11.4722 339.532 11.8186 339.86 12.2361C340.198 12.6447 340.473 13.1288 340.686 13.6883C340.908 14.239 341.05 14.8786 341.113 15.6069H337.182ZM404.612 10.4774H417.683V25H413.926V13.5418H408.383V25H404.612V10.4774ZM420.427 17.7387C420.427 16.6195 420.596 15.5892 420.934 14.6476C421.28 13.7061 421.773 12.8978 422.413 12.2228C423.061 11.5388 423.843 11.0059 424.758 10.6239C425.673 10.242 426.703 10.051 427.849 10.051C429.012 10.051 430.052 10.242 430.966 10.6239C431.89 11.0059 432.667 11.5388 433.298 12.2228C433.938 12.8978 434.426 13.7061 434.764 14.6476C435.101 15.5892 435.27 16.6195 435.27 17.7387C435.27 18.8579 435.101 19.8882 434.764 20.8297C434.426 21.7713 433.938 22.584 433.298 23.2679C432.667 23.9519 431.89 24.4848 430.966 24.8668C430.052 25.2487 429.012 25.4397 427.849 25.4397C426.703 25.4397 425.673 25.2487 424.758 24.8668C423.843 24.4848 423.061 23.9519 422.413 23.2679C421.773 22.584 421.28 21.7713 420.934 20.8297C420.596 19.8882 420.427 18.8579 420.427 17.7387ZM424.358 17.7387C424.358 18.2894 424.416 18.8357 424.531 19.3775C424.655 19.9104 424.855 20.3901 425.131 20.8164C425.406 21.2339 425.766 21.5714 426.21 21.829C426.654 22.0866 427.2 22.2154 427.849 22.2154C428.524 22.2154 429.083 22.091 429.527 21.8423C429.98 21.5847 430.34 21.2517 430.607 20.8431C430.873 20.4256 431.06 19.9504 431.166 19.4175C431.282 18.8756 431.339 18.316 431.339 17.7387C431.339 17.1702 431.282 16.6151 431.166 16.0733C431.06 15.5314 430.873 15.0562 430.607 14.6476C430.34 14.2302 429.98 13.8971 429.527 13.6484C429.083 13.3908 428.524 13.262 427.849 13.262C427.2 13.262 426.654 13.3908 426.21 13.6484C425.766 13.906 425.406 14.2479 425.131 14.6743C424.855 15.0918 424.655 15.5714 424.531 16.1132C424.416 16.6462 424.358 17.188 424.358 17.7387ZM437.895 10.4774H441.492V12.5558H441.545C441.803 12.1206 442.074 11.7476 442.358 11.4367C442.642 11.1169 442.958 10.8549 443.304 10.6506C443.65 10.4463 444.032 10.2953 444.45 10.1976C444.876 10.0999 445.356 10.051 445.889 10.051C446.333 10.051 446.79 10.1043 447.261 10.2109C447.732 10.3175 448.189 10.4907 448.633 10.7305C449.086 10.9615 449.513 11.2679 449.912 11.6498C450.312 12.0229 450.663 12.4848 450.965 13.0355C451.267 13.5862 451.507 14.2302 451.684 14.9674C451.862 15.6958 451.951 16.5307 451.951 17.4722C451.951 18.6447 451.822 19.7194 451.565 20.6965C451.316 21.6736 450.934 22.5129 450.419 23.2147C449.912 23.9164 449.268 24.4626 448.487 24.8534C447.714 25.2443 446.804 25.4397 445.755 25.4397C445.391 25.4397 445.023 25.4041 444.65 25.3331C444.277 25.262 443.912 25.1421 443.557 24.9734C443.202 24.8046 442.864 24.5781 442.545 24.2939C442.234 24.0007 441.958 23.6366 441.718 23.2013H441.665V30.6225H437.895V10.4774ZM444.77 13.4352C444.166 13.4352 443.655 13.564 443.237 13.8216C442.829 14.0792 442.496 14.4123 442.238 14.8208C441.989 15.2294 441.807 15.6913 441.692 16.2065C441.576 16.7217 441.519 17.2324 441.519 17.7387C441.519 18.014 441.532 18.316 441.559 18.6447C441.594 18.9645 441.656 19.2931 441.745 19.6306C441.834 19.9593 441.954 20.279 442.105 20.5899C442.265 20.9008 442.465 21.1762 442.704 21.416C442.944 21.6558 443.233 21.8512 443.57 22.0022C443.908 22.1443 444.308 22.2154 444.77 22.2154C445.231 22.2154 445.631 22.1443 445.969 22.0022C446.306 21.8512 446.595 21.6558 446.835 21.416C447.075 21.1762 447.27 20.9008 447.421 20.5899C447.581 20.279 447.705 19.9593 447.794 19.6306C447.883 19.2931 447.941 18.9645 447.967 18.6447C448.003 18.316 448.02 18.014 448.02 17.7387C448.02 17.2324 447.963 16.7217 447.847 16.2065C447.732 15.6913 447.545 15.2294 447.288 14.8208C447.039 14.4123 446.706 14.0792 446.288 13.8216C445.871 13.564 445.365 13.4352 444.77 13.4352ZM457.827 13.5418H453.43V10.4774H465.981V13.5418H461.584V25H457.827V13.5418Z" fill="black"/>
<path d="M641.799 10.4774H645.569V15.7268H651.112V10.4774H654.869V25H651.112V18.7779H645.569V25H641.799V10.4774ZM670.218 22.1354C670.218 22.5707 670.24 22.9304 670.284 23.2147C670.338 23.49 670.404 23.7121 670.484 23.8808C670.564 24.0407 670.653 24.1606 670.751 24.2406C670.857 24.3116 670.968 24.3649 671.084 24.4004V25H666.913C666.842 24.8312 666.762 24.6092 666.674 24.3338C666.594 24.0496 666.554 23.7076 666.554 23.3079C666.261 23.6099 665.972 23.8897 665.688 24.1473C665.412 24.4049 665.101 24.6314 664.755 24.8268C664.409 25.0133 664.009 25.1599 663.556 25.2665C663.103 25.3819 662.557 25.4397 661.917 25.4397C661.269 25.4397 660.669 25.342 660.118 25.1466C659.577 24.96 659.106 24.6802 658.706 24.3072C658.306 23.9341 657.996 23.4678 657.774 22.9082C657.551 22.3486 657.44 21.7002 657.44 20.963C657.44 20.3679 657.534 19.8172 657.72 19.3109C657.907 18.7957 658.169 18.3471 658.506 17.9652C658.853 17.5744 659.27 17.2546 659.759 17.0059C660.256 16.7483 660.811 16.5751 661.424 16.4863L665.115 15.94C665.248 15.9223 665.39 15.8956 665.541 15.8601C665.701 15.8245 665.848 15.7668 665.981 15.6869C666.114 15.598 666.225 15.4826 666.314 15.3405C666.403 15.1895 666.447 14.9896 666.447 14.7409C666.447 14.5011 666.407 14.2835 666.327 14.088C666.256 13.8838 666.132 13.7105 665.954 13.5684C665.777 13.4174 665.537 13.302 665.235 13.222C664.942 13.1421 664.573 13.1021 664.129 13.1021C663.623 13.1021 663.214 13.1554 662.903 13.262C662.601 13.3597 662.361 13.5018 662.184 13.6883C662.006 13.866 661.877 14.0792 661.797 14.3279C661.717 14.5677 661.66 14.8253 661.624 15.1006H657.853C657.853 14.923 657.88 14.6787 657.933 14.3678C657.996 14.0481 658.102 13.7017 658.253 13.3286C658.413 12.9555 658.631 12.5781 658.906 12.1961C659.19 11.8142 659.559 11.4678 660.012 11.1569C660.474 10.8371 661.033 10.5751 661.691 10.3708C662.348 10.1665 663.134 10.0599 664.049 10.051C665.346 10.051 666.394 10.1843 667.193 10.4507C668.002 10.7083 668.628 11.0503 669.072 11.4766C669.525 11.8941 669.827 12.3649 669.978 12.8889C670.138 13.4041 670.218 13.9193 670.218 14.4345V22.1354ZM666.447 17.9119C666.216 18.0362 665.985 18.1517 665.754 18.2583C665.523 18.356 665.217 18.4404 664.835 18.5115L663.836 18.698C663.401 18.7779 663.019 18.8712 662.69 18.9778C662.361 19.0844 662.086 19.2265 661.864 19.4041C661.651 19.5729 661.486 19.7816 661.371 20.0303C661.264 20.279 661.211 20.5899 661.211 20.963C661.211 21.2739 661.26 21.5448 661.358 21.7757C661.455 21.9978 661.589 22.1843 661.757 22.3353C661.935 22.4774 662.139 22.584 662.37 22.6551C662.601 22.7261 662.85 22.7617 663.116 22.7617C663.258 22.7617 663.44 22.7483 663.663 22.7217C663.885 22.6862 664.12 22.624 664.369 22.5352C664.617 22.4463 664.866 22.3264 665.115 22.1754C665.364 22.0155 665.586 21.8112 665.781 21.5625C665.976 21.3138 666.136 21.0118 666.261 20.6565C666.385 20.2924 666.447 19.866 666.447 19.3775V17.9119ZM673.669 10.4774H677.439V21.9489H681.369V10.4774H685.127V21.9489H689.057V10.4774H692.828V25H673.669V10.4774ZM719.315 10.4774H723.085V15.9933L728.521 10.4774H733.531L727.535 16.5129L733.784 25H728.868L724.604 18.8712L723.085 20.4034V25H719.315V10.4774ZM749.732 25H745.975V13.5418H741.525L741.445 16.2465C741.401 17.7653 741.303 19.0977 741.152 20.2435C741.001 21.3893 740.752 22.3486 740.406 23.1214C740.068 23.8853 739.607 24.4626 739.02 24.8534C738.443 25.2443 737.701 25.4397 736.795 25.4397C736.369 25.4397 735.996 25.413 735.676 25.3597C735.356 25.3153 735.094 25.2487 734.89 25.1599V22.0022C735.014 22.0555 735.17 22.1044 735.356 22.1488C735.552 22.1932 735.787 22.2154 736.062 22.2154C736.347 22.2154 736.6 22.131 736.822 21.9622C737.044 21.7846 737.235 21.4693 737.395 21.0163C737.555 20.5544 737.679 19.9193 737.768 19.111C737.857 18.3027 737.914 17.259 737.941 15.98L738.048 10.4774H749.732V25ZM753.689 10.4774H757.46V19.4308H757.513L762.803 10.4774H766.76V25H763.003V16.2465H762.936L757.806 25H753.689V10.4774ZM773.075 18.9112C773.075 19.0444 773.089 19.222 773.115 19.4441C773.142 19.6662 773.195 19.906 773.275 20.1636C773.355 20.4212 773.47 20.6832 773.621 20.9497C773.772 21.2072 773.972 21.4426 774.221 21.6558C774.479 21.869 774.789 22.0422 775.154 22.1754C775.527 22.3087 775.971 22.3753 776.486 22.3753C776.752 22.3753 777.015 22.3397 777.272 22.2687C777.539 22.1887 777.783 22.0777 778.005 21.9356C778.227 21.7846 778.418 21.6069 778.578 21.4027C778.747 21.1895 778.866 20.9497 778.938 20.6832H782.841C782.841 20.9497 782.784 21.2561 782.668 21.6025C782.553 21.94 782.375 22.2864 782.135 22.6417C781.904 22.9882 781.611 23.3301 781.256 23.6676C780.901 24.0052 780.479 24.3072 779.99 24.5736C779.502 24.8312 778.946 25.04 778.325 25.1999C777.712 25.3597 777.028 25.4397 776.273 25.4397C775.305 25.4397 774.394 25.2931 773.542 25C772.698 24.7158 771.956 24.2628 771.316 23.641C770.686 23.0104 770.188 22.1976 769.824 21.2028C769.46 20.208 769.278 19 769.278 17.5788C769.278 16.5929 769.407 15.6469 769.664 14.7409C769.931 13.826 770.339 13.0222 770.89 12.3293C771.45 11.6365 772.16 11.0858 773.022 10.6772C773.892 10.2598 774.936 10.051 776.153 10.051C777.441 10.051 778.524 10.2642 779.404 10.6906C780.283 11.108 780.989 11.7031 781.522 12.4759C782.064 13.2487 782.45 14.1813 782.681 15.2738C782.912 16.3664 783.028 17.5788 783.028 18.9112H773.075ZM779.111 16.4063C779.111 15.7668 779.013 15.2339 778.818 14.8075C778.631 14.3812 778.391 14.0436 778.098 13.7949C777.814 13.5373 777.499 13.3597 777.152 13.262C776.806 13.1554 776.473 13.1021 776.153 13.1021C775.842 13.1021 775.513 13.1554 775.167 13.262C774.821 13.3597 774.501 13.5373 774.208 13.7949C773.923 14.0436 773.684 14.3812 773.488 14.8075C773.302 15.2339 773.208 15.7668 773.208 16.4063H779.111ZM785.559 10.4774H789.33V15.7268H794.872V10.4774H798.63V25H794.872V18.7779H789.33V25H785.559V10.4774ZM805.385 13.5418H800.988V10.4774H813.539V13.5418H809.142V25H805.385V13.5418Z" fill="black"/>
<path d="M1601.8 10.4774H1605.57V19.4308H1605.62L1610.91 10.4774H1614.87V25H1611.11V16.2465H1611.05L1605.92 25H1601.8V10.4774ZM1617.64 14.5011C1617.65 13.7017 1617.81 13.0222 1618.12 12.4626C1618.44 11.8941 1618.87 11.4322 1619.41 11.0769C1619.95 10.7216 1620.59 10.4641 1621.33 10.3042C1622.07 10.1354 1622.86 10.051 1623.72 10.051C1624.68 10.051 1625.5 10.1665 1626.19 10.3974C1626.89 10.6284 1627.46 10.9348 1627.91 11.3168C1628.37 11.6987 1628.7 12.1384 1628.91 12.6358C1629.13 13.1243 1629.23 13.6262 1629.23 14.1413C1629.23 14.5677 1629.17 14.9496 1629.05 15.2872C1628.92 15.6158 1628.75 15.9045 1628.54 16.1532C1628.33 16.393 1628.08 16.5929 1627.79 16.7527C1627.52 16.9126 1627.23 17.0325 1626.93 17.1125V17.1658C1627.43 17.2457 1627.86 17.3967 1628.22 17.6188C1628.57 17.832 1628.86 18.0895 1629.09 18.3915C1629.31 18.6935 1629.47 19.0266 1629.56 19.3908C1629.67 19.7461 1629.72 20.0969 1629.72 20.4434C1629.72 21.3494 1629.55 22.1177 1629.19 22.7483C1628.84 23.379 1628.37 23.8941 1627.79 24.2939C1627.22 24.6936 1626.58 24.9822 1625.86 25.1599C1625.15 25.3464 1624.44 25.4397 1623.72 25.4397C1622.77 25.4397 1621.91 25.3509 1621.12 25.1732C1620.34 25.0044 1619.66 24.7246 1619.09 24.3338C1618.53 23.9341 1618.09 23.4189 1617.77 22.7883C1617.45 22.1488 1617.29 21.3671 1617.28 20.4434H1620.88C1620.88 20.7809 1620.94 21.0918 1621.06 21.376C1621.19 21.6602 1621.36 21.9045 1621.58 22.1088C1621.81 22.3131 1622.07 22.473 1622.38 22.5884C1622.69 22.7039 1623.04 22.7617 1623.42 22.7617C1623.88 22.7617 1624.27 22.6906 1624.57 22.5485C1624.88 22.3975 1625.12 22.2109 1625.3 21.9889C1625.48 21.7668 1625.6 21.5314 1625.67 21.2827C1625.75 21.0252 1625.79 20.7898 1625.79 20.5766C1625.79 19.8838 1625.6 19.3997 1625.22 19.1243C1624.85 18.8401 1624.25 18.698 1623.42 18.698H1621.69V16.1798H1623.14C1623.99 16.1798 1624.58 16.0333 1624.93 15.7402C1625.28 15.447 1625.46 15.0207 1625.46 14.4611C1625.46 14.1325 1625.41 13.8571 1625.3 13.635C1625.2 13.413 1625.06 13.2353 1624.87 13.1021C1624.7 12.96 1624.48 12.8623 1624.24 12.809C1623.99 12.7468 1623.72 12.7157 1623.42 12.7157C1622.76 12.7157 1622.21 12.8712 1621.8 13.182C1621.39 13.484 1621.18 13.9237 1621.18 14.5011H1617.64ZM1644.81 5.18794C1644.82 5.93406 1644.69 6.54694 1644.42 7.02659C1644.15 7.49735 1643.8 7.87929 1643.35 8.17241C1642.92 8.45665 1642.41 8.66538 1641.84 8.79862C1641.27 8.92297 1640.68 9.00735 1640.08 9.05176C1639.66 9.08729 1639.23 9.14503 1638.78 9.22497C1638.34 9.29603 1637.91 9.4115 1637.48 9.57138C1637.05 9.72238 1636.65 9.92667 1636.27 10.1843C1635.88 10.433 1635.54 10.7438 1635.24 11.1169C1634.94 11.49 1634.69 11.9341 1634.49 12.4493C1634.3 12.9644 1634.18 13.5684 1634.13 14.2613C1634.28 13.7994 1634.5 13.3641 1634.81 12.9555C1635.13 12.5381 1635.51 12.1783 1635.97 11.8763C1636.44 11.5655 1636.99 11.3212 1637.6 11.1436C1638.21 10.957 1638.89 10.8638 1639.64 10.8638C1640.63 10.8638 1641.53 11.0325 1642.33 11.3701C1643.13 11.6987 1643.81 12.165 1644.37 12.769C1644.93 13.373 1645.35 14.1014 1645.65 14.9541C1645.95 15.8068 1646.1 16.7527 1646.1 17.792C1646.1 18.9467 1645.93 19.9948 1645.58 20.9363C1645.24 21.8779 1644.75 22.6862 1644.11 23.3612C1643.48 24.0274 1642.71 24.547 1641.8 24.9201C1640.88 25.2842 1639.85 25.4663 1638.7 25.4663C1637.03 25.4663 1635.65 25.1244 1634.56 24.4404C1633.47 23.7565 1632.63 22.6417 1632.04 21.0962C1631.85 20.5722 1631.7 20.017 1631.59 19.4308C1631.48 18.8445 1631.4 18.2938 1631.35 17.7787C1631.31 17.2635 1631.28 16.8149 1631.27 16.433C1631.26 16.051 1631.26 15.7979 1631.26 15.6735C1631.26 14.2879 1631.42 13.0222 1631.74 11.8763C1632.06 10.7216 1632.56 9.71794 1633.26 8.86523C1633.96 8.01253 1634.85 7.32415 1635.95 6.80009C1637.05 6.27603 1638.38 5.94294 1639.94 5.80083C1640.44 5.75641 1640.79 5.67647 1641 5.561C1641.21 5.43665 1641.34 5.3123 1641.4 5.18794H1644.81ZM1635.21 17.7387C1635.21 18.2894 1635.27 18.8357 1635.39 19.3775C1635.51 19.9104 1635.71 20.3901 1635.99 20.8164C1636.26 21.2339 1636.62 21.5714 1637.07 21.829C1637.51 22.0866 1638.06 22.2154 1638.7 22.2154C1639.39 22.2154 1639.95 22.091 1640.4 21.8423C1640.85 21.5847 1641.21 21.2517 1641.48 20.8431C1641.74 20.4256 1641.93 19.9504 1642.04 19.4175C1642.14 18.8756 1642.2 18.316 1642.2 17.7387C1642.2 17.1702 1642.13 16.6373 1642.01 16.1399C1641.88 15.6425 1641.69 15.2117 1641.42 14.8475C1641.16 14.4744 1640.81 14.1858 1640.38 13.9815C1639.96 13.7683 1639.44 13.6617 1638.84 13.6617C1638.19 13.6617 1637.63 13.7727 1637.17 13.9948C1636.72 14.208 1636.35 14.5011 1636.05 14.8741C1635.76 15.2472 1635.55 15.6824 1635.41 16.1798C1635.28 16.6684 1635.21 17.188 1635.21 17.7387ZM1660.54 22.1354C1660.54 22.5707 1660.56 22.9304 1660.61 23.2147C1660.66 23.49 1660.73 23.7121 1660.81 23.8808C1660.89 24.0407 1660.98 24.1606 1661.07 24.2406C1661.18 24.3116 1661.29 24.3649 1661.41 24.4004V25H1657.24C1657.17 24.8312 1657.09 24.6092 1657 24.3338C1656.92 24.0496 1656.88 23.7076 1656.88 23.3079C1656.58 23.6099 1656.3 23.8897 1656.01 24.1473C1655.74 24.4049 1655.43 24.6314 1655.08 24.8268C1654.73 25.0133 1654.33 25.1599 1653.88 25.2665C1653.43 25.3819 1652.88 25.4397 1652.24 25.4397C1651.59 25.4397 1650.99 25.342 1650.44 25.1466C1649.9 24.96 1649.43 24.6802 1649.03 24.3072C1648.63 23.9341 1648.32 23.4678 1648.1 22.9082C1647.88 22.3486 1647.76 21.7002 1647.76 20.963C1647.76 20.3679 1647.86 19.8172 1648.04 19.3109C1648.23 18.7957 1648.49 18.3471 1648.83 17.9652C1649.18 17.5744 1649.59 17.2546 1650.08 17.0059C1650.58 16.7483 1651.14 16.5751 1651.75 16.4863L1655.44 15.94C1655.57 15.9223 1655.71 15.8956 1655.87 15.8601C1656.03 15.8245 1656.17 15.7668 1656.31 15.6869C1656.44 15.598 1656.55 15.4826 1656.64 15.3405C1656.73 15.1895 1656.77 14.9896 1656.77 14.7409C1656.77 14.5011 1656.73 14.2835 1656.65 14.088C1656.58 13.8838 1656.46 13.7105 1656.28 13.5684C1656.1 13.4174 1655.86 13.302 1655.56 13.222C1655.27 13.1421 1654.9 13.1021 1654.45 13.1021C1653.95 13.1021 1653.54 13.1554 1653.23 13.262C1652.93 13.3597 1652.69 13.5018 1652.51 13.6883C1652.33 13.866 1652.2 14.0792 1652.12 14.3279C1652.04 14.5677 1651.98 14.8253 1651.95 15.1006H1648.18C1648.18 14.923 1648.2 14.6787 1648.26 14.3678C1648.32 14.0481 1648.43 13.7017 1648.58 13.3286C1648.74 12.9555 1648.96 12.5781 1649.23 12.1961C1649.51 11.8142 1649.88 11.4678 1650.34 11.1569C1650.8 10.8371 1651.36 10.5751 1652.01 10.3708C1652.67 10.1665 1653.46 10.0599 1654.37 10.051C1655.67 10.051 1656.72 10.1843 1657.52 10.4507C1658.33 10.7083 1658.95 11.0503 1659.4 11.4766C1659.85 11.8941 1660.15 12.3649 1660.3 12.8889C1660.46 13.4041 1660.54 13.9193 1660.54 14.4345V22.1354ZM1656.77 17.9119C1656.54 18.0362 1656.31 18.1517 1656.08 18.2583C1655.85 18.356 1655.54 18.4404 1655.16 18.5115L1654.16 18.698C1653.72 18.7779 1653.34 18.8712 1653.01 18.9778C1652.69 19.0844 1652.41 19.2265 1652.19 19.4041C1651.98 19.5729 1651.81 19.7816 1651.7 20.0303C1651.59 20.279 1651.54 20.5899 1651.54 20.963C1651.54 21.2739 1651.58 21.5448 1651.68 21.7757C1651.78 21.9978 1651.91 22.1843 1652.08 22.3353C1652.26 22.4774 1652.46 22.584 1652.69 22.6551C1652.93 22.7261 1653.17 22.7617 1653.44 22.7617C1653.58 22.7617 1653.76 22.7483 1653.99 22.7217C1654.21 22.6862 1654.44 22.624 1654.69 22.5352C1654.94 22.4463 1655.19 22.3264 1655.44 22.1754C1655.69 22.0155 1655.91 21.8112 1656.11 21.5625C1656.3 21.3138 1656.46 21.0118 1656.58 20.6565C1656.71 20.2924 1656.77 19.866 1656.77 19.3775V17.9119ZM1667.87 16.1798H1670.77C1671.2 16.1798 1671.56 16.1488 1671.84 16.0866C1672.12 16.0155 1672.35 15.9178 1672.51 15.7935C1672.68 15.6602 1672.79 15.5003 1672.85 15.3138C1672.92 15.1184 1672.96 14.8919 1672.96 14.6343C1672.96 14.4211 1672.92 14.2257 1672.85 14.0481C1672.79 13.8615 1672.68 13.7061 1672.52 13.5818C1672.36 13.4485 1672.15 13.3464 1671.88 13.2753C1671.61 13.1954 1671.28 13.1554 1670.88 13.1554H1667.87V16.1798ZM1664.1 10.4774H1671.61C1672.28 10.4774 1672.92 10.5351 1673.53 10.6506C1674.15 10.7661 1674.7 10.9703 1675.17 11.2635C1675.64 11.5477 1676.02 11.9385 1676.29 12.4359C1676.57 12.9245 1676.72 13.5462 1676.72 14.3012C1676.72 14.7365 1676.67 15.114 1676.57 15.4337C1676.48 15.7535 1676.36 16.0288 1676.2 16.2598C1676.04 16.4818 1675.85 16.6728 1675.64 16.8327C1675.43 16.9837 1675.22 17.1125 1675 17.2191C1675.73 17.4767 1676.28 17.8897 1676.66 18.4582C1677.05 19.0177 1677.24 19.6884 1677.24 20.47C1677.24 21.1539 1677.12 21.7757 1676.88 22.3353C1676.65 22.886 1676.31 23.3612 1675.88 23.7609C1675.45 24.1517 1674.93 24.4582 1674.31 24.6802C1673.69 24.8934 1673 25 1672.24 25H1664.1V10.4774ZM1667.87 22.322H1670.77C1671.32 22.322 1671.75 22.2642 1672.08 22.1488C1672.42 22.0333 1672.68 21.8867 1672.85 21.7091C1673.04 21.5314 1673.16 21.336 1673.21 21.1229C1673.27 20.9097 1673.31 20.7098 1673.31 20.5233C1673.31 20.168 1673.26 19.8749 1673.16 19.644C1673.07 19.4041 1672.92 19.2132 1672.72 19.071C1672.52 18.9289 1672.26 18.8312 1671.93 18.7779C1671.61 18.7246 1671.23 18.698 1670.77 18.698H1667.87V22.322ZM1680.25 10.4774H1684.02V15.527H1687.87C1688.77 15.527 1689.57 15.6203 1690.27 15.8068C1690.98 15.9933 1691.58 16.282 1692.07 16.6728C1692.55 17.0636 1692.93 17.561 1693.18 18.165C1693.44 18.7602 1693.57 19.4663 1693.57 20.2835C1693.57 21.0207 1693.46 21.6514 1693.25 22.1754C1693.04 22.6995 1692.76 23.1392 1692.43 23.4944C1692.1 23.8409 1691.73 24.1162 1691.32 24.3205C1690.91 24.5159 1690.51 24.6669 1690.12 24.7735C1689.73 24.8712 1689.37 24.9334 1689.03 24.96C1688.7 24.9867 1688.45 25 1688.27 25H1680.25V10.4774ZM1684.02 22.1621H1687.2C1687.5 22.1621 1687.78 22.1399 1688.07 22.0955C1688.36 22.0422 1688.62 21.9489 1688.85 21.8157C1689.09 21.6736 1689.29 21.4826 1689.43 21.2428C1689.57 20.9941 1689.64 20.6743 1689.64 20.2835C1689.64 19.9015 1689.57 19.5862 1689.41 19.3375C1689.27 19.0888 1689.07 18.8934 1688.81 18.7513C1688.57 18.6092 1688.27 18.5115 1687.94 18.4582C1687.61 18.396 1687.26 18.3649 1686.88 18.3649H1684.02V22.1621ZM1699.19 13.5418H1694.8V10.4774H1707.35V13.5418H1702.95V25H1699.19V13.5418ZM1712.4 18.9112C1712.4 19.0444 1712.41 19.222 1712.44 19.4441C1712.46 19.6662 1712.52 19.906 1712.6 20.1636C1712.68 20.4212 1712.79 20.6832 1712.94 20.9497C1713.09 21.2072 1713.29 21.4426 1713.54 21.6558C1713.8 21.869 1714.11 22.0422 1714.48 22.1754C1714.85 22.3087 1715.29 22.3753 1715.81 22.3753C1716.07 22.3753 1716.34 22.3397 1716.59 22.2687C1716.86 22.1887 1717.1 22.0777 1717.33 21.9356C1717.55 21.7846 1717.74 21.6069 1717.9 21.4027C1718.07 21.1895 1718.19 20.9497 1718.26 20.6832H1722.16C1722.16 20.9497 1722.11 21.2561 1721.99 21.6025C1721.87 21.94 1721.7 22.2864 1721.46 22.6417C1721.23 22.9882 1720.93 23.3301 1720.58 23.6676C1720.22 24.0052 1719.8 24.3072 1719.31 24.5736C1718.82 24.8312 1718.27 25.04 1717.65 25.1999C1717.03 25.3597 1716.35 25.4397 1715.59 25.4397C1714.63 25.4397 1713.72 25.2931 1712.86 25C1712.02 24.7158 1711.28 24.2628 1710.64 23.641C1710.01 23.0104 1709.51 22.1976 1709.15 21.2028C1708.78 20.208 1708.6 19 1708.6 17.5788C1708.6 16.5929 1708.73 15.6469 1708.99 14.7409C1709.25 13.826 1709.66 13.0222 1710.21 12.3293C1710.77 11.6365 1711.48 11.0858 1712.34 10.6772C1713.21 10.2598 1714.26 10.051 1715.47 10.051C1716.76 10.051 1717.85 10.2642 1718.73 10.6906C1719.61 11.108 1720.31 11.7031 1720.84 12.4759C1721.39 13.2487 1721.77 14.1813 1722 15.2738C1722.23 16.3664 1722.35 17.5788 1722.35 18.9112H1712.4ZM1718.43 16.4063C1718.43 15.7668 1718.33 15.2339 1718.14 14.8075C1717.95 14.3812 1717.71 14.0436 1717.42 13.7949C1717.14 13.5373 1716.82 13.3597 1716.47 13.262C1716.13 13.1554 1715.79 13.1021 1715.47 13.1021C1715.16 13.1021 1714.84 13.1554 1714.49 13.262C1714.14 13.3597 1713.82 13.5373 1713.53 13.7949C1713.25 14.0436 1713.01 14.3812 1712.81 14.8075C1712.62 15.2339 1712.53 15.7668 1712.53 16.4063H1718.43ZM1733.39 15.6069C1733.32 15.225 1733.23 14.8919 1733.1 14.6077C1732.98 14.3145 1732.81 14.0703 1732.61 13.8749C1732.41 13.6706 1732.17 13.5196 1731.88 13.4219C1731.59 13.3153 1731.25 13.262 1730.84 13.262C1730.21 13.262 1729.7 13.4085 1729.32 13.7017C1728.94 13.9948 1728.66 14.3634 1728.45 14.8075C1728.25 15.2516 1728.11 15.7357 1728.04 16.2598C1727.98 16.7838 1727.95 17.2768 1727.95 17.7387C1727.95 18.2183 1727.97 18.7246 1728.03 19.2576C1728.08 19.7816 1728.2 20.2657 1728.4 20.7098C1728.59 21.1451 1728.88 21.5048 1729.26 21.789C1729.65 22.0733 1730.17 22.2154 1730.84 22.2154C1731.27 22.2154 1731.65 22.131 1731.97 21.9622C1732.29 21.7846 1732.56 21.567 1732.77 21.3094C1732.98 21.0518 1733.14 20.7764 1733.24 20.4833C1733.34 20.1902 1733.39 19.9237 1733.39 19.6839H1737.33C1737.33 19.9237 1737.28 20.2346 1737.19 20.6166C1737.11 20.9985 1736.97 21.4027 1736.78 21.829C1736.58 22.2554 1736.32 22.6862 1735.99 23.1214C1735.67 23.5477 1735.27 23.9341 1734.78 24.2805C1734.3 24.6181 1733.74 24.8934 1733.09 25.1066C1732.44 25.3286 1731.69 25.4397 1730.84 25.4397C1729.73 25.4397 1728.75 25.2709 1727.89 24.9334C1727.05 24.5959 1726.34 24.1029 1725.76 23.4545C1725.19 22.7972 1724.76 21.9889 1724.45 21.0296C1724.16 20.0703 1724.02 18.9733 1724.02 17.7387C1724.02 16.504 1724.18 15.4115 1724.49 14.4611C1724.82 13.5018 1725.29 12.698 1725.88 12.0496C1726.48 11.3923 1727.19 10.8948 1728.03 10.5573C1728.87 10.2198 1729.81 10.051 1730.84 10.051C1731.28 10.051 1731.74 10.0866 1732.21 10.1576C1732.69 10.2287 1733.16 10.353 1733.62 10.5307C1734.08 10.6994 1734.52 10.9215 1734.94 11.1968C1735.37 11.4722 1735.74 11.8186 1736.07 12.2361C1736.41 12.6447 1736.69 13.1288 1736.9 13.6883C1737.12 14.239 1737.26 14.8786 1737.33 15.6069H1733.39ZM1740.04 10.4774H1743.81V15.527H1747.66C1748.56 15.527 1749.36 15.6203 1750.06 15.8068C1750.77 15.9933 1751.37 16.282 1751.86 16.6728C1752.35 17.0636 1752.72 17.561 1752.98 18.165C1753.24 18.7602 1753.37 19.4663 1753.37 20.2835C1753.37 21.0207 1753.26 21.6514 1753.05 22.1754C1752.83 22.6995 1752.56 23.1392 1752.22 23.4944C1751.89 23.8409 1751.52 24.1162 1751.12 24.3205C1750.71 24.5159 1750.31 24.6669 1749.92 24.7735C1749.53 24.8712 1749.16 24.9334 1748.82 24.96C1748.49 24.9867 1748.24 25 1748.06 25H1740.04V10.4774ZM1743.81 22.1621H1747C1747.29 22.1621 1747.58 22.1399 1747.86 22.0955C1748.16 22.0422 1748.42 21.9489 1748.65 21.8157C1748.89 21.6736 1749.08 21.4826 1749.22 21.2428C1749.37 20.9941 1749.44 20.6743 1749.44 20.2835C1749.44 19.9015 1749.36 19.5862 1749.21 19.3375C1749.07 19.0888 1748.87 18.8934 1748.61 18.7513C1748.36 18.6092 1748.07 18.5115 1747.73 18.4582C1747.4 18.396 1747.05 18.3649 1746.68 18.3649H1743.81V22.1621ZM1937.24 17.7387C1937.24 16.6195 1937.41 15.5892 1937.75 14.6476C1938.1 13.7061 1938.59 12.8978 1939.23 12.2228C1939.88 11.5388 1940.66 11.0059 1941.57 10.6239C1942.49 10.242 1943.52 10.051 1944.67 10.051C1945.83 10.051 1946.87 10.242 1947.78 10.6239C1948.71 11.0059 1949.48 11.5388 1950.12 12.2228C1950.75 12.8978 1951.24 13.7061 1951.58 14.6476C1951.92 15.5892 1952.09 16.6195 1952.09 17.7387C1952.09 18.8579 1951.92 19.8882 1951.58 20.8297C1951.24 21.7713 1950.75 22.584 1950.12 23.2679C1949.48 23.9519 1948.71 24.4848 1947.78 24.8668C1946.87 25.2487 1945.83 25.4397 1944.67 25.4397C1943.52 25.4397 1942.49 25.2487 1941.57 24.8668C1940.66 24.4848 1939.88 23.9519 1939.23 23.2679C1938.59 22.584 1938.1 21.7713 1937.75 20.8297C1937.41 19.8882 1937.24 18.8579 1937.24 17.7387ZM1941.18 17.7387C1941.18 18.2894 1941.23 18.8357 1941.35 19.3775C1941.47 19.9104 1941.67 20.3901 1941.95 20.8164C1942.22 21.2339 1942.58 21.5714 1943.03 21.829C1943.47 22.0866 1944.02 22.2154 1944.67 22.2154C1945.34 22.2154 1945.9 22.091 1946.34 21.8423C1946.8 21.5847 1947.16 21.2517 1947.42 20.8431C1947.69 20.4256 1947.88 19.9504 1947.98 19.4175C1948.1 18.8756 1948.16 18.316 1948.16 17.7387C1948.16 17.1702 1948.1 16.6151 1947.98 16.0733C1947.88 15.5314 1947.69 15.0562 1947.42 14.6476C1947.16 14.2302 1946.8 13.8971 1946.34 13.6484C1945.9 13.3908 1945.34 13.262 1944.67 13.262C1944.02 13.262 1943.47 13.3908 1943.03 13.6484C1942.58 13.906 1942.22 14.2479 1941.95 14.6743C1941.67 15.0918 1941.47 15.5714 1941.35 16.1132C1941.23 16.6462 1941.18 17.188 1941.18 17.7387ZM1957.96 13.5418H1953.57V10.4774H1966.12V13.5418H1961.72V25H1957.96V13.5418Z" fill="black"/>
</svg>
