<svg width="1740" height="22" viewBox="0 0 1740 22" fill="none" xmlns="http://www.w3.org/2000/svg">
<path d="M3.99081 9.00714C3.99081 10.8808 4.14444 12.316 4.45172 13.3127C4.75899 14.302 5.38853 14.7966 6.34032 14.7966C7.29212 14.7966 7.91416 14.302 8.20645 13.3127C8.50623 12.316 8.65612 10.8808 8.65612 9.00714C8.65612 7.04359 8.50623 5.58967 8.20645 4.64536C7.91416 3.70106 7.29212 3.22891 6.34032 3.22891C5.38853 3.22891 4.75899 3.70106 4.45172 4.64536C4.14444 5.58967 3.99081 7.04359 3.99081 9.00714ZM6.34032 0.587105C8.41629 0.587105 9.87022 1.31782 10.7021 2.77924C11.5415 4.24066 11.9612 6.31663 11.9612 9.00714C11.9612 11.6977 11.5415 13.7699 10.7021 15.2238C9.87022 16.6777 8.41629 17.4047 6.34032 17.4047C4.26435 17.4047 2.80668 16.6777 1.9673 15.2238C1.13541 13.7699 0.719469 11.6977 0.719469 9.00714C0.719469 6.31663 1.13541 4.24066 1.9673 2.77924C2.80668 1.31782 4.26435 0.587105 6.34032 0.587105ZM14.4119 5.75829V3.5774C15.4236 3.53243 16.1319 3.46498 16.5366 3.37505C17.1811 3.23265 17.7057 2.94786 18.1104 2.52068C18.3877 2.22839 18.5975 1.83868 18.7399 1.35154C18.8224 1.05926 18.8636 0.841917 18.8636 0.699522H21.5279V17H18.2453V5.75829H14.4119ZM80.8841 9.00714C80.8841 10.8808 81.0377 12.316 81.345 13.3127C81.6523 14.302 82.2818 14.7966 83.2336 14.7966C84.1854 14.7966 84.8075 14.302 85.0997 13.3127C85.3995 12.316 85.5494 10.8808 85.5494 9.00714C85.5494 7.04359 85.3995 5.58967 85.0997 4.64536C84.8075 3.70106 84.1854 3.22891 83.2336 3.22891C82.2818 3.22891 81.6523 3.70106 81.345 4.64536C81.0377 5.58967 80.8841 7.04359 80.8841 9.00714ZM83.2336 0.587105C85.3096 0.587105 86.7635 1.31782 87.5954 2.77924C88.4348 4.24066 88.8545 6.31663 88.8545 9.00714C88.8545 11.6977 88.4348 13.7699 87.5954 15.2238C86.7635 16.6777 85.3096 17.4047 83.2336 17.4047C81.1576 17.4047 79.7 16.6777 78.8606 15.2238C78.0287 13.7699 77.6128 11.6977 77.6128 9.00714C77.6128 6.31663 78.0287 4.24066 78.8606 2.77924C79.7 1.31782 81.1576 0.587105 83.2336 0.587105ZM90.4283 17C90.4583 15.8309 90.7093 14.7629 91.1815 13.7961C91.6387 12.7094 92.7179 11.559 94.4191 10.3449C95.8955 9.28819 96.8511 8.53125 97.2857 8.07408C97.9528 7.36211 98.2863 6.58268 98.2863 5.73581C98.2863 5.04632 98.0951 4.47299 97.7129 4.01583C97.3307 3.55866 96.7836 3.33008 96.0716 3.33008C95.0974 3.33008 94.4341 3.69356 94.0819 4.42053C93.8795 4.84022 93.7596 5.50723 93.7221 6.42155H90.6082C90.6606 5.03507 90.9117 3.91465 91.3614 3.06028C92.2157 1.43398 93.7334 0.62083 95.9143 0.62083C97.638 0.62083 99.0095 1.10048 100.029 2.05977C101.048 3.01157 101.558 4.27439 101.558 5.84822C101.558 7.05483 101.198 8.12654 100.478 9.06335C100.006 9.68539 99.2306 10.3786 98.1514 11.1431L96.8698 12.0536C96.0679 12.6232 95.517 13.0354 95.2173 13.2902C94.925 13.545 94.6777 13.8411 94.4753 14.1783H101.591V17H90.4283ZM103.963 13.65H107.37V17H103.963V13.65ZM112.923 9.00714C112.923 10.8808 113.077 12.316 113.384 13.3127C113.691 14.302 114.321 14.7966 115.272 14.7966C116.224 14.7966 116.846 14.302 117.139 13.3127C117.438 12.316 117.588 10.8808 117.588 9.00714C117.588 7.04359 117.438 5.58967 117.139 4.64536C116.846 3.70106 116.224 3.22891 115.272 3.22891C114.321 3.22891 113.691 3.70106 113.384 4.64536C113.077 5.58967 112.923 7.04359 112.923 9.00714ZM115.272 0.587105C117.348 0.587105 118.802 1.31782 119.634 2.77924C120.474 4.24066 120.893 6.31663 120.893 9.00714C120.893 11.6977 120.474 13.7699 119.634 15.2238C118.802 16.6777 117.348 17.4047 115.272 17.4047C113.197 17.4047 111.739 16.6777 110.899 15.2238C110.068 13.7699 109.652 11.6977 109.652 9.00714C109.652 6.31663 110.068 4.24066 110.899 2.77924C111.739 1.31782 113.197 0.587105 115.272 0.587105ZM122.467 17C122.497 15.8309 122.748 14.7629 123.22 13.7961C123.678 12.7094 124.757 11.559 126.458 10.3449C127.934 9.28819 128.89 8.53125 129.325 8.07408C129.992 7.36211 130.325 6.58268 130.325 5.73581C130.325 5.04632 130.134 4.47299 129.752 4.01583C129.37 3.55866 128.822 3.33008 128.111 3.33008C127.136 3.33008 126.473 3.69356 126.121 4.42053C125.918 4.84022 125.798 5.50723 125.761 6.42155H122.647C122.7 5.03507 122.951 3.91465 123.4 3.06028C124.255 1.43398 125.772 0.62083 127.953 0.62083C129.677 0.62083 131.048 1.10048 132.068 2.05977C133.087 3.01157 133.596 4.27439 133.596 5.84822C133.596 7.05483 133.237 8.12654 132.517 9.06335C132.045 9.68539 131.269 10.3786 130.19 11.1431L128.909 12.0536C128.107 12.6232 127.556 13.0354 127.256 13.2902C126.964 13.545 126.717 13.8411 126.514 14.1783H133.63V17H122.467ZM177.001 9.00714C177.001 10.8808 177.154 12.316 177.462 13.3127C177.769 14.302 178.398 14.7966 179.35 14.7966C180.302 14.7966 180.924 14.302 181.216 13.3127C181.516 12.316 181.666 10.8808 181.666 9.00714C181.666 7.04359 181.516 5.58967 181.216 4.64536C180.924 3.70106 180.302 3.22891 179.35 3.22891C178.398 3.22891 177.769 3.70106 177.462 4.64536C177.154 5.58967 177.001 7.04359 177.001 9.00714ZM179.35 0.587105C181.426 0.587105 182.88 1.31782 183.712 2.77924C184.551 4.24066 184.971 6.31663 184.971 9.00714C184.971 11.6977 184.551 13.7699 183.712 15.2238C182.88 16.6777 181.426 17.4047 179.35 17.4047C177.274 17.4047 175.817 16.6777 174.977 15.2238C174.145 13.7699 173.729 11.6977 173.729 9.00714C173.729 6.31663 174.145 4.24066 174.977 2.77924C175.817 1.31782 177.274 0.587105 179.35 0.587105ZM197.865 13.4926H196.022V17H192.885V13.4926H186.432V10.6934L192.424 0.800698H196.022V10.9857H197.865V13.4926ZM192.885 10.9857V3.94838L188.804 10.9857H192.885ZM219.854 19.3495L220.259 19.372C220.574 19.387 220.873 19.3757 221.158 19.3383C221.443 19.3008 221.683 19.2146 221.878 19.0797C222.065 18.9523 222.237 18.6863 222.395 18.2816C222.56 17.8769 222.627 17.6295 222.597 17.5396L218.1 4.74654H221.664L224.34 13.7849L226.869 4.74654H230.275L226.071 16.7976C225.261 19.1209 224.621 20.5599 224.148 21.1145C223.676 21.6766 222.732 21.9576 221.316 21.9576C221.031 21.9576 220.802 21.9538 220.63 21.9464C220.457 21.9464 220.199 21.9351 219.854 21.9126V19.3495ZM235.368 4.74654V12.1323C235.368 12.8293 235.45 13.3539 235.615 13.7062C235.907 14.3282 236.481 14.6392 237.335 14.6392C238.429 14.6392 239.179 14.1971 239.583 13.3127C239.793 12.8331 239.898 12.1998 239.898 11.4129V4.74654H243.147V17H240.033V15.2688C240.003 15.3062 239.928 15.4187 239.808 15.606C239.688 15.7934 239.546 15.9583 239.381 16.1007C238.879 16.5503 238.392 16.8576 237.92 17.0225C237.455 17.1874 236.908 17.2698 236.278 17.2698C234.465 17.2698 233.243 16.6178 232.613 15.3137C232.261 14.5943 232.085 13.5338 232.085 12.1323V4.74654H235.368ZM246.216 0.48593H249.364V9.41185L253.354 4.80275H257.323L253.04 9.49054L257.491 17H253.624L250.69 11.7614L249.364 13.1441V17H246.216V0.48593ZM262.359 3.28512H259.11V0.328546H262.359V3.28512ZM259.11 4.74654H262.359V17H259.11V4.74654ZM272.701 4.61164C273.293 3.23265 274.159 1.74875 275.298 0.15992H277.715L277.029 1.41899C276.085 3.15021 275.429 4.96388 275.062 6.85998C274.822 8.10406 274.702 9.46056 274.702 10.9295C274.702 13.2228 275.036 15.3325 275.703 17.2586C276.093 18.3977 276.782 19.8591 277.771 21.6428H275.399L274.601 20.5524C274.084 19.8929 273.533 18.9111 272.949 17.6071C271.907 15.2763 271.386 12.983 271.386 10.7271C271.386 8.67364 271.825 6.63514 272.701 4.61164ZM280.762 0.15992C281.901 1.74875 282.766 3.23265 283.359 4.61164C284.235 6.63514 284.674 8.67364 284.674 10.7271C284.674 12.983 284.153 15.2763 283.111 17.6071C282.527 18.9111 281.976 19.8929 281.459 20.5524L280.661 21.6428H278.289C279.278 19.8591 279.967 18.3977 280.357 17.2586C281.024 15.3325 281.357 13.2228 281.357 10.9295C281.357 9.46056 281.238 8.10406 280.998 6.85998C280.631 4.96388 279.975 3.15021 279.03 1.41899L278.345 0.15992H280.762ZM520.39 9.00714C520.39 10.8808 520.544 12.316 520.851 13.3127C521.158 14.302 521.788 14.7966 522.739 14.7966C523.691 14.7966 524.313 14.302 524.606 13.3127C524.905 12.316 525.055 10.8808 525.055 9.00714C525.055 7.04359 524.905 5.58967 524.606 4.64536C524.313 3.70106 523.691 3.22891 522.739 3.22891C521.788 3.22891 521.158 3.70106 520.851 4.64536C520.544 5.58967 520.39 7.04359 520.39 9.00714ZM522.739 0.587105C524.815 0.587105 526.269 1.31782 527.101 2.77924C527.941 4.24066 528.36 6.31663 528.36 9.00714C528.36 11.6977 527.941 13.7699 527.101 15.2238C526.269 16.6777 524.815 17.4047 522.739 17.4047C520.663 17.4047 519.206 16.6777 518.366 15.2238C517.535 13.7699 517.119 11.6977 517.119 9.00714C517.119 6.31663 517.535 4.24066 518.366 2.77924C519.206 1.31782 520.663 0.587105 522.739 0.587105ZM529.9 6.43279C529.9 4.68658 530.403 3.27387 531.407 2.19467C532.419 1.10797 533.73 0.564622 535.341 0.564622C537.822 0.564622 539.523 1.66256 540.445 3.85844C540.97 5.10252 541.232 6.74007 541.232 8.77107C541.232 10.7421 540.981 12.3872 540.479 13.7062C539.52 16.2168 537.758 17.4722 535.195 17.4722C533.974 17.4722 532.876 17.1124 531.901 16.3929C530.927 15.666 530.369 14.6093 530.226 13.2228H533.419C533.494 13.7024 533.696 14.0921 534.026 14.3919C534.356 14.6917 534.794 14.8416 535.341 14.8416C536.398 14.8416 537.14 14.257 537.567 13.0879C537.8 12.4434 537.946 11.5028 538.006 10.2662C537.713 10.6334 537.402 10.9145 537.073 11.1093C536.473 11.4691 535.735 11.6489 534.858 11.6489C533.561 11.6489 532.411 11.203 531.407 10.3112C530.403 9.41185 529.9 8.11905 529.9 6.43279ZM535.555 9.04087C535.997 9.04087 536.413 8.91346 536.803 8.65865C537.53 8.19399 537.893 7.38834 537.893 6.24168C537.893 5.31986 537.676 4.58915 537.241 4.04955C536.814 3.50995 536.226 3.24015 535.476 3.24015C534.929 3.24015 534.461 3.39379 534.071 3.70106C533.457 4.1807 533.149 4.99385 533.149 6.14051C533.149 7.1073 533.344 7.83426 533.734 8.3214C534.131 8.80105 534.738 9.04087 535.555 9.04087ZM554.171 3.42002C553.692 3.89217 553.025 4.7353 552.17 5.9494C551.316 7.15601 550.6 8.40384 550.023 9.69289C549.566 10.7046 549.154 11.9412 548.786 13.4027C548.419 14.8641 548.236 16.0632 548.236 17H544.908C545.006 14.0772 545.965 11.0381 547.786 7.88297C548.963 5.92692 549.948 4.56292 550.743 3.79099H542.615L542.66 0.913115H554.171V3.42002ZM556.285 13.65H559.691V17H556.285V13.65ZM633.335 5.75829V3.5774C634.347 3.53243 635.055 3.46498 635.46 3.37505C636.105 3.23265 636.629 2.94786 637.034 2.52068C637.311 2.22839 637.521 1.83868 637.663 1.35154C637.746 1.05926 637.787 0.841917 637.787 0.699522H640.451V17H637.169V5.75829H633.335ZM648.545 9.00714C648.545 10.8808 648.699 12.316 649.006 13.3127C649.314 14.302 649.943 14.7966 650.895 14.7966C651.847 14.7966 652.469 14.302 652.761 13.3127C653.061 12.316 653.211 10.8808 653.211 9.00714C653.211 7.04359 653.061 5.58967 652.761 4.64536C652.469 3.70106 651.847 3.22891 650.895 3.22891C649.943 3.22891 649.314 3.70106 649.006 4.64536C648.699 5.58967 648.545 7.04359 648.545 9.00714ZM650.895 0.587105C652.971 0.587105 654.425 1.31782 655.257 2.77924C656.096 4.24066 656.516 6.31663 656.516 9.00714C656.516 11.6977 656.096 13.7699 655.257 15.2238C654.425 16.6777 652.971 17.4047 650.895 17.4047C648.819 17.4047 647.361 16.6777 646.522 15.2238C645.69 13.7699 645.274 11.6977 645.274 9.00714C645.274 6.31663 645.69 4.24066 646.522 2.77924C647.361 1.31782 648.819 0.587105 650.895 0.587105ZM661.361 9.00714C661.361 10.8808 661.515 12.316 661.822 13.3127C662.129 14.302 662.759 14.7966 663.711 14.7966C664.662 14.7966 665.284 14.302 665.577 13.3127C665.876 12.316 666.026 10.8808 666.026 9.00714C666.026 7.04359 665.876 5.58967 665.577 4.64536C665.284 3.70106 664.662 3.22891 663.711 3.22891C662.759 3.22891 662.129 3.70106 661.822 4.64536C661.515 5.58967 661.361 7.04359 661.361 9.00714ZM663.711 0.587105C665.786 0.587105 667.24 1.31782 668.072 2.77924C668.912 4.24066 669.331 6.31663 669.331 9.00714C669.331 11.6977 668.912 13.7699 668.072 15.2238C667.24 16.6777 665.786 17.4047 663.711 17.4047C661.635 17.4047 660.177 16.6777 659.337 15.2238C658.506 13.7699 658.09 11.6977 658.09 9.00714C658.09 6.31663 658.506 4.24066 659.337 2.77924C660.177 1.31782 661.635 0.587105 663.711 0.587105ZM672.715 0.48593H676.234V4.69033L675.323 12.4246H673.648L672.715 4.69033V0.48593ZM672.794 13.7511H676.144V17H672.794V13.7511ZM680.382 0.48593H683.901V4.69033L682.99 12.4246H681.315L680.382 4.69033V0.48593ZM680.461 13.7511H683.811V17H680.461V13.7511ZM956.636 19.3495L957.04 19.372C957.355 19.387 957.655 19.3757 957.94 19.3383C958.224 19.3008 958.464 19.2146 958.659 19.0797C958.847 18.9523 959.019 18.6863 959.176 18.2816C959.341 17.8769 959.409 17.6295 959.379 17.5396L954.882 4.74654H958.446L961.121 13.7849L963.65 4.74654H967.057L962.852 16.7976C962.043 19.1209 961.402 20.5599 960.93 21.1145C960.458 21.6766 959.514 21.9576 958.097 21.9576C957.812 21.9576 957.584 21.9538 957.411 21.9464C957.239 21.9464 956.98 21.9351 956.636 21.9126V19.3495ZM972.149 4.74654V12.1323C972.149 12.8293 972.232 13.3539 972.397 13.7062C972.689 14.3282 973.262 14.6392 974.117 14.6392C975.211 14.6392 975.96 14.1971 976.365 13.3127C976.575 12.8331 976.68 12.1998 976.68 11.4129V4.74654H979.928V17H976.815V15.2688C976.785 15.3062 976.71 15.4187 976.59 15.606C976.47 15.7934 976.327 15.9583 976.163 16.1007C975.66 16.5503 975.173 16.8576 974.701 17.0225C974.236 17.1874 973.689 17.2698 973.06 17.2698C971.246 17.2698 970.025 16.6178 969.395 15.3137C969.043 14.5943 968.867 13.5338 968.867 12.1323V4.74654H972.149ZM982.997 0.48593H986.145V9.41185L990.136 4.80275H994.104L989.821 9.49054L994.273 17H990.406L987.472 11.7614L986.145 13.1441V17H982.997V0.48593ZM1041.52 4.61164C1042.11 3.23265 1042.98 1.74875 1044.12 0.15992H1046.54L1045.85 1.41899C1044.91 3.15021 1044.25 4.96388 1043.88 6.85998C1043.64 8.10406 1043.52 9.46056 1043.52 10.9295C1043.52 13.2228 1043.86 15.3325 1044.52 17.2586C1044.91 18.3977 1045.6 19.8591 1046.59 21.6428H1044.22L1043.42 20.5524C1042.9 19.8929 1042.35 18.9111 1041.77 17.6071C1040.73 15.2763 1040.21 12.983 1040.21 10.7271C1040.21 8.67364 1040.64 6.63514 1041.52 4.61164ZM1051.66 3.28512H1048.41V0.328546H1051.66V3.28512ZM1048.41 4.74654H1051.66V17H1048.41V4.74654ZM1055.99 0.15992C1057.13 1.74875 1057.99 3.23265 1058.59 4.61164C1059.46 6.63514 1059.9 8.67364 1059.9 10.7271C1059.9 12.983 1059.38 15.2763 1058.34 17.6071C1057.75 18.9111 1057.2 19.8929 1056.69 20.5524L1055.89 21.6428H1053.52C1054.51 19.8591 1055.2 18.3977 1055.59 17.2586C1056.25 15.3325 1056.59 13.2228 1056.59 10.9295C1056.59 9.46056 1056.47 8.10406 1056.23 6.85998C1055.86 4.96388 1055.2 3.15021 1054.26 1.41899L1053.57 0.15992H1055.99ZM1063.48 0.48593H1067V4.69033L1066.08 12.4246H1064.41L1063.48 4.69033V0.48593ZM1063.56 13.7511H1066.91V17H1063.56V13.7511ZM1070.93 4.61164C1071.52 3.23265 1072.39 1.74875 1073.53 0.15992H1075.94L1075.26 1.41899C1074.31 3.15021 1073.66 4.96388 1073.29 6.85998C1073.05 8.10406 1072.93 9.46056 1072.93 10.9295C1072.93 13.2228 1073.26 15.3325 1073.93 17.2586C1074.32 18.3977 1075.01 19.8591 1076 21.6428H1073.63L1072.83 20.5524C1072.31 19.8929 1071.76 18.9111 1071.18 17.6071C1070.14 15.2763 1069.61 12.983 1069.61 10.7271C1069.61 8.67364 1070.05 6.63514 1070.93 4.61164ZM1078.99 0.15992C1080.13 1.74875 1081 3.23265 1081.59 4.61164C1082.46 6.63514 1082.9 8.67364 1082.9 10.7271C1082.9 12.983 1082.38 15.2763 1081.34 17.6071C1080.76 18.9111 1080.2 19.8929 1079.69 20.5524L1078.89 21.6428H1076.52C1077.51 19.8591 1078.2 18.3977 1078.59 17.2586C1079.25 15.3325 1079.59 13.2228 1079.59 10.9295C1079.59 9.46056 1079.47 8.10406 1079.23 6.85998C1078.86 4.96388 1078.2 3.15021 1077.26 1.41899L1076.57 0.15992H1078.99ZM1464.54 0.48593H1468.05V4.69033L1467.14 12.4246H1465.47L1464.54 4.69033V0.48593ZM1464.61 13.7511H1467.96V17H1464.61V13.7511ZM1472.2 0.48593H1475.72V4.69033L1474.81 12.4246H1473.14L1472.2 4.69033V0.48593ZM1472.28 13.7511H1475.63V17H1472.28V13.7511ZM1577.45 9.00714C1577.45 10.8808 1577.6 12.316 1577.91 13.3127C1578.22 14.302 1578.85 14.7966 1579.8 14.7966C1580.75 14.7966 1581.37 14.302 1581.66 13.3127C1581.96 12.316 1582.11 10.8808 1582.11 9.00714C1582.11 7.04359 1581.96 5.58967 1581.66 4.64536C1581.37 3.70106 1580.75 3.22891 1579.8 3.22891C1578.85 3.22891 1578.22 3.70106 1577.91 4.64536C1577.6 5.58967 1577.45 7.04359 1577.45 9.00714ZM1579.8 0.587105C1581.87 0.587105 1583.33 1.31782 1584.16 2.77924C1585 4.24066 1585.42 6.31663 1585.42 9.00714C1585.42 11.6977 1585 13.7699 1584.16 15.2238C1583.33 16.6777 1581.87 17.4047 1579.8 17.4047C1577.72 17.4047 1576.26 16.6777 1575.42 15.2238C1574.59 13.7699 1574.18 11.6977 1574.18 9.00714C1574.18 6.31663 1574.59 4.24066 1575.42 2.77924C1576.26 1.31782 1577.72 0.587105 1579.8 0.587105ZM1587.87 5.75829V3.5774C1588.88 3.53243 1589.59 3.46498 1589.99 3.37505C1590.64 3.23265 1591.16 2.94786 1591.57 2.52068C1591.84 2.22839 1592.05 1.83868 1592.2 1.35154C1592.28 1.05926 1592.32 0.841917 1592.32 0.699522H1594.98V17H1591.7V5.75829H1587.87ZM1603.08 9.00714C1603.08 10.8808 1603.23 12.316 1603.54 13.3127C1603.85 14.302 1604.48 14.7966 1605.43 14.7966C1606.38 14.7966 1607 14.302 1607.29 13.3127C1607.59 12.316 1607.74 10.8808 1607.74 9.00714C1607.74 7.04359 1607.59 5.58967 1607.29 4.64536C1607 3.70106 1606.38 3.22891 1605.43 3.22891C1604.48 3.22891 1603.85 3.70106 1603.54 4.64536C1603.23 5.58967 1603.08 7.04359 1603.08 9.00714ZM1605.43 0.587105C1607.5 0.587105 1608.96 1.31782 1609.79 2.77924C1610.63 4.24066 1611.05 6.31663 1611.05 9.00714C1611.05 11.6977 1610.63 13.7699 1609.79 15.2238C1608.96 16.6777 1607.5 17.4047 1605.43 17.4047C1603.35 17.4047 1601.89 16.6777 1601.06 15.2238C1600.22 13.7699 1599.81 11.6977 1599.81 9.00714C1599.81 6.31663 1600.22 4.24066 1601.06 2.77924C1601.89 1.31782 1603.35 0.587105 1605.43 0.587105ZM1615.89 9.00714C1615.89 10.8808 1616.05 12.316 1616.36 13.3127C1616.66 14.302 1617.29 14.7966 1618.24 14.7966C1619.2 14.7966 1619.82 14.302 1620.11 13.3127C1620.41 12.316 1620.56 10.8808 1620.56 9.00714C1620.56 7.04359 1620.41 5.58967 1620.11 4.64536C1619.82 3.70106 1619.2 3.22891 1618.24 3.22891C1617.29 3.22891 1616.66 3.70106 1616.36 4.64536C1616.05 5.58967 1615.89 7.04359 1615.89 9.00714ZM1618.24 0.587105C1620.32 0.587105 1621.77 1.31782 1622.61 2.77924C1623.45 4.24066 1623.86 6.31663 1623.86 9.00714C1623.86 11.6977 1623.45 13.7699 1622.61 15.2238C1621.77 16.6777 1620.32 17.4047 1618.24 17.4047C1616.17 17.4047 1614.71 16.6777 1613.87 15.2238C1613.04 13.7699 1612.62 11.6977 1612.62 9.00714C1612.62 6.31663 1613.04 4.24066 1613.87 2.77924C1614.71 1.31782 1616.17 0.587105 1618.24 0.587105ZM1626.32 5.75829V3.5774C1627.33 3.53243 1628.04 3.46498 1628.44 3.37505C1629.08 3.23265 1629.61 2.94786 1630.01 2.52068C1630.29 2.22839 1630.5 1.83868 1630.64 1.35154C1630.73 1.05926 1630.77 0.841917 1630.77 0.699522H1633.43V17H1630.15V5.75829H1626.32ZM1641.53 9.00714C1641.53 10.8808 1641.68 12.316 1641.99 13.3127C1642.29 14.302 1642.92 14.7966 1643.88 14.7966C1644.83 14.7966 1645.45 14.302 1645.74 13.3127C1646.04 12.316 1646.19 10.8808 1646.19 9.00714C1646.19 7.04359 1646.04 5.58967 1645.74 4.64536C1645.45 3.70106 1644.83 3.22891 1643.88 3.22891C1642.92 3.22891 1642.29 3.70106 1641.99 4.64536C1641.68 5.58967 1641.53 7.04359 1641.53 9.00714ZM1643.88 0.587105C1645.95 0.587105 1647.41 1.31782 1648.24 2.77924C1649.08 4.24066 1649.5 6.31663 1649.5 9.00714C1649.5 11.6977 1649.08 13.7699 1648.24 15.2238C1647.41 16.6777 1645.95 17.4047 1643.88 17.4047C1641.8 17.4047 1640.34 16.6777 1639.5 15.2238C1638.67 13.7699 1638.25 11.6977 1638.25 9.00714C1638.25 6.31663 1638.67 4.24066 1639.5 2.77924C1640.34 1.31782 1641.8 0.587105 1643.88 0.587105ZM1651.95 5.75829V3.5774C1652.96 3.53243 1653.67 3.46498 1654.07 3.37505C1654.72 3.23265 1655.24 2.94786 1655.65 2.52068C1655.92 2.22839 1656.13 1.83868 1656.27 1.35154C1656.36 1.05926 1656.4 0.841917 1656.4 0.699522H1659.06V17H1655.78V5.75829H1651.95ZM1715.15 17C1715.18 15.8309 1715.43 14.7629 1715.9 13.7961C1716.36 12.7094 1717.44 11.559 1719.14 10.3449C1720.61 9.28819 1721.57 8.53125 1722 8.07408C1722.67 7.36211 1723.01 6.58268 1723.01 5.73581C1723.01 5.04632 1722.81 4.47299 1722.43 4.01583C1722.05 3.55866 1721.5 3.33008 1720.79 3.33008C1719.82 3.33008 1719.15 3.69356 1718.8 4.42053C1718.6 4.84022 1718.48 5.50723 1718.44 6.42155H1715.33C1715.38 5.03507 1715.63 3.91465 1716.08 3.06028C1716.93 1.43398 1718.45 0.62083 1720.63 0.62083C1722.36 0.62083 1723.73 1.10048 1724.75 2.05977C1725.77 3.01157 1726.28 4.27439 1726.28 5.84822C1726.28 7.05483 1725.92 8.12654 1725.2 9.06335C1724.73 9.68539 1723.95 10.3786 1722.87 11.1431L1721.59 12.0536C1720.79 12.6232 1720.24 13.0354 1719.94 13.2902C1719.64 13.545 1719.4 13.8411 1719.19 14.1783H1726.31V17H1715.15ZM1739.28 13.4926H1737.44V17H1734.3V13.4926H1727.85V10.6934L1733.84 0.800698H1737.44V10.9857H1739.28V13.4926ZM1734.3 10.9857V3.94838L1730.22 10.9857H1734.3Z" fill="black"/>
</svg>
